{
copyright = "Copyright \U00A9 2019 IBM Corp. with Reserved Font Name \"Plex\"\012This Font Software is licensed under the SIL Open Font License, Version 1.1.\012This license is copied below, and is also available with a FAQ at: http://scripts.sil.org/OFL.";
customParameters = (
{
name = licenseURL;
value = "http://scripts.sil.org/OFL";
},
{
name = vendorID;
value = "";
},
{
name = glyphOrder;
value = (
    ".notdef",
    uni0000,
    uni000D,
    space,
    a,
    b,
    c,
    d,
    e,
    f,
    g,
    "g.alt02",
    h,
    i,
    j,
    k,
    l,
    m,
    n,
    o,
    p,
    q,
    r,
    s,
    t,
    u,
    v,
    w,
    x,
    y,
    z,
    A,
    B,
    C,
    D,
    E,
    F,
    G,
    H,
    I,
    J,
    K,
    L,
    M,
    N,
    O,
    P,
    Q,
    R,
    S,
    T,
    U,
    V,
    W,
    X,
    Y,
    Z,
    zero,
    one,
    two,
    three,
    four,
    five,
    six,
    seven,
    eight,
    nine,
    ampersand,
    at,
    hyphen,
    uni00AD,
    endash,
    emdash,
    underscore,
    period,
    ellipsis,
    colon,
    comma,
    semicolon,
    quotesingle,
    quotedbl,
    quoteleft,
    quoteright,
    quotedblleft,
    quotedblright,
    quotesinglbase,
    quotedblbase,
    guilsinglleft,
    guilsinglright,
    guillemotleft,
    guillemotright,
    exclamdown,
    exclam,
    questiondown,
    question,
    parenleft,
    parenright,
    bracketleft,
    bracketright,
    braceleft,
    braceright,
    slash,
    backslash,
    fraction,
    percent,
    perthousand,
    bar,
    brokenbar,
    section,
    paragraph,
    copyright,
    registered,
    trademark,
    ordfeminine,
    ordmasculine,
    degree,
    asterisk,
    dagger,
    daggerdbl,
    numbersign,
    asciicircum,
    asciitilde,
    plus,
    minus,
    plusminus,
    multiply,
    divide,
    equal,
    approxequal,
    notequal,
    less,
    greater,
    lessequal,
    greaterequal,
    periodcentered,
    bullet,
    lozenge,
    logicalnot,

glyphs = (
{
glyphname = .notdef;
layers = (
{
layerId = "92E619D5-181B-4123-A4FF-2530258B7CD2";
name = "Regular Italic";
paths = (
{
closed = 1;
nodes = (
"32 0 LINE",
"32 780 LINE",
"440 780 LINE",
"440 0 LINE"
);
},
{
closed = 1;
nodes = (
"92 60 LINE",
"380 60 LINE",
"380 720 LINE",
"92 720 LINE"
);
}
);
width = 472;
}
);
},
{
glyphname = a;
layers = (
{
layerId = "92E619D5-181B-4123-A4FF-2530258B7CD2";
name = "Regular Italic";
paths = (
{
closed = 1;
nodes = (
"437 0 LINE SMOOTH",
"392 0 OFFCURVE",
"370 25 OFFCURVE",
"370 62 CURVE SMOOTH",
"370 70 OFFCURVE",
"371 79 OFFCURVE",
"373 89 CURVE SMOOTH",
"378 112 LINE",
"375 112 LINE",
"332 25 OFFCURVE",
"284 -12 OFFCURVE",
"208 -12 CURVE SMOOTH",
"113 -12 OFFCURVE",
"51 62 OFFCURVE",
"51 185 CURVE SMOOTH",
"51 261 OFFCURVE",
"72 346 OFFCURVE",
"113 414 CURVE SMOOTH",
"154 481 OFFCURVE",
"218 528 OFFCURVE",
"303 528 CURVE SMOOTH",
"334 528 OFFCURVE",
"364 520 OFFCURVE",
"388 504 CURVE SMOOTH",
"412 488 OFFCURVE",
"430 464 OFFCURVE",
"438 432 CURVE",
"442 432 LINE",
"459 516 LINE",
"536 516 LINE",
"446 68 LINE",
"519 68 LINE",
"506 0 LINE"
);
},
{
closed = 1;
nodes = (
"275 58 OFFCURVE",
"306 78 OFFCURVE",
"337 109 CURVE SMOOTH",
"372 144 OFFCURVE",
"391 182 OFFCURVE",
"402 233 CURVE SMOOTH",
"427 357 LINE SMOOTH",
"431 380 OFFCURVE",
"422 405 OFFCURVE",
"402 425 CURVE SMOOTH",
"382 444 OFFCURVE",
"352 458 OFFCURVE",
"312 458 CURVE SMOOTH",
"224 458 OFFCURVE",
"170 401 OFFCURVE",
"150 301 CURVE SMOOTH",
"135 226 LINE",
"132 207 OFFCURVE",
"130 190 OFFCURVE",
"130 175 CURVE SMOOTH",
"130 108 OFFCURVE",
"160 58 OFFCURVE",
"227 58 CURVE SMOOTH"
);
}
);
width = 583;
}
);
leftKerningGroup = a;
rightKerningGroup = a;
unicode = 0061;
},
{
glyphname = b;
layers = (
{
layerId = "92E619D5-181B-4123-A4FF-2530258B7CD2";
name = "Regular Italic";
paths = (
{
closed = 1;
nodes = (
"185 740 LINE",
"262 740 LINE",
"194 404 LINE",
"197 404 LINE",
"240 491 OFFCURVE",
"288 528 OFFCURVE",
"364 528 CURVE SMOOTH",
"459 528 OFFCURVE",
"521 454 OFFCURVE",
"521 331 CURVE SMOOTH",
"521 255 OFFCURVE",
"500 170 OFFCURVE",
"459 103 CURVE SMOOTH",
"418 35 OFFCURVE",
"354 -12 OFFCURVE",
"269 -12 CURVE SMOOTH",
"238 -12 OFFCURVE",
"208 -4 OFFCURVE",
"184 12 CURVE SMOOTH",
"160 28 OFFCURVE",
"142 52 OFFCURVE",
"134 84 CURVE",
"130 84 LINE",
"113 0 LINE",
"36 0 LINE"
);
},
{
closed = 1;
nodes = (
"346 58 OFFCURVE",
"402 115 OFFCURVE",
"422 215 CURVE SMOOTH",
"437 290 LINE",
"440 309 OFFCURVE",
"442 326 OFFCURVE",
"442 341 CURVE SMOOTH",
"442 409 OFFCURVE",
"412 458 OFFCURVE",
"343 458 CURVE SMOOTH",
"298 458 OFFCURVE",
"266 438 OFFCURVE",
"235 407 CURVE SMOOTH",
"202 374 OFFCURVE",
"181 335 OFFCURVE",
"170 283 CURVE SMOOTH",
"149 178 LINE SMOOTH",
"142 146 OFFCURVE",
"147 116 OFFCURVE",
"166 94 CURVE SMOOTH",
"185 72 OFFCURVE",
"215 58 OFFCURVE",
"262 58 CURVE SMOOTH"
);
}
);
width = 572;
}
);
leftKerningGroup = b;
rightKerningGroup = b;
unicode = 0062;
},
{
glyphname = c;
layers = (
{
layerId = "92E619D5-181B-4123-A4FF-2530258B7CD2";
name = "Regular Italic";
paths = (
{
closed = 1;
nodes = (
"177 -12 OFFCURVE",
"131 9 OFFCURVE",
"99 46 CURVE SMOOTH",
"67 83 OFFCURVE",
"49 135 OFFCURVE",
"49 199 CURVE SMOOTH",
"49 288 OFFCURVE",
"73 371 OFFCURVE",
"117 431 CURVE SMOOTH",
"161 491 OFFCURVE",
"223 528 OFFCURVE",
"302 528 CURVE SMOOTH",
"394 528 OFFCURVE",
"453 478 OFFCURVE",
"473 407 CURVE",
"409 378 LINE",
"392 432 OFFCURVE",
"355 459 OFFCURVE",
"300 459 CURVE SMOOTH",
"217 459 OFFCURVE",
"166 404 OFFCURVE",
"147 312 CURVE SMOOTH",
"130 228 LINE SMOOTH",
"127 213 OFFCURVE",
"126 195 OFFCURVE",
"126 183 CURVE SMOOTH",
"126 108 OFFCURVE",
"164 57 OFFCURVE",
"244 57 CURVE SMOOTH",
"295 57 OFFCURVE",
"335 81 OFFCURVE",
"376 158 CURVE",
"437 128 LINE",
"394 39 OFFCURVE",
"325 -12 OFFCURVE",
"236 -12 CURVE SMOOTH"
);
}
);
width = 488;
}
);
leftKerningGroup = c;
rightKerningGroup = c;
unicode = 0063;
},
{
glyphname = d;
layers = (
{
layerId = "92E619D5-181B-4123-A4FF-2530258B7CD2";
name = "Regular Italic";
paths = (
{
closed = 1;
nodes = (
"437 0 LINE SMOOTH",
"392 0 OFFCURVE",
"370 25 OFFCURVE",
"370 62 CURVE SMOOTH",
"370 70 OFFCURVE",
"371 79 OFFCURVE",
"373 89 CURVE SMOOTH",
"378 112 LINE",
"375 112 LINE",
"332 25 OFFCURVE",
"284 -12 OFFCURVE",
"208 -12 CURVE SMOOTH",
"113 -12 OFFCURVE",
"51 62 OFFCURVE",
"51 185 CURVE SMOOTH",
"51 261 OFFCURVE",
"72 346 OFFCURVE",
"113 414 CURVE SMOOTH",
"154 481 OFFCURVE",
"218 528 OFFCURVE",
"303 528 CURVE SMOOTH",
"334 528 OFFCURVE",
"364 520 OFFCURVE",
"388 504 CURVE SMOOTH",
"412 488 OFFCURVE",
"430 464 OFFCURVE",
"438 432 CURVE",
"442 432 LINE",
"504 740 LINE",
"581 740 LINE",
"446 68 LINE",
"519 68 LINE",
"506 0 LINE"
);
},
{
closed = 1;
nodes = (
"274 58 OFFCURVE",
"306 78 OFFCURVE",
"337 109 CURVE SMOOTH",
"370 142 OFFCURVE",
"391 181 OFFCURVE",
"402 233 CURVE SMOOTH",
"423 338 LINE SMOOTH",
"430 370 OFFCURVE",
"425 400 OFFCURVE",
"406 422 CURVE SMOOTH",
"387 444 OFFCURVE",
"355 458 OFFCURVE",
"310 458 CURVE SMOOTH",
"226 458 OFFCURVE",
"170 401 OFFCURVE",
"150 301 CURVE SMOOTH",
"135 226 LINE",
"132 207 OFFCURVE",
"130 190 OFFCURVE",
"130 175 CURVE SMOOTH",
"130 107 OFFCURVE",
"160 58 OFFCURVE",
"229 58 CURVE SMOOTH"
);
}
);
width = 583;
}
);
leftKerningGroup = a;
rightKerningGroup = d;
unicode = 0064;
},
{
glyphname = e;
lastChange = "2018-11-07 04:54:18 +0000";
layers = (
{
layerId = "92E619D5-181B-4123-A4FF-2530258B7CD2";
name = "Regular Italic";
paths = (
{
closed = 1;
nodes = (
"120 -12 OFFCURVE",
"49 63 OFFCURVE",
"49 204 CURVE SMOOTH",
"49 289 OFFCURVE",
"76 370 OFFCURVE",
"124 430 CURVE SMOOTH",
"171 490 OFFCURVE",
"238 528 OFFCURVE",
"319 528 CURVE SMOOTH",
"363 528 OFFCURVE",
"404 517 OFFCURVE",
"435 494 CURVE SMOOTH",
"466 471 OFFCURVE",
"485 437 OFFCURVE",
"485 390 CURVE SMOOTH",
"485 333 OFFCURVE",
"456 291 OFFCURVE",
"398 264 CURVE SMOOTH",
"339 237 OFFCURVE",
"250 222 OFFCURVE",
"129 221 CURVE",
"126 206 OFFCURVE",
"126 190 OFFCURVE",
"126 179 CURVE SMOOTH",
"126 106 OFFCURVE",
"169 57 OFFCURVE",
"249 57 CURVE SMOOTH",
"314 57 OFFCURVE",
"367 90 OFFCURVE",
"407 139 CURVE",
"457 94 LINE",
"393 15 OFFCURVE",
"319 -12 OFFCURVE",
"244 -12 CURVE SMOOTH"
);
},
{
closed = 1;
nodes = (
"271 462 OFFCURVE",
"233 447 OFFCURVE",
"205 421 CURVE SMOOTH",
"176 395 OFFCURVE",
"154 355 OFFCURVE",
"145 310 CURVE SMOOTH",
"139 281 LINE",
"250 285 OFFCURVE",
"316 295 OFFCURVE",
"356 313 CURVE SMOOTH",
"395 331 OFFCURVE",
"406 355 OFFCURVE",
"406 391 CURVE SMOOTH",
"406 419 OFFCURVE",
"394 436 OFFCURVE",
"377 447 CURVE SMOOTH",
"360 458 OFFCURVE",
"335 462 OFFCURVE",
"311 462 CURVE SMOOTH"
);
}
);
width = 511;
}
);
leftKerningGroup = c;
rightKerningGroup = e;
unicode = 0065;
},
{
glyphname = f;
layers = (
{
layerId = "92E619D5-181B-4123-A4FF-2530258B7CD2";
name = "Regular Italic";
paths = (
{
closed = 1;
nodes = (
"118 -86 LINE SMOOTH",
"103 -157 OFFCURVE",
"72 -200 OFFCURVE",
"-8 -200 CURVE SMOOTH",
"-75 -200 LINE",
"-62 -132 LINE",
"31 -132 LINE",
"149 448 LINE",
"64 448 LINE",
"77 516 LINE",
"162 516 LINE",
"184 626 LINE SMOOTH",
"199 697 OFFCURVE",
"230 740 OFFCURVE",
"310 740 CURVE SMOOTH",
"389 740 LINE",
"376 672 LINE",
"271 672 LINE",
"239 516 LINE",
"340 516 LINE",
"327 448 LINE",
"226 448 LINE"
);
}
);
width = 307;
}
);
leftKerningGroup = f;
rightKerningGroup = f;
unicode = 0066;
},
{
glyphname = g;
lastChange = "2018-11-07 04:54:33 +0000";
layers = (
{
layerId = "92E619D5-181B-4123-A4FF-2530258B7CD2";
name = "Regular Italic";
paths = (
{
closed = 1;
nodes = (
"284 -12 OFFCURVE",
"333 26 OFFCURVE",
"375 112 CURVE",
"378 112 LINE",
"356 2 LINE SMOOTH",
"336 -98 OFFCURVE",
"282 -144 OFFCURVE",
"198 -144 CURVE SMOOTH",
"136 -144 OFFCURVE",
"91 -119 OFFCURVE",
"63 -75 CURVE",
"8 -123 LINE",
"44 -175 OFFCURVE",
"105 -212 OFFCURVE",
"198 -212 CURVE SMOOTH",
"328 -212 OFFCURVE",
"405 -138 OFFCURVE",
"431 -8 CURVE SMOOTH",
"536 516 LINE",
"459 516 LINE",
"442 432 LINE",
"438 432 LINE",
"423 497 OFFCURVE",
"365 528 OFFCURVE",
"303 528 CURVE SMOOTH",
"132 528 OFFCURVE",
"51 337 OFFCURVE",
"51 185 CURVE SMOOTH",
"51 63 OFFCURVE",
"114 -12 OFFCURVE",
"208 -12 CURVE SMOOTH"
);
},
{
closed = 1;
nodes = (
"160 58 OFFCURVE",
"130 109 OFFCURVE",
"130 175 CURVE SMOOTH",
"130 191 OFFCURVE",
"132 209 OFFCURVE",
"135 226 CURVE SMOOTH",
"150 301 LINE SMOOTH",
"170 401 OFFCURVE",
"225 458 OFFCURVE",
"312 458 CURVE SMOOTH",
"391 458 OFFCURVE",
"436 402 OFFCURVE",
"427 357 CURVE SMOOTH",
"402 233 LINE SMOOTH",
"392 183 OFFCURVE",
"372 144 OFFCURVE",
"337 109 CURVE SMOOTH",
"307 79 OFFCURVE",
"275 58 OFFCURVE",
"227 58 CURVE SMOOTH"
);
}
);
width = 562;
}
);
leftKerningGroup = g;
rightKerningGroup = g;
unicode = 0067;
},
{
glyphname = h;
layers = (
{
layerId = "92E619D5-181B-4123-A4FF-2530258B7CD2";
name = "Regular Italic";
paths = (
{
closed = 1;
nodes = (
"185 740 LINE",
"262 740 LINE",
"196 414 LINE",
"201 414 LINE",
"237 491 OFFCURVE",
"284 528 OFFCURVE",
"359 528 CURVE SMOOTH",
"448 528 OFFCURVE",
"492 474 OFFCURVE",
"492 385 CURVE SMOOTH",
"492 366 OFFCURVE",
"490 343 OFFCURVE",
"485 318 CURVE SMOOTH",
"435 68 LINE",
"508 68 LINE",
"495 0 LINE",
"422 0 LINE SMOOTH",
"383 0 OFFCURVE",
"358 18 OFFCURVE",
"358 58 CURVE SMOOTH",
"358 61 OFFCURVE",
"358 64 OFFCURVE",
"358 67 CURVE SMOOTH",
"358 70 OFFCURVE",
"359 74 OFFCURVE",
"360 79 CURVE SMOOTH",
"408 318 LINE SMOOTH",
"412 338 OFFCURVE",
"413 359 OFFCURVE",
"413 371 CURVE SMOOTH",
"413 430 OFFCURVE",
"390 458 OFFCURVE",
"334 458 CURVE SMOOTH",
"262 458 OFFCURVE",
"219 403 OFFCURVE",
"195 355 CURVE SMOOTH",
"183 331 OFFCURVE",
"175 309 OFFCURVE",
"171 288 CURVE SMOOTH",
"113 0 LINE",
"36 0 LINE"
);
}
);
width = 565;
}
);
leftKerningGroup = b;
rightKerningGroup = h;
unicode = 0068;
},
{
glyphname = i;
layers = (
{
layerId = "92E619D5-181B-4123-A4FF-2530258B7CD2";
name = "Regular Italic";
paths = (
{
closed = 1;
nodes = (
"175 637 OFFCURVE",
"164 653 OFFCURVE",
"164 672 CURVE SMOOTH",
"164 674 OFFCURVE",
"164 677 OFFCURVE",
"165 681 CURVE",
"165 688 OFFCURVE",
"168 716 OFFCURVE",
"185 730 CURVE SMOOTH",
"193 737 OFFCURVE",
"205 740 OFFCURVE",
"222 740 CURVE SMOOTH",
"253 740 OFFCURVE",
"264 724 OFFCURVE",
"264 705 CURVE SMOOTH",
"264 703 OFFCURVE",
"264 700 OFFCURVE",
"264 697 CURVE",
"263 689 OFFCURVE",
"260 662 OFFCURVE",
"244 648 CURVE",
"235 641 OFFCURVE",
"223 637 OFFCURVE",
"206 637 CURVE SMOOTH"
);
},
{
closed = 1;
nodes = (
"121 0 LINE SMOOTH",
"74 0 OFFCURVE",
"51 26 OFFCURVE",
"51 63 CURVE SMOOTH",
"51 69 OFFCURVE",
"52 77 OFFCURVE",
"54 87 CURVE SMOOTH",
"140 516 LINE",
"217 516 LINE",
"127 68 LINE",
"200 68 LINE",
"187 0 LINE"
);
}
);
width = 264;
}
);
leftKerningGroup = i;
rightKerningGroup = i;
unicode = 0069;
},
{
glyphname = j;
layers = (
{
layerId = "92E619D5-181B-4123-A4FF-2530258B7CD2";
name = "Regular Italic";
paths = (
{
closed = 1;
nodes = (
"140 516 LINE",
"217 516 LINE",
"94 -98 LINE SMOOTH",
"79 -169 OFFCURVE",
"51 -200 OFFCURVE",
"-20 -200 CURVE SMOOTH",
"-87 -200 LINE",
"-73 -132 LINE",
"10 -132 LINE"
);
},
{
closed = 1;
nodes = (
"175 637 OFFCURVE",
"164 653 OFFCURVE",
"164 672 CURVE SMOOTH",
"164 674 OFFCURVE",
"164 677 OFFCURVE",
"165 681 CURVE",
"165 688 OFFCURVE",
"168 716 OFFCURVE",
"185 730 CURVE SMOOTH",
"193 737 OFFCURVE",
"205 740 OFFCURVE",
"222 740 CURVE SMOOTH",
"253 740 OFFCURVE",
"264 724 OFFCURVE",
"264 705 CURVE SMOOTH",
"264 703 OFFCURVE",
"264 700 OFFCURVE",
"264 697 CURVE",
"263 689 OFFCURVE",
"260 662 OFFCURVE",
"244 648 CURVE",
"235 641 OFFCURVE",
"223 637 OFFCURVE",
"206 637 CURVE SMOOTH"
);
}
);
width = 253;
}
);
leftKerningGroup = j;
rightKerningGroup = j;
unicode = 006A;
},
{
glyphname = k;
layers = (
{
layerId = "92E619D5-181B-4123-A4FF-2530258B7CD2";
name = "Regular Italic";
paths = (
{
closed = 1;
nodes = (
"185 740 LINE",
"262 740 LINE",
"168 275 LINE",
"173 275 LINE",
"265 363 LINE",
"439 516 LINE",
"532 516 LINE",
"302 308 LINE",
"407 68 LINE",
"473 68 LINE",
"460 0 LINE",
"416 0 LINE SMOOTH",
"369 0 OFFCURVE",
"348 15 OFFCURVE",
"331 54 CURVE SMOOTH",
"240 263 LINE",
"149 181 LINE",
"113 0 LINE",
"36 0 LINE"
);
}
);
width = 519;
}
);
leftKerningGroup = b;
rightKerningGroup = k;
unicode = 006B;
},
{
glyphname = l;
layers = (
{
layerId = "92E619D5-181B-4123-A4FF-2530258B7CD2";
name = "Regular Italic";
paths = (
{
closed = 1;
nodes = (
"121 0 LINE SMOOTH",
"74 0 OFFCURVE",
"51 26 OFFCURVE",
"51 63 CURVE SMOOTH",
"51 69 OFFCURVE",
"52 77 OFFCURVE",
"54 87 CURVE SMOOTH",
"185 740 LINE",
"262 740 LINE",
"127 68 LINE",
"205 68 LINE",
"192 0 LINE"
);
}
);
width = 264;
}
);
leftKerningGroup = l;
rightKerningGroup = d;
unicode = 006C;
},
{
glyphname = m;
layers = (
{
layerId = "92E619D5-181B-4123-A4FF-2530258B7CD2";
name = "Regular Italic";
paths = (
{
closed = 1;
nodes = (
"36 0 LINE",
"140 516 LINE",
"217 516 LINE",
"196 414 LINE",
"201 414 LINE",
"237 491 OFFCURVE",
"282 528 OFFCURVE",
"358 528 CURVE SMOOTH",
"430 528 OFFCURVE",
"470 486 OFFCURVE",
"478 414 CURVE",
"484 414 LINE",
"519 491 OFFCURVE",
"569 528 OFFCURVE",
"645 528 CURVE SMOOTH",
"732 528 OFFCURVE",
"775 477 OFFCURVE",
"775 386 CURVE SMOOTH",
"775 365 OFFCURVE",
"773 342 OFFCURVE",
"768 319 CURVE SMOOTH",
"718 68 LINE",
"791 68 LINE",
"778 0 LINE",
"706 0 LINE SMOOTH",
"666 0 OFFCURVE",
"640 18 OFFCURVE",
"640 57 CURVE SMOOTH",
"640 62 OFFCURVE",
"641 70 OFFCURVE",
"643 80 CURVE SMOOTH",
"691 319 LINE SMOOTH",
"695 339 OFFCURVE",
"697 357 OFFCURVE",
"697 374 CURVE SMOOTH",
"697 430 OFFCURVE",
"674 458 OFFCURVE",
"618 458 CURVE SMOOTH",
"555 458 OFFCURVE",
"512 404 OFFCURVE",
"490 356 CURVE SMOOTH",
"479 332 OFFCURVE",
"471 309 OFFCURVE",
"467 288 CURVE SMOOTH",
"409 0 LINE",
"332 0 LINE",
"396 318 LINE SMOOTH",
"400 338 OFFCURVE",
"402 357 OFFCURVE",
"402 376 CURVE SMOOTH",
"402 431 OFFCURVE",
"378 458 OFFCURVE",
"330 458 CURVE SMOOTH",
"295 458 OFFCURVE",
"264 442 OFFCURVE",
"241 418 CURVE SMOOTH",
"204 381 OFFCURVE",
"179 328 OFFCURVE",
"171 288 CURVE SMOOTH",
"113 0 LINE"
);
}
);
width = 848;
}
);
leftKerningGroup = m;
rightKerningGroup = h;
unicode = 006D;
},
{
glyphname = n;
layers = (
{
layerId = "92E619D5-181B-4123-A4FF-2530258B7CD2";
name = "Regular Italic";
paths = (
{
closed = 1;
nodes = (
"36 0 LINE",
"140 516 LINE",
"217 516 LINE",
"196 414 LINE",
"201 414 LINE",
"237 491 OFFCURVE",
"284 528 OFFCURVE",
"359 528 CURVE SMOOTH",
"448 528 OFFCURVE",
"492 474 OFFCURVE",
"492 385 CURVE SMOOTH",
"492 366 OFFCURVE",
"490 343 OFFCURVE",
"485 318 CURVE SMOOTH",
"435 68 LINE",
"508 68 LINE",
"495 0 LINE",
"422 0 LINE SMOOTH",
"383 0 OFFCURVE",
"358 18 OFFCURVE",
"358 58 CURVE SMOOTH",
"358 61 OFFCURVE",
"358 64 OFFCURVE",
"358 67 CURVE SMOOTH",
"358 70 OFFCURVE",
"359 74 OFFCURVE",
"360 79 CURVE SMOOTH",
"408 318 LINE SMOOTH",
"412 338 OFFCURVE",
"413 359 OFFCURVE",
"413 371 CURVE SMOOTH",
"413 430 OFFCURVE",
"390 458 OFFCURVE",
"334 458 CURVE SMOOTH",
"262 458 OFFCURVE",
"219 403 OFFCURVE",
"195 355 CURVE SMOOTH",
"183 331 OFFCURVE",
"175 309 OFFCURVE",
"171 288 CURVE SMOOTH",
"113 0 LINE"
);
}
);
width = 565;
}
);
leftKerningGroup = m;
rightKerningGroup = h;
unicode = 006E;
},
{
glyphname = o;
layers = (
{
layerId = "92E619D5-181B-4123-A4FF-2530258B7CD2";
name = "Regular Italic";
paths = (
{
closed = 1;
nodes = (
"180 -12 OFFCURVE",
"134 6 OFFCURVE",
"102 42 CURVE SMOOTH",
"69 77 OFFCURVE",
"49 129 OFFCURVE",
"49 200 CURVE SMOOTH",
"49 287 OFFCURVE",
"76 369 OFFCURVE",
"123 429 CURVE SMOOTH",
"170 489 OFFCURVE",
"236 528 OFFCURVE",
"315 528 CURVE SMOOTH",
"368 528 OFFCURVE",
"416 510 OFFCURVE",
"449 475 CURVE SMOOTH",
"481 439 OFFCURVE",
"501 385 OFFCURVE",
"501 316 CURVE SMOOTH",
"501 229 OFFCURVE",
"474 147 OFFCURVE",
"427 87 CURVE SMOOTH",
"380 27 OFFCURVE",
"314 -12 OFFCURVE",
"235 -12 CURVE SMOOTH"
);
},
{
closed = 1;
nodes = (
"320 57 OFFCURVE",
"384 113 OFFCURVE",
"405 218 CURVE SMOOTH",
"420 293 LINE SMOOTH",
"423 310 OFFCURVE",
"425 325 OFFCURVE",
"425 338 CURVE SMOOTH",
"425 410 OFFCURVE",
"384 459 OFFCURVE",
"305 459 CURVE SMOOTH",
"230 459 OFFCURVE",
"166 403 OFFCURVE",
"145 298 CURVE SMOOTH",
"130 223 LINE SMOOTH",
"127 206 OFFCURVE",
"125 191 OFFCURVE",
"125 178 CURVE SMOOTH",
"125 106 OFFCURVE",
"166 57 OFFCURVE",
"245 57 CURVE SMOOTH"
);
}
);
width = 550;
}
);
leftKerningGroup = c;
rightKerningGroup = o;
unicode = 006F;
},
{
glyphname = p;
layers = (
{
layerId = "92E619D5-181B-4123-A4FF-2530258B7CD2";
name = "Regular Italic";
paths = (
{
closed = 1;
nodes = (
"140 516 LINE",
"217 516 LINE",
"194 404 LINE",
"197 404 LINE",
"240 491 OFFCURVE",
"288 528 OFFCURVE",
"364 528 CURVE SMOOTH",
"459 528 OFFCURVE",
"521 454 OFFCURVE",
"521 331 CURVE SMOOTH",
"521 255 OFFCURVE",
"500 170 OFFCURVE",
"459 103 CURVE SMOOTH",
"418 35 OFFCURVE",
"354 -12 OFFCURVE",
"269 -12 CURVE SMOOTH",
"238 -12 OFFCURVE",
"208 -4 OFFCURVE",
"184 12 CURVE SMOOTH",
"160 28 OFFCURVE",
"142 52 OFFCURVE",
"134 84 CURVE",
"130 84 LINE",
"73 -200 LINE",
"-4 -200 LINE"
);
},
{
closed = 1;
nodes = (
"346 58 OFFCURVE",
"402 115 OFFCURVE",
"422 215 CURVE SMOOTH",
"437 290 LINE",
"440 309 OFFCURVE",
"442 326 OFFCURVE",
"442 341 CURVE SMOOTH",
"442 409 OFFCURVE",
"412 458 OFFCURVE",
"343 458 CURVE SMOOTH",
"298 458 OFFCURVE",
"266 438 OFFCURVE",
"235 407 CURVE SMOOTH",
"202 374 OFFCURVE",
"181 335 OFFCURVE",
"170 283 CURVE SMOOTH",
"149 178 LINE SMOOTH",
"142 146 OFFCURVE",
"147 116 OFFCURVE",
"166 94 CURVE SMOOTH",
"185 72 OFFCURVE",
"215 58 OFFCURVE",
"262 58 CURVE SMOOTH"
);
}
);
width = 572;
}
);
leftKerningGroup = p;
rightKerningGroup = b;
unicode = 0070;
},
{
glyphname = q;
layers = (
{
layerId = "92E619D5-181B-4123-A4FF-2530258B7CD2";
name = "Regular Italic";
paths = (
{
closed = 1;
nodes = (
"378 112 LINE",
"375 112 LINE",
"332 25 OFFCURVE",
"284 -12 OFFCURVE",
"208 -12 CURVE SMOOTH",
"113 -12 OFFCURVE",
"51 62 OFFCURVE",
"51 185 CURVE SMOOTH",
"51 261 OFFCURVE",
"72 346 OFFCURVE",
"113 414 CURVE SMOOTH",
"154 481 OFFCURVE",
"218 528 OFFCURVE",
"303 528 CURVE SMOOTH",
"334 528 OFFCURVE",
"364 520 OFFCURVE",
"388 504 CURVE SMOOTH",
"412 488 OFFCURVE",
"430 464 OFFCURVE",
"438 432 CURVE",
"442 432 LINE",
"459 516 LINE",
"536 516 LINE",
"392 -200 LINE",
"315 -200 LINE"
);
},
{
closed = 1;
nodes = (
"274 58 OFFCURVE",
"306 78 OFFCURVE",
"337 109 CURVE SMOOTH",
"370 142 OFFCURVE",
"391 181 OFFCURVE",
"402 233 CURVE SMOOTH",
"423 338 LINE SMOOTH",
"430 370 OFFCURVE",
"425 400 OFFCURVE",
"406 422 CURVE SMOOTH",
"387 444 OFFCURVE",
"355 458 OFFCURVE",
"310 458 CURVE SMOOTH",
"226 458 OFFCURVE",
"170 401 OFFCURVE",
"150 301 CURVE SMOOTH",
"135 226 LINE",
"132 207 OFFCURVE",
"130 190 OFFCURVE",
"130 175 CURVE SMOOTH",
"130 107 OFFCURVE",
"160 58 OFFCURVE",
"229 58 CURVE SMOOTH"
);
}
);
width = 572;
}
);
leftKerningGroup = c;
rightKerningGroup = j;
unicode = 0071;
},
{
glyphname = r;
layers = (
{
layerId = "92E619D5-181B-4123-A4FF-2530258B7CD2";
name = "Regular Italic";
paths = (
{
closed = 1;
nodes = (
"36 0 LINE",
"140 516 LINE",
"217 516 LINE",
"195 413 LINE",
"200 413 LINE",
"213 438 OFFCURVE",
"232 464 OFFCURVE",
"257 484 CURVE SMOOTH",
"281 503 OFFCURVE",
"312 516 OFFCURVE",
"355 516 CURVE SMOOTH",
"387 516 LINE",
"372 437 LINE",
"336 437 LINE SMOOTH",
"288 437 OFFCURVE",
"252 422 OFFCURVE",
"225 398 CURVE SMOOTH",
"198 374 OFFCURVE",
"182 342 OFFCURVE",
"175 307 CURVE SMOOTH",
"113 0 LINE"
);
}
);
width = 364;
}
);
leftKerningGroup = m;
rightKerningGroup = r;
unicode = 0072;
},
{
glyphname = s;
layers = (
{
layerId = "92E619D5-181B-4123-A4FF-2530258B7CD2";
name = "Regular Italic";
paths = (
{
closed = 1;
nodes = (
"129 -12 OFFCURVE",
"55 22 OFFCURVE",
"14 82 CURVE",
"67 129 LINE",
"103 81 OFFCURVE",
"149 55 OFFCURVE",
"209 55 CURVE SMOOTH",
"277 55 OFFCURVE",
"326 88 OFFCURVE",
"326 152 CURVE SMOOTH",
"326 187 OFFCURVE",
"310 212 OFFCURVE",
"250 224 CURVE SMOOTH",
"211 232 LINE SMOOTH",
"172 240 OFFCURVE",
"137 252 OFFCURVE",
"113 273 CURVE",
"88 293 OFFCURVE",
"73 322 OFFCURVE",
"73 365 CURVE SMOOTH",
"73 408 OFFCURVE",
"88 449 OFFCURVE",
"120 479 CURVE SMOOTH",
"152 509 OFFCURVE",
"200 528 OFFCURVE",
"264 528 CURVE SMOOTH",
"340 528 OFFCURVE",
"393 501 OFFCURVE",
"432 452 CURVE",
"379 405 LINE",
"356 437 OFFCURVE",
"319 461 OFFCURVE",
"258 461 CURVE SMOOTH",
"182 461 OFFCURVE",
"148 424 OFFCURVE",
"148 372 CURVE SMOOTH",
"148 336 OFFCURVE",
"164 313 OFFCURVE",
"223 301 CURVE SMOOTH",
"262 293 LINE SMOOTH",
"303 285 OFFCURVE",
"338 272 OFFCURVE",
"362 251 CURVE SMOOTH",
"386 230 OFFCURVE",
"400 200 OFFCURVE",
"400 157 CURVE SMOOTH",
"400 105 OFFCURVE",
"380 62 OFFCURVE",
"346 34 CURVE SMOOTH",
"312 5 OFFCURVE",
"264 -12 OFFCURVE",
"209 -12 CURVE SMOOTH"
);
}
);
width = 471;
}
);
leftKerningGroup = s;
rightKerningGroup = s;
unicode = 0073;
},
{
glyphname = t;
layers = (
{
layerId = "92E619D5-181B-4123-A4FF-2530258B7CD2";
name = "Regular Italic";
paths = (
{
closed = 1;
nodes = (
"137 0 LINE SMOOTH",
"86 0 OFFCURVE",
"67 27 OFFCURVE",
"67 64 CURVE SMOOTH",
"67 76 OFFCURVE",
"68 87 OFFCURVE",
"71 98 CURVE",
"142 446 LINE",
"66 446 LINE",
"79 516 LINE",
"118 516 LINE SMOOTH",
"155 516 OFFCURVE",
"163 529 OFFCURVE",
"170 565 CURVE SMOOTH",
"189 659 LINE",
"260 659 LINE",
"232 516 LINE",
"341 516 LINE",
"328 448 LINE",
"219 448 LINE",
"142 68 LINE",
"243 68 LINE",
"230 0 LINE"
);
}
);
width = 320;
}
);
leftKerningGroup = t;
rightKerningGroup = t;
unicode = 0074;
},
{
glyphname = u;
lastChange = "2018-11-07 04:54:16 +0000";
layers = (
{
layerId = "92E619D5-181B-4123-A4FF-2530258B7CD2";
name = "Regular Italic";
paths = (
{
closed = 1;
nodes = (
"211 516 LINE",
"147 198 LINE SMOOTH",
"143 178 OFFCURVE",
"142 157 OFFCURVE",
"142 145 CURVE SMOOTH",
"142 88 OFFCURVE",
"163 58 OFFCURVE",
"219 58 CURVE SMOOTH",
"290 58 OFFCURVE",
"334 116 OFFCURVE",
"357 164 CURVE SMOOTH",
"368 187 OFFCURVE",
"376 209 OFFCURVE",
"380 228 CURVE SMOOTH",
"438 516 LINE",
"515 516 LINE",
"425 68 LINE",
"498 68 LINE",
"485 0 LINE",
"415 0 LINE SMOOTH",
"371 0 OFFCURVE",
"349 26 OFFCURVE",
"349 63 CURVE SMOOTH",
"349 70 OFFCURVE",
"350 79 OFFCURVE",
"353 92 CURVE SMOOTH",
"355 102 LINE",
"350 102 LINE",
"314 23 OFFCURVE",
"267 -12 OFFCURVE",
"195 -12 CURVE SMOOTH",
"107 -12 OFFCURVE",
"63 42 OFFCURVE",
"63 131 CURVE SMOOTH",
"63 150 OFFCURVE",
"65 173 OFFCURVE",
"70 198 CURVE SMOOTH",
"134 516 LINE"
);
}
);
width = 562;
}
);
leftKerningGroup = u;
rightKerningGroup = a;
unicode = 0075;
},
{
glyphname = v;
layers = (
{
layerId = "92E619D5-181B-4123-A4FF-2530258B7CD2";
name = "Regular Italic";
paths = (
{
closed = 1;
nodes = (
"146 0 LINE",
"67 516 LINE",
"142 516 LINE",
"180 261 LINE",
"201 73 LINE",
"206 73 LINE",
"299 261 LINE",
"437 516 LINE",
"519 516 LINE",
"237 0 LINE"
);
}
);
width = 484;
}
);
leftKerningGroup = v;
rightKerningGroup = v;
unicode = 0076;
},
{
glyphname = w;
layers = (
{
layerId = "92E619D5-181B-4123-A4FF-2530258B7CD2";
name = "Regular Italic";
paths = (
{
closed = 1;
nodes = (
"77 516 LINE",
"151 516 LINE",
"160 265 LINE",
"166 74 LINE",
"171 74 LINE",
"250 243 LINE",
"378 516 LINE",
"453 516 LINE",
"475 256 LINE",
"487 78 LINE",
"492 78 LINE",
"568 252 LINE",
"685 516 LINE",
"760 516 LINE",
"525 0 LINE",
"432 0 LINE",
"407 279 LINE",
"400 411 LINE",
"395 411 LINE",
"336 279 LINE",
"203 0 LINE",
"105 0 LINE"
);
}
);
width = 740;
}
);
leftKerningGroup = w;
rightKerningGroup = w;
unicode = 0077;
},
{
glyphname = x;
layers = (
{
layerId = "92E619D5-181B-4123-A4FF-2530258B7CD2";
name = "Regular Italic";
paths = (
{
closed = 1;
nodes = (
"-28 0 LINE",
"206 267 LINE",
"80 516 LINE",
"164 516 LINE",
"257 318 LINE",
"262 318 LINE",
"430 516 LINE",
"518 516 LINE",
"294 260 LINE",
"430 0 LINE",
"346 0 LINE",
"243 210 LINE",
"238 210 LINE",
"60 0 LINE"
);
}
);
width = 494;
}
);
leftKerningGroup = x;
rightKerningGroup = x;
unicode = 0078;
},
{
glyphname = y;
layers = (
{
layerId = "92E619D5-181B-4123-A4FF-2530258B7CD2";
name = "Regular Italic";
paths = (
{
closed = 1;
nodes = (
"438 516 LINE",
"520 516 LINE",
"171 -117 LINE SMOOTH",
"138 -177 OFFCURVE",
"112 -200 OFFCURVE",
"60 -200 CURVE SMOOTH",
"-20 -200 LINE",
"-7 -134 LINE",
"86 -134 LINE",
"150 -16 LINE",
"68 516 LINE",
"143 516 LINE",
"181 261 LINE",
"202 73 LINE",
"207 73 LINE",
"300 261 LINE"
);
}
);
width = 484;
}
);
leftKerningGroup = y;
rightKerningGroup = y;
unicode = 0079;
},
{
glyphname = z;
layers = (
{
layerId = "92E619D5-181B-4123-A4FF-2530258B7CD2";
name = "Regular Italic";
paths = (
{
closed = 1;
nodes = (
"-5 0 LINE",
"8 66 LINE",
"351 448 LINE",
"85 448 LINE",
"98 516 LINE",
"457 516 LINE",
"444 450 LINE",
"101 68 LINE",
"381 68 LINE",
"368 0 LINE"
);
}
);
width = 448;
}
);
leftKerningGroup = z;
rightKerningGroup = z;
unicode = 007A;
},
{
glyphname = A;
layers = (
{
layerId = "92E619D5-181B-4123-A4FF-2530258B7CD2";
name = "Regular Italic";
paths = (
{
closed = 1;
nodes = (
"464 0 LINE",
"438 206 LINE",
"167 206 LINE",
"59 0 LINE",
"-27 0 LINE",
"346 698 LINE",
"453 698 LINE",
"547 0 LINE"
);
},
{
closed = 1;
nodes = (
"387 621 LINE",
"382 621 LINE",
"204 278 LINE",
"430 278 LINE"
);
}
);
width = 623;
}
);
leftKerningGroup = A;
rightKerningGroup = A;
unicode = 0041;
},
{
glyphname = B;
layers = (
{
layerId = "92E619D5-181B-4123-A4FF-2530258B7CD2";
name = "Regular Italic";
paths = (
{
closed = 1;
nodes = (
"179 698 LINE",
"436 698 LINE SMOOTH",
"544 698 OFFCURVE",
"603 641 OFFCURVE",
"603 549 CURVE SMOOTH",
"603 506 OFFCURVE",
"590 466 OFFCURVE",
"566 434 CURVE SMOOTH",
"542 402 OFFCURVE",
"506 378 OFFCURVE",
"461 367 CURVE",
"460 362 LINE",
"524 347 OFFCURVE",
"561 310 OFFCURVE",
"561 238 CURVE SMOOTH",
"561 173 OFFCURVE",
"536 114 OFFCURVE",
"496 71 CURVE SMOOTH",
"455 27 OFFCURVE",
"398 0 OFFCURVE",
"333 0 CURVE SMOOTH",
"39 0 LINE"
);
},
{
closed = 1;
nodes = (
"332 72 LINE SMOOTH",
"401 72 OFFCURVE",
"452 108 OFFCURVE",
"467 184 CURVE SMOOTH",
"470 201 OFFCURVE",
"473 214 OFFCURVE",
"474 223 CURVE SMOOTH",
"475 231 OFFCURVE",
"476 237 OFFCURVE",
"476 242 CURVE SMOOTH",
"476 294 OFFCURVE",
"441 324 OFFCURVE",
"374 324 CURVE SMOOTH",
"184 324 LINE",
"134 72 LINE"
);
},
{
closed = 1;
nodes = (
"367 394 LINE SMOOTH",
"442 394 OFFCURVE",
"492 423 OFFCURVE",
"507 494 CURVE SMOOTH",
"510 509 OFFCURVE",
"512 521 OFFCURVE",
"513 530 CURVE SMOOTH",
"514 538 OFFCURVE",
"514 544 OFFCURVE",
"514 549 CURVE SMOOTH",
"514 597 OFFCURVE",
"485 626 OFFCURVE",
"425 626 CURVE SMOOTH",
"244 626 LINE",
"198 394 LINE"
);
}
);
width = 627;
}
);
unicode = 0042;
},
{
glyphname = C;
layers = (
{
layerId = "92E619D5-181B-4123-A4FF-2530258B7CD2";
name = "Regular Italic";
paths = (
{
closed = 1;
nodes = (
"222 -12 OFFCURVE",
"164 12 OFFCURVE",
"122 60 CURVE SMOOTH",
"80 107 OFFCURVE",
"55 175 OFFCURVE",
"55 266 CURVE SMOOTH",
"55 387 OFFCURVE",
"88 498 OFFCURVE",
"147 579 CURVE SMOOTH",
"206 659 OFFCURVE",
"290 710 OFFCURVE",
"391 710 CURVE SMOOTH",
"504 710 OFFCURVE",
"580 659 OFFCURVE",
"615 551 CURVE",
"542 518 LINE",
"517 597 OFFCURVE",
"471 637 OFFCURVE",
"383 637 CURVE SMOOTH",
"330 637 OFFCURVE",
"282 616 OFFCURVE",
"244 580 CURVE SMOOTH",
"206 543 OFFCURVE",
"177 491 OFFCURVE",
"165 427 CURVE SMOOTH",
"142 312 LINE SMOOTH",
"137 287 OFFCURVE",
"136 266 OFFCURVE",
"136 246 CURVE SMOOTH",
"136 191 OFFCURVE",
"151 145 OFFCURVE",
"178 113 CURVE SMOOTH",
"205 80 OFFCURVE",
"244 61 OFFCURVE",
"295 61 CURVE SMOOTH",
"343 61 OFFCURVE",
"381 74 OFFCURVE",
"411 96 CURVE SMOOTH",
"441 118 OFFCURVE",
"464 151 OFFCURVE",
"487 191 CURVE",
"555 157 LINE",
"494 41 OFFCURVE",
"414 -12 OFFCURVE",
"290 -12 CURVE SMOOTH"
);
}
);
width = 602;
}
);
leftKerningGroup = C;
rightKerningGroup = C;
unicode = 0043;
},
{
glyphname = D;
layers = (
{
layerId = "92E619D5-181B-4123-A4FF-2530258B7CD2";
name = "Regular Italic";
paths = (
{
closed = 1;
nodes = (
"179 698 LINE",
"384 698 LINE SMOOTH",
"533 698 OFFCURVE",
"623 607 OFFCURVE",
"623 427 CURVE SMOOTH",
"623 319 OFFCURVE",
"592 212 OFFCURVE",
"533 133 CURVE SMOOTH",
"473 53 OFFCURVE",
"386 0 OFFCURVE",
"275 0 CURVE SMOOTH",
"39 0 LINE"
);
},
{
closed = 1;
nodes = (
"277 72 LINE SMOOTH",
"397 72 OFFCURVE",
"484 148 OFFCURVE",
"512 289 CURVE SMOOTH",
"533 394 LINE SMOOTH",
"537 414 OFFCURVE",
"539 434 OFFCURVE",
"539 455 CURVE SMOOTH",
"539 567 OFFCURVE",
"477 626 OFFCURVE",
"380 626 CURVE SMOOTH",
"245 626 LINE",
"135 72 LINE"
);
}
);
width = 652;
}
);
rightKerningGroup = D;
unicode = 0044;
},
{
glyphname = E;
layers = (
{
layerId = "92E619D5-181B-4123-A4FF-2530258B7CD2";
name = "Regular Italic";
paths = (
{
closed = 1;
nodes = (
"39 0 LINE",
"179 698 LINE",
"590 698 LINE",
"575 626 LINE",
"246 626 LINE",
"199 390 LINE",
"495 390 LINE",
"481 318 LINE",
"184 318 LINE",
"135 72 LINE",
"481 72 LINE",
"467 0 LINE"
);
}
);
width = 565;
}
);
rightKerningGroup = E;
unicode = 0045;
},
{
glyphname = F;
layers = (
{
layerId = "92E619D5-181B-4123-A4FF-2530258B7CD2";
name = "Regular Italic";
paths = (
{
closed = 1;
nodes = (
"39 0 LINE",
"179 698 LINE",
"579 698 LINE",
"564 626 LINE",
"246 626 LINE",
"199 390 LINE",
"491 390 LINE",
"477 318 LINE",
"184 318 LINE",
"120 0 LINE"
);
}
);
width = 542;
}
);
rightKerningGroup = F;
unicode = 0046;
},
{
glyphname = G;
layers = (
{
layerId = "92E619D5-181B-4123-A4FF-2530258B7CD2";
name = "Regular Italic";
paths = (
{
closed = 1;
nodes = (
"483 102 LINE",
"479 102 LINE",
"464 71 OFFCURVE",
"440 42 OFFCURVE",
"407 22 CURVE SMOOTH",
"374 1 OFFCURVE",
"331 -12 OFFCURVE",
"280 -12 CURVE SMOOTH",
"213 -12 OFFCURVE",
"158 12 OFFCURVE",
"118 59 CURVE SMOOTH",
"78 106 OFFCURVE",
"55 175 OFFCURVE",
"55 266 CURVE SMOOTH",
"55 383 OFFCURVE",
"86 494 OFFCURVE",
"146 576 CURVE SMOOTH",
"205 658 OFFCURVE",
"292 710 OFFCURVE",
"404 710 CURVE SMOOTH",
"525 710 OFFCURVE",
"611 650 OFFCURVE",
"640 551 CURVE",
"567 518 LINE",
"540 594 OFFCURVE",
"487 637 OFFCURVE",
"394 637 CURVE SMOOTH",
"275 637 OFFCURVE",
"191 554 OFFCURVE",
"163 417 CURVE SMOOTH",
"142 313 LINE SMOOTH",
"138 293 OFFCURVE",
"136 273 OFFCURVE",
"136 253 CURVE SMOOTH",
"136 132 OFFCURVE",
"196 61 OFFCURVE",
"304 61 CURVE SMOOTH",
"352 61 OFFCURVE",
"396 76 OFFCURVE",
"432 104 CURVE SMOOTH",
"468 132 OFFCURVE",
"495 175 OFFCURVE",
"506 231 CURVE SMOOTH",
"517 286 LINE",
"368 286 LINE",
"384 360 LINE",
"611 360 LINE",
"539 0 LINE",
"462 0 LINE"
);
}
);
width = 661;
}
);
leftKerningGroup = C;
rightKerningGroup = G;
unicode = 0047;
},
{
glyphname = H;
layers = (
{
layerId = "92E619D5-181B-4123-A4FF-2530258B7CD2";
name = "Regular Italic";
paths = (
{
closed = 1;
nodes = (
"523 318 LINE",
"184 318 LINE",
"120 0 LINE",
"39 0 LINE",
"179 698 LINE",
"260 698 LINE",
"199 390 LINE",
"538 390 LINE",
"600 698 LINE",
"681 698 LINE",
"541 0 LINE",
"460 0 LINE"
);
}
);
width = 684;
}
);
unicode = 0048;
},
{
glyphname = I;
lastChange = "2018-11-04 04:49:04 +0000";
layers = (
{
layerId = "92E619D5-181B-4123-A4FF-2530258B7CD2";
name = "Regular Italic";
paths = (
{
closed = 1;
nodes = (
"39 0 LINE",
"120 0 LINE",
"258 698 LINE",
"177 698 LINE"
);
}
);
width = 261;
}
);
leftKerningGroup = I;
rightKerningGroup = I;
unicode = 0049;
},
{
glyphname = J;
lastChange = "2018-11-03 04:14:42 +0000";
layers = (
{
layerId = "92E619D5-181B-4123-A4FF-2530258B7CD2";
name = "Regular Italic";
paths = (
{
closed = 1;
nodes = (
"313 198 LINE SMOOTH",
"294 107 OFFCURVE",
"252 61 OFFCURVE",
"175 61 CURVE SMOOTH",
"111 61 OFFCURVE",
"80 107 OFFCURVE",
"77 168 CURVE",
"3 153 LINE",
"6 46 OFFCURVE",
"75 -12 OFFCURVE",
"171 -12 CURVE SMOOTH",
"290 -12 OFFCURVE",
"367 61 OFFCURVE",
"392 186 CURVE SMOOTH",
"495 698 LINE",
"413 698 LINE"
);
}
);
width = 498;
}
);
leftKerningGroup = J;
rightKerningGroup = J;
unicode = 004A;
},
{
glyphname = K;
layers = (
{
layerId = "92E619D5-181B-4123-A4FF-2530258B7CD2";
name = "Regular Italic";
paths = (
{
closed = 1;
nodes = (
"290 343 LINE",
"165 226 LINE",
"120 0 LINE",
"39 0 LINE",
"179 698 LINE",
"260 698 LINE",
"189 342 LINE",
"194 342 LINE",
"313 457 LINE",
"562 698 LINE",
"665 698 LINE",
"352 395 LINE",
"549 0 LINE",
"461 0 LINE"
);
}
);
width = 615;
}
);
rightKerningGroup = K;
unicode = 004B;
},
{
glyphname = L;
layers = (
{
layerId = "92E619D5-181B-4123-A4FF-2530258B7CD2";
name = "Regular Italic";
paths = (
{
closed = 1;
nodes = (
"39 0 LINE",
"179 698 LINE",
"260 698 LINE",
"135 72 LINE",
"422 72 LINE",
"408 0 LINE"
);
}
);
width = 489;
}
);
rightKerningGroup = L;
unicode = 004C;
},
{
glyphname = M;
layers = (
{
layerId = "92E619D5-181B-4123-A4FF-2530258B7CD2";
name = "Regular Italic";
paths = (
{
closed = 1;
nodes = (
"680 586 LINE",
"675 586 LINE",
"594 469 LINE",
"377 166 LINE",
"278 469 LINE",
"241 585 LINE",
"236 585 LINE",
"119 0 LINE",
"39 0 LINE",
"179 698 LINE",
"284 698 LINE",
"402 319 LINE",
"405 319 LINE",
"668 698 LINE",
"781 698 LINE",
"641 0 LINE",
"561 0 LINE"
);
}
);
width = 784;
}
);
unicode = 004D;
},
{
glyphname = N;
layers = (
{
layerId = "92E619D5-181B-4123-A4FF-2530258B7CD2";
name = "Regular Italic";
paths = (
{
closed = 1;
nodes = (
"295 420 LINE",
"240 587 LINE",
"235 587 LINE",
"118 0 LINE",
"39 0 LINE",
"179 698 LINE",
"273 698 LINE",
"425 278 LINE",
"480 111 LINE",
"485 111 LINE",
"602 698 LINE",
"681 698 LINE",
"541 0 LINE",
"447 0 LINE"
);
}
);
width = 684;
}
);
unicode = 004E;
},
{
glyphname = O;
layers = (
{
layerId = "92E619D5-181B-4123-A4FF-2530258B7CD2";
name = "Regular Italic";
paths = (
{
closed = 1;
nodes = (
"229 -12 OFFCURVE",
"168 12 OFFCURVE",
"125 58 CURVE SMOOTH",
"81 104 OFFCURVE",
"55 172 OFFCURVE",
"55 260 CURVE SMOOTH",
"55 376 OFFCURVE",
"88 488 OFFCURVE",
"149 572 CURVE SMOOTH",
"210 655 OFFCURVE",
"298 710 OFFCURVE",
"409 710 CURVE SMOOTH",
"478 710 OFFCURVE",
"539 686 OFFCURVE",
"583 640 CURVE SMOOTH",
"626 594 OFFCURVE",
"652 526 OFFCURVE",
"652 438 CURVE SMOOTH",
"652 322 OFFCURVE",
"619 210 OFFCURVE",
"558 127 CURVE SMOOTH",
"497 43 OFFCURVE",
"409 -12 OFFCURVE",
"298 -12 CURVE SMOOTH"
);
},
{
closed = 1;
nodes = (
"430 61 OFFCURVE",
"516 148 OFFCURVE",
"545 293 CURVE SMOOTH",
"565 393 LINE SMOOTH",
"570 418 OFFCURVE",
"572 442 OFFCURVE",
"572 462 CURVE SMOOTH",
"572 569 OFFCURVE",
"509 637 OFFCURVE",
"401 637 CURVE SMOOTH",
"277 637 OFFCURVE",
"191 550 OFFCURVE",
"162 405 CURVE SMOOTH",
"142 305 LINE SMOOTH",
"137 280 OFFCURVE",
"135 256 OFFCURVE",
"135 236 CURVE SMOOTH",
"135 129 OFFCURVE",
"198 61 OFFCURVE",
"306 61 CURVE SMOOTH"
);
}
);
width = 679;
}
);
leftKerningGroup = C;
rightKerningGroup = O;
unicode = 004F;
},
{
glyphname = P;
layers = (
{
layerId = "92E619D5-181B-4123-A4FF-2530258B7CD2";
name = "Regular Italic";
paths = (
{
closed = 1;
nodes = (
"39 0 LINE",
"179 698 LINE",
"428 698 LINE SMOOTH",
"489 698 OFFCURVE",
"533 681 OFFCURVE",
"561 651 CURVE SMOOTH",
"589 621 OFFCURVE",
"601 579 OFFCURVE",
"601 531 CURVE SMOOTH",
"601 466 OFFCURVE",
"578 408 OFFCURVE",
"538 366 CURVE SMOOTH",
"498 324 OFFCURVE",
"439 298 OFFCURVE",
"367 298 CURVE SMOOTH",
"180 298 LINE",
"120 0 LINE"
);
},
{
closed = 1;
nodes = (
"195 370 LINE",
"379 370 LINE SMOOTH",
"446 370 OFFCURVE",
"492 404 OFFCURVE",
"505 471 CURVE SMOOTH",
"510 494 OFFCURVE",
"513 510 OFFCURVE",
"515 519 CURVE",
"516 528 OFFCURVE",
"517 537 OFFCURVE",
"517 545 CURVE SMOOTH",
"517 594 OFFCURVE",
"493 626 OFFCURVE",
"422 626 CURVE SMOOTH",
"245 626 LINE"
);
}
);
width = 588;
}
);
rightKerningGroup = P;
unicode = 0050;
},
{
glyphname = Q;
layers = (
{
layerId = "92E619D5-181B-4123-A4FF-2530258B7CD2";
name = "Regular Italic";
paths = (
{
closed = 1;
nodes = (
"397 -166 LINE",
"309 -166 LINE SMOOTH",
"254 -166 OFFCURVE",
"234 -140 OFFCURVE",
"234 -104 CURVE SMOOTH",
"234 -96 OFFCURVE",
"235 -87 OFFCURVE",
"237 -78 CURVE SMOOTH",
"252 -8 LINE",
"193 1 OFFCURVE",
"145 30 OFFCURVE",
"110 75 CURVE SMOOTH",
"75 119 OFFCURVE",
"55 181 OFFCURVE",
"55 260 CURVE SMOOTH",
"55 376 OFFCURVE",
"88 488 OFFCURVE",
"149 572 CURVE SMOOTH",
"210 655 OFFCURVE",
"298 710 OFFCURVE",
"409 710 CURVE SMOOTH",
"478 710 OFFCURVE",
"539 686 OFFCURVE",
"583 640 CURVE SMOOTH",
"626 594 OFFCURVE",
"652 526 OFFCURVE",
"652 438 CURVE SMOOTH",
"652 327 OFFCURVE",
"622 221 OFFCURVE",
"567 139 CURVE SMOOTH",
"511 57 OFFCURVE",
"430 -1 OFFCURVE",
"329 -10 CURVE",
"311 -92 LINE",
"413 -92 LINE"
);
},
{
closed = 1;
nodes = (
"430 61 OFFCURVE",
"516 148 OFFCURVE",
"545 293 CURVE SMOOTH",
"565 393 LINE SMOOTH",
"570 418 OFFCURVE",
"572 442 OFFCURVE",
"572 462 CURVE SMOOTH",
"572 567 OFFCURVE",
"509 637 OFFCURVE",
"401 637 CURVE SMOOTH",
"277 637 OFFCURVE",
"191 550 OFFCURVE",
"162 405 CURVE SMOOTH",
"142 305 LINE SMOOTH",
"137 280 OFFCURVE",
"135 256 OFFCURVE",
"135 236 CURVE SMOOTH",
"135 131 OFFCURVE",
"198 61 OFFCURVE",
"306 61 CURVE SMOOTH"
);
}
);
width = 679;
}
);
leftKerningGroup = C;
rightKerningGroup = O;
unicode = 0051;
},
{
glyphname = R;
layers = (
{
layerId = "92E619D5-181B-4123-A4FF-2530258B7CD2";
name = "Regular Italic";
paths = (
{
closed = 1;
nodes = (
"120 0 LINE",
"39 0 LINE",
"179 698 LINE",
"428 698 LINE SMOOTH",
"489 698 OFFCURVE",
"533 681 OFFCURVE",
"561 651 CURVE SMOOTH",
"589 621 OFFCURVE",
"601 579 OFFCURVE",
"601 531 CURVE SMOOTH",
"601 478 OFFCURVE",
"583 427 OFFCURVE",
"552 388 CURVE SMOOTH",
"520 348 OFFCURVE",
"474 319 OFFCURVE",
"418 308 CURVE",
"520 0 LINE",
"433 0 LINE",
"338 300 LINE",
"180 300 LINE"
);
},
{
closed = 1;
nodes = (
"379 371 LINE SMOOTH",
"446 371 OFFCURVE",
"492 406 OFFCURVE",
"505 471 CURVE SMOOTH",
"510 494 OFFCURVE",
"513 510 OFFCURVE",
"515 519 CURVE",
"516 528 OFFCURVE",
"517 537 OFFCURVE",
"517 545 CURVE SMOOTH",
"517 593 OFFCURVE",
"493 626 OFFCURVE",
"422 626 CURVE SMOOTH",
"245 626 LINE",
"195 371 LINE"
);
}
);
width = 625;
}
);
rightKerningGroup = R;
unicode = 0052;
},
{
glyphname = S;
layers = (
{
layerId = "92E619D5-181B-4123-A4FF-2530258B7CD2";
name = "Regular Italic";
paths = (
{
closed = 1;
nodes = (
"146 -12 OFFCURVE",
"55 26 OFFCURVE",
"11 113 CURVE",
"73 158 LINE",
"114 87 OFFCURVE",
"175 61 OFFCURVE",
"251 61 CURVE SMOOTH",
"310 61 OFFCURVE",
"356 77 OFFCURVE",
"386 105 CURVE SMOOTH",
"416 132 OFFCURVE",
"431 169 OFFCURVE",
"431 210 CURVE SMOOTH",
"431 270 OFFCURVE",
"400 305 OFFCURVE",
"325 320 CURVE SMOOTH",
"258 333 LINE SMOOTH",
"159 352 OFFCURVE",
"105 413 OFFCURVE",
"105 504 CURVE SMOOTH",
"105 560 OFFCURVE",
"127 612 OFFCURVE",
"168 649 CURVE SMOOTH",
"208 686 OFFCURVE",
"269 710 OFFCURVE",
"346 710 CURVE SMOOTH",
"454 710 OFFCURVE",
"524 666 OFFCURVE",
"571 602 CURVE",
"512 553 LINE",
"473 605 OFFCURVE",
"421 637 OFFCURVE",
"341 637 CURVE SMOOTH",
"246 637 OFFCURVE",
"186 591 OFFCURVE",
"186 510 CURVE SMOOTH",
"186 451 OFFCURVE",
"221 415 OFFCURVE",
"292 401 CURVE SMOOTH",
"359 388 LINE SMOOTH",
"458 369 OFFCURVE",
"512 310 OFFCURVE",
"512 214 CURVE SMOOTH",
"512 151 OFFCURVE",
"488 95 OFFCURVE",
"444 54 CURVE SMOOTH",
"399 13 OFFCURVE",
"333 -12 OFFCURVE",
"249 -12 CURVE SMOOTH"
);
}
);
width = 577;
}
);
leftKerningGroup = S;
rightKerningGroup = S;
unicode = 0053;
},
{
glyphname = T;
layers = (
{
layerId = "92E619D5-181B-4123-A4FF-2530258B7CD2";
name = "Regular Italic";
paths = (
{
closed = 1;
nodes = (
"392 626 LINE",
"267 0 LINE",
"186 0 LINE",
"311 626 LINE",
"98 626 LINE",
"112 698 LINE",
"619 698 LINE",
"605 626 LINE"
);
}
);
width = 557;
}
);
leftKerningGroup = T;
rightKerningGroup = T;
unicode = 0054;
},
{
glyphname = U;
layers = (
{
layerId = "92E619D5-181B-4123-A4FF-2530258B7CD2";
name = "Regular Italic";
paths = (
{
closed = 1;
nodes = (
"255 698 LINE",
"169 269 LINE SMOOTH",
"162 238 OFFCURVE",
"161 220 OFFCURVE",
"161 197 CURVE SMOOTH",
"161 112 OFFCURVE",
"209 61 OFFCURVE",
"289 61 CURVE SMOOTH",
"345 61 OFFCURVE",
"388 76 OFFCURVE",
"421 112 CURVE SMOOTH",
"454 147 OFFCURVE",
"477 203 OFFCURVE",
"493 284 CURVE SMOOTH",
"576 698 LINE",
"657 698 LINE",
"573 278 LINE SMOOTH",
"552 171 OFFCURVE",
"520 99 OFFCURVE",
"473 53 CURVE SMOOTH",
"425 7 OFFCURVE",
"363 -12 OFFCURVE",
"280 -12 CURVE SMOOTH",
"155 -12 OFFCURVE",
"82 61 OFFCURVE",
"82 189 CURVE SMOOTH",
"82 220 OFFCURVE",
"85 254 OFFCURVE",
"93 294 CURVE SMOOTH",
"174 698 LINE"
);
}
);
width = 656;
}
);
leftKerningGroup = U;
rightKerningGroup = U;
unicode = 0055;
},
{
glyphname = V;
layers = (
{
layerId = "92E619D5-181B-4123-A4FF-2530258B7CD2";
name = "Regular Italic";
paths = (
{
closed = 1;
nodes = (
"194 0 LINE",
"111 698 LINE",
"192 698 LINE",
"230 348 LINE",
"257 84 LINE",
"260 84 LINE",
"393 348 LINE",
"575 698 LINE",
"661 698 LINE",
"295 0 LINE"
);
}
);
width = 593;
}
);
leftKerningGroup = V;
rightKerningGroup = V;
unicode = 0056;
},
{
glyphname = W;
layers = (
{
layerId = "92E619D5-181B-4123-A4FF-2530258B7CD2";
name = "Regular Italic";
paths = (
{
closed = 1;
nodes = (
"132 0 LINE",
"103 698 LINE",
"184 698 LINE",
"193 344 LINE",
"199 101 LINE",
"203 101 LINE",
"340 416 LINE",
"466 698 LINE",
"562 698 LINE",
"577 403 LINE",
"591 102 LINE",
"595 102 LINE",
"701 349 LINE",
"851 698 LINE",
"935 698 LINE",
"622 0 LINE",
"529 0 LINE",
"511 367 LINE",
"501 606 LINE",
"496 606 LINE",
"387 362 LINE",
"226 0 LINE"
);
}
);
width = 862;
}
);
leftKerningGroup = W;
rightKerningGroup = W;
unicode = 0057;
},
{
glyphname = X;
layers = (
{
layerId = "92E619D5-181B-4123-A4FF-2530258B7CD2";
name = "Regular Italic";
paths = (
{
closed = 1;
nodes = (
"508 0 LINE",
"423 0 LINE",
"303 286 LINE",
"299 286 LINE",
"69 0 LINE",
"-25 0 LINE",
"263 358 LINE",
"120 698 LINE",
"205 698 LINE",
"324 411 LINE",
"328 411 LINE",
"559 698 LINE",
"653 698 LINE",
"360 343 LINE"
);
}
);
width = 596;
}
);
leftKerningGroup = X;
rightKerningGroup = X;
unicode = 0058;
},
{
glyphname = Y;
layers = (
{
layerId = "92E619D5-181B-4123-A4FF-2530258B7CD2";
name = "Regular Italic";
paths = (
{
closed = 1;
nodes = (
"196 0 LINE",
"251 273 LINE",
"105 698 LINE",
"187 698 LINE",
"303 357 LINE",
"308 357 LINE",
"558 698 LINE",
"651 698 LINE",
"332 273 LINE",
"277 0 LINE"
);
}
);
width = 577;
}
);
leftKerningGroup = Y;
rightKerningGroup = Y;
unicode = 0059;
},
{
glyphname = Z;
layers = (
{
layerId = "92E619D5-181B-4123-A4FF-2530258B7CD2";
name = "Regular Italic";
paths = (
{
closed = 1;
nodes = (
"472 0 LINE",
"-15 0 LINE",
"1 78 LINE",
"493 626 LINE",
"119 626 LINE",
"134 698 LINE",
"603 698 LINE",
"587 620 LINE",
"95 72 LINE",
"487 72 LINE"
);
}
);
width = 563;
}
);
leftKerningGroup = Z;
rightKerningGroup = Z;
unicode = 005A;
},
{
glyphname = zero;
layers = (
{
layerId = "92E619D5-181B-4123-A4FF-2530258B7CD2";
name = "Regular Italic";
paths = (
{
closed = 1;
nodes = (
"192 -12 OFFCURVE",
"145 13 OFFCURVE",
"114 55 CURVE SMOOTH",
"83 97 OFFCURVE",
"68 156 OFFCURVE",
"68 228 CURVE SMOOTH",
"68 299 OFFCURVE",
"79 377 OFFCURVE",
"101 449 CURVE SMOOTH",
"123 520 OFFCURVE",
"156 585 OFFCURVE",
"201 633 CURVE SMOOTH",
"246 680 OFFCURVE",
"303 710 OFFCURVE",
"374 710 CURVE SMOOTH",
"437 710 OFFCURVE",
"483 686 OFFCURVE",
"515 644 CURVE SMOOTH",
"546 602 OFFCURVE",
"561 542 OFFCURVE",
"561 470 CURVE SMOOTH",
"561 399 OFFCURVE",
"551 321 OFFCURVE",
"529 250 CURVE SMOOTH",
"507 178 OFFCURVE",
"473 113 OFFCURVE",
"428 66 CURVE SMOOTH",
"383 18 OFFCURVE",
"324 -12 OFFCURVE",
"255 -12 CURVE SMOOTH"
);
},
{
closed = 1;
nodes = (
"313 59 OFFCURVE",
"353 83 OFFCURVE",
"384 123 CURVE SMOOTH",
"415 163 OFFCURVE",
"437 221 OFFCURVE",
"450 289 CURVE SMOOTH",
"471 394 LINE SMOOTH",
"478 425 OFFCURVE",
"480 456 OFFCURVE",
"480 484 CURVE SMOOTH",
"480 580 OFFCURVE",
"441 639 OFFCURVE",
"364 639 CURVE SMOOTH",
"316 639 OFFCURVE",
"276 615 OFFCURVE",
"245 575 CURVE SMOOTH",
"214 535 OFFCURVE",
"192 477 OFFCURVE",
"179 409 CURVE SMOOTH",
"158 304 LINE SMOOTH",
"151 273 OFFCURVE",
"149 242 OFFCURVE",
"149 214 CURVE SMOOTH",
"149 118 OFFCURVE",
"188 59 OFFCURVE",
"265 59 CURVE SMOOTH"
);
}
);
width = 600;
}
);
unicode = 0030;
},
{
glyphname = one;
lastChange = "2018-11-05 12:58:32 +0000";
layers = (
{
layerId = "92E619D5-181B-4123-A4FF-2530258B7CD2";
name = "Regular Italic";
paths = (
{
closed = 1;
nodes = (
"149 610 LINE",
"132 523 LINE",
"300 615 LINE",
"177 0 LINE",
"258 0 LINE",
"397 698 LINE",
"305 698 LINE"
);
}
);
width = 450;
}
);
unicode = 0031;
},
{
glyphname = two;
layers = (
{
layerId = "92E619D5-181B-4123-A4FF-2530258B7CD2";
name = "Regular Italic";
paths = (
{
closed = 1;
nodes = (
"470 0 LINE",
"34 0 LINE",
"52 90 LINE",
"310 298 LINE SMOOTH",
"397 367 OFFCURVE",
"441 436 OFFCURVE",
"452 487 CURVE",
"455 498 OFFCURVE",
"458 520 OFFCURVE",
"458 535 CURVE SMOOTH",
"458 555 OFFCURVE",
"453 581 OFFCURVE",
"437 602 CURVE SMOOTH",
"421 622 OFFCURVE",
"395 637 OFFCURVE",
"355 637 CURVE SMOOTH",
"278 637 OFFCURVE",
"233 594 OFFCURVE",
"200 515 CURVE",
"128 546 LINE",
"175 646 OFFCURVE",
"244 710 OFFCURVE",
"363 710 CURVE SMOOTH",
"420 710 OFFCURVE",
"466 691 OFFCURVE",
"498 660 CURVE SMOOTH",
"530 628 OFFCURVE",
"548 584 OFFCURVE",
"548 536 CURVE SMOOTH",
"548 477 OFFCURVE",
"529 427 OFFCURVE",
"495 380 CURVE SMOOTH",
"461 332 OFFCURVE",
"411 288 OFFCURVE",
"352 241 CURVE SMOOTH",
"136 72 LINE",
"485 72 LINE"
);
}
);
width = 600;
}
);
unicode = 0032;
},
{
glyphname = three;
layers = (
{
layerId = "92E619D5-181B-4123-A4FF-2530258B7CD2";
name = "Regular Italic";
paths = (
{
closed = 1;
nodes = (
"302 401 LINE SMOOTH",
"379 401 OFFCURVE",
"429 433 OFFCURVE",
"446 521 CURVE SMOOTH",
"448 531 OFFCURVE",
"449 540 OFFCURVE",
"449 547 CURVE SMOOTH",
"449 607 OFFCURVE",
"412 637 OFFCURVE",
"347 637 CURVE SMOOTH",
"280 637 OFFCURVE",
"234 613 OFFCURVE",
"195 550 CURVE",
"139 599 LINE",
"184 663 OFFCURVE",
"252 710 OFFCURVE",
"357 710 CURVE SMOOTH",
"410 710 OFFCURVE",
"455 694 OFFCURVE",
"487 667 CURVE SMOOTH",
"519 639 OFFCURVE",
"538 599 OFFCURVE",
"538 554 CURVE SMOOTH",
"538 503 OFFCURVE",
"520 462 OFFCURVE",
"492 430 CURVE SMOOTH",
"463 398 OFFCURVE",
"423 377 OFFCURVE",
"380 368 CURVE",
"379 363 LINE",
"446 352 OFFCURVE",
"495 300 OFFCURVE",
"495 219 CURVE SMOOTH",
"495 152 OFFCURVE",
"472 94 OFFCURVE",
"429 53 CURVE SMOOTH",
"385 12 OFFCURVE",
"323 -12 OFFCURVE",
"247 -12 CURVE SMOOTH",
"190 -12 OFFCURVE",
"145 2 OFFCURVE",
"110 26 CURVE SMOOTH",
"74 49 OFFCURVE",
"50 79 OFFCURVE",
"37 111 CURVE",
"103 156 LINE",
"115 128 OFFCURVE",
"130 104 OFFCURVE",
"154 88 CURVE",
"177 71 OFFCURVE",
"209 61 OFFCURVE",
"254 61 CURVE SMOOTH",
"349 61 OFFCURVE",
"390 106 OFFCURVE",
"407 191 CURVE",
"410 202 OFFCURVE",
"412 216 OFFCURVE",
"412 228 CURVE SMOOTH",
"412 288 OFFCURVE",
"371 330 OFFCURVE",
"290 330 CURVE SMOOTH",
"216 330 LINE",
"231 401 LINE"
);
}
);
width = 600;
}
);
unicode = 0033;
},
{
glyphname = four;
layers = (
{
layerId = "92E619D5-181B-4123-A4FF-2530258B7CD2";
name = "Regular Italic";
paths = (
{
closed = 1;
nodes = (
"320 0 LINE",
"348 137 LINE",
"32 137 LINE",
"47 216 LINE",
"422 698 LINE",
"539 698 LINE",
"441 205 LINE",
"536 205 LINE",
"523 137 LINE",
"427 137 LINE",
"399 0 LINE"
);
},
{
closed = 1;
nodes = (
"120 205 LINE",
"362 205 LINE",
"443 612 LINE",
"439 612 LINE"
);
}
);
width = 600;
}
);
unicode = 0034;
},
{
glyphname = five;
layers = (
{
layerId = "92E619D5-181B-4123-A4FF-2530258B7CD2";
name = "Regular Italic";
paths = (
{
closed = 1;
nodes = (
"557 626 LINE",
"265 626 LINE",
"197 351 LINE",
"204 351 LINE",
"239 410 OFFCURVE",
"276 436 OFFCURVE",
"349 436 CURVE SMOOTH",
"398 436 OFFCURVE",
"441 419 OFFCURVE",
"473 388 CURVE SMOOTH",
"504 357 OFFCURVE",
"522 313 OFFCURVE",
"522 257 CURVE SMOOTH",
"522 181 OFFCURVE",
"497 114 OFFCURVE",
"453 66 CURVE SMOOTH",
"408 18 OFFCURVE",
"343 -12 OFFCURVE",
"263 -12 CURVE SMOOTH",
"206 -12 OFFCURVE",
"161 2 OFFCURVE",
"127 26 CURVE SMOOTH",
"93 49 OFFCURVE",
"69 79 OFFCURVE",
"56 111 CURVE",
"122 156 LINE",
"134 128 OFFCURVE",
"149 104 OFFCURVE",
"173 88 CURVE",
"196 71 OFFCURVE",
"228 61 OFFCURVE",
"273 61 CURVE SMOOTH",
"359 61 OFFCURVE",
"412 110 OFFCURVE",
"432 208 CURVE SMOOTH",
"435 223 OFFCURVE",
"438 237 OFFCURVE",
"438 256 CURVE SMOOTH",
"438 323 OFFCURVE",
"403 365 OFFCURVE",
"322 365 CURVE SMOOTH",
"265 365 OFFCURVE",
"222 336 OFFCURVE",
"185 296 CURVE",
"117 307 LINE",
"213 698 LINE",
"572 698 LINE"
);
}
);
width = 600;
}
);
unicode = 0035;
},
{
glyphname = six;
layers = (
{
layerId = "92E619D5-181B-4123-A4FF-2530258B7CD2";
name = "Regular Italic";
paths = (
{
closed = 1;
nodes = (
"140 -12 OFFCURVE",
"70 65 OFFCURVE",
"70 202 CURVE SMOOTH",
"70 301 OFFCURVE",
"110 401 OFFCURVE",
"171 489 CURVE SMOOTH",
"231 577 OFFCURVE",
"313 651 OFFCURVE",
"398 698 CURVE",
"512 698 LINE",
"428 646 OFFCURVE",
"354 589 OFFCURVE",
"295 529 CURVE SMOOTH",
"236 468 OFFCURVE",
"194 404 OFFCURVE",
"174 337 CURVE",
"178 335 LINE",
"221 407 OFFCURVE",
"271 434 OFFCURVE",
"335 434 CURVE SMOOTH",
"390 434 OFFCURVE",
"435 416 OFFCURVE",
"467 384 CURVE SMOOTH",
"499 351 OFFCURVE",
"518 304 OFFCURVE",
"518 245 CURVE SMOOTH",
"518 170 OFFCURVE",
"492 106 OFFCURVE",
"448 61 CURVE SMOOTH",
"403 16 OFFCURVE",
"340 -12 OFFCURVE",
"268 -12 CURVE SMOOTH"
);
},
{
closed = 1;
nodes = (
"359 60 OFFCURVE",
"414 117 OFFCURVE",
"431 202 CURVE",
"434 213 OFFCURVE",
"435 226 OFFCURVE",
"435 238 CURVE SMOOTH",
"435 318 OFFCURVE",
"391 363 OFFCURVE",
"312 363 CURVE SMOOTH",
"224 363 OFFCURVE",
"169 306 OFFCURVE",
"152 221 CURVE",
"149 210 OFFCURVE",
"148 197 OFFCURVE",
"148 185 CURVE SMOOTH",
"148 105 OFFCURVE",
"192 60 OFFCURVE",
"271 60 CURVE SMOOTH"
);
}
);
width = 600;
}
);
unicode = 0036;
},
{
glyphname = seven;
lastChange = "2018-11-03 04:16:50 +0000";
layers = (
{
layerId = "92E619D5-181B-4123-A4FF-2530258B7CD2";
name = "Regular Italic";
paths = (
{
closed = 1;
nodes = (
"152 627 LINE",
"507 627 LINE",
"128 0 LINE",
"214 0 LINE",
"587 619 LINE",
"603 698 LINE",
"166 698 LINE"
);
}
);
width = 600;
}
);
unicode = 0037;
},
{
glyphname = eight;
layers = (
{
layerId = "92E619D5-181B-4123-A4FF-2530258B7CD2";
name = "Regular Italic";
paths = (
{
closed = 1;
nodes = (
"197 -12 OFFCURVE",
"145 7 OFFCURVE",
"109 39 CURVE SMOOTH",
"73 71 OFFCURVE",
"54 117 OFFCURVE",
"54 170 CURVE SMOOTH",
"54 215 OFFCURVE",
"70 261 OFFCURVE",
"99 297 CURVE SMOOTH",
"128 333 OFFCURVE",
"172 359 OFFCURVE",
"229 366 CURVE",
"231 374 LINE",
"168 397 OFFCURVE",
"140 442 OFFCURVE",
"140 505 CURVE SMOOTH",
"140 564 OFFCURVE",
"164 615 OFFCURVE",
"205 652 CURVE SMOOTH",
"245 688 OFFCURVE",
"304 710 OFFCURVE",
"372 710 CURVE SMOOTH",
"489 710 OFFCURVE",
"559 647 OFFCURVE",
"559 551 CURVE SMOOTH",
"559 512 OFFCURVE",
"546 472 OFFCURVE",
"521 439 CURVE SMOOTH",
"496 406 OFFCURVE",
"459 380 OFFCURVE",
"411 368 CURVE",
"409 360 LINE",
"477 345 OFFCURVE",
"517 289 OFFCURVE",
"517 222 CURVE SMOOTH",
"517 151 OFFCURVE",
"494 93 OFFCURVE",
"451 53 CURVE SMOOTH",
"407 12 OFFCURVE",
"344 -12 OFFCURVE",
"264 -12 CURVE SMOOTH"
);
},
{
closed = 1;
nodes = (
"356 59 OFFCURVE",
"414 104 OFFCURVE",
"430 184 CURVE SMOOTH",
"433 199 OFFCURVE",
"435 210 OFFCURVE",
"435 226 CURVE SMOOTH",
"435 290 OFFCURVE",
"388 332 OFFCURVE",
"303 332 CURVE SMOOTH",
"216 332 OFFCURVE",
"158 286 OFFCURVE",
"142 206 CURVE SMOOTH",
"139 191 OFFCURVE",
"137 180 OFFCURVE",
"137 164 CURVE SMOOTH",
"137 100 OFFCURVE",
"184 59 OFFCURVE",
"269 59 CURVE SMOOTH"
);
},
{
closed = 1;
nodes = (
"408 400 OFFCURVE",
"458 441 OFFCURVE",
"473 512 CURVE SMOOTH",
"475 522 OFFCURVE",
"476 532 OFFCURVE",
"476 542 CURVE SMOOTH",
"476 602 OFFCURVE",
"434 639 OFFCURVE",
"362 639 CURVE SMOOTH",
"286 639 OFFCURVE",
"236 598 OFFCURVE",
"221 527 CURVE SMOOTH",
"219 517 OFFCURVE",
"218 507 OFFCURVE",
"218 497 CURVE SMOOTH",
"218 437 OFFCURVE",
"260 400 OFFCURVE",
"332 400 CURVE SMOOTH"
);
}
);
width = 600;
}
);
unicode = 0038;
},
{
glyphname = nine;
layers = (
{
layerId = "92E619D5-181B-4123-A4FF-2530258B7CD2";
name = "Regular Italic";
paths = (
{
closed = 1;
nodes = (
"565 397 OFFCURVE",
"525 297 OFFCURVE",
"465 209 CURVE SMOOTH",
"404 121 OFFCURVE",
"322 47 OFFCURVE",
"237 0 CURVE",
"123 0 LINE",
"207 52 OFFCURVE",
"281 109 OFFCURVE",
"340 170 CURVE SMOOTH",
"399 230 OFFCURVE",
"441 294 OFFCURVE",
"461 361 CURVE",
"457 363 LINE",
"414 291 OFFCURVE",
"364 264 OFFCURVE",
"300 264 CURVE SMOOTH",
"245 264 OFFCURVE",
"200 282 OFFCURVE",
"168 315 CURVE SMOOTH",
"136 347 OFFCURVE",
"117 394 OFFCURVE",
"117 453 CURVE SMOOTH",
"117 526 OFFCURVE",
"143 592 OFFCURVE",
"188 637 CURVE SMOOTH",
"232 682 OFFCURVE",
"295 710 OFFCURVE",
"367 710 CURVE SMOOTH",
"495 710 OFFCURVE",
"565 633 OFFCURVE",
"565 496 CURVE SMOOTH"
);
},
{
closed = 1;
nodes = (
"411 335 OFFCURVE",
"466 393 OFFCURVE",
"483 477 CURVE",
"486 488 OFFCURVE",
"487 501 OFFCURVE",
"487 513 CURVE SMOOTH",
"487 592 OFFCURVE",
"443 638 OFFCURVE",
"364 638 CURVE SMOOTH",
"276 638 OFFCURVE",
"221 580 OFFCURVE",
"204 496 CURVE",
"201 485 OFFCURVE",
"200 472 OFFCURVE",
"200 460 CURVE SMOOTH",
"200 381 OFFCURVE",
"244 335 OFFCURVE",
"323 335 CURVE SMOOTH"
);
}
);
width = 600;
}
);
unicode = 0039;
},
{
glyphname = ampersand;
layers = (
{
layerId = "92E619D5-181B-4123-A4FF-2530258B7CD2";
name = "Regular Italic";
paths = (
{
closed = 1;
nodes = (
"433 85 LINE",
"373 22 OFFCURVE",
"298 -12 OFFCURVE",
"214 -12 CURVE SMOOTH",
"97 -12 OFFCURVE",
"37 55 OFFCURVE",
"37 151 CURVE SMOOTH",
"37 211 OFFCURVE",
"60 257 OFFCURVE",
"95 293 CURVE SMOOTH",
"130 329 OFFCURVE",
"176 356 OFFCURVE",
"221 379 CURVE",
"196 414 OFFCURVE",
"173 457 OFFCURVE",
"173 512 CURVE SMOOTH",
"173 561 OFFCURVE",
"192 612 OFFCURVE",
"225 649 CURVE SMOOTH",
"258 685 OFFCURVE",
"307 710 OFFCURVE",
"367 710 CURVE SMOOTH",
"404 710 OFFCURVE",
"441 699 OFFCURVE",
"469 678 CURVE SMOOTH",
"496 657 OFFCURVE",
"514 623 OFFCURVE",
"514 579 CURVE SMOOTH",
"514 524 OFFCURVE",
"489 481 OFFCURVE",
"453 446 CURVE SMOOTH",
"416 411 OFFCURVE",
"367 384 OFFCURVE",
"322 361 CURVE",
"436 201 LINE",
"465 252 OFFCURVE",
"484 309 OFFCURVE",
"499 368 CURVE",
"632 368 LINE",
"618 300 LINE",
"549 300 LINE",
"530 243 OFFCURVE",
"506 189 OFFCURVE",
"477 144 CURVE",
"580 0 LINE",
"494 0 LINE"
);
},
{
closed = 1;
nodes = (
"303 645 OFFCURVE",
"261 602 OFFCURVE",
"250 546 CURVE SMOOTH",
"248 536 OFFCURVE",
"247 526 OFFCURVE",
"247 517 CURVE SMOOTH",
"247 484 OFFCURVE",
"256 453 OFFCURVE",
"287 410 CURVE",
"326 429 OFFCURVE",
"364 449 OFFCURVE",
"392 474 CURVE SMOOTH",
"420 498 OFFCURVE",
"438 529 OFFCURVE",
"438 566 CURVE SMOOTH",
"438 617 OFFCURVE",
"405 645 OFFCURVE",
"360 645 CURVE SMOOTH"
);
},
{
closed = 1;
nodes = (
"297 56 OFFCURVE",
"351 88 OFFCURVE",
"394 139 CURVE",
"256 330 LINE",
"221 313 OFFCURVE",
"189 295 OFFCURVE",
"165 274 CURVE SMOOTH",
"141 253 OFFCURVE",
"124 227 OFFCURVE",
"117 194 CURVE SMOOTH",
"115 184 OFFCURVE",
"114 174 OFFCURVE",
"114 163 CURVE SMOOTH",
"114 95 OFFCURVE",
"154 56 OFFCURVE",
"229 56 CURVE SMOOTH"
);
}
);
width = 670;
}
);
leftKerningGroup = ampersand;
rightKerningGroup = ampersand;
unicode = 0026;
},
{
glyphname = at;
layers = (
{
layerId = "92E619D5-181B-4123-A4FF-2530258B7CD2";
name = "Regular Italic";
paths = (
{
closed = 1;
nodes = (
"360 -121 LINE SMOOTH",
"169 -121 OFFCURVE",
"65 -5 OFFCURVE",
"65 194 CURVE SMOOTH",
"65 221 OFFCURVE",
"67 260 OFFCURVE",
"76 305 CURVE SMOOTH",
"99 421 OFFCURVE",
"152 522 OFFCURVE",
"228 594 CURVE SMOOTH",
"304 665 OFFCURVE",
"402 708 OFFCURVE",
"515 708 CURVE SMOOTH",
"608 708 OFFCURVE",
"684 679 OFFCURVE",
"737 627 CURVE SMOOTH",
"789 575 OFFCURVE",
"818 500 OFFCURVE",
"818 408 CURVE SMOOTH",
"818 391 OFFCURVE",
"817 360 OFFCURVE",
"809 320 CURVE SMOOTH",
"796 252 OFFCURVE",
"774 190 OFFCURVE",
"741 144 CURVE SMOOTH",
"708 98 OFFCURVE",
"663 69 OFFCURVE",
"603 69 CURVE SMOOTH",
"544 69 OFFCURVE",
"514 99 OFFCURVE",
"514 159 CURVE SMOOTH",
"514 171 LINE",
"510 171 LINE",
"487 114 OFFCURVE",
"437 69 OFFCURVE",
"373 69 CURVE SMOOTH",
"338 69 OFFCURVE",
"306 83 OFFCURVE",
"282 109 CURVE SMOOTH",
"258 135 OFFCURVE",
"243 175 OFFCURVE",
"243 227 CURVE SMOOTH",
"243 246 OFFCURVE",
"245 270 OFFCURVE",
"252 303 CURVE SMOOTH",
"279 432 OFFCURVE",
"345 509 OFFCURVE",
"444 509 CURVE SMOOTH",
"503 509 OFFCURVE",
"540 479 OFFCURVE",
"554 420 CURVE",
"558 420 LINE",
"574 499 LINE",
"643 499 LINE",
"583 199 LINE",
"580 188 OFFCURVE",
"577 174 OFFCURVE",
"577 161 CURVE SMOOTH",
"577 141 OFFCURVE",
"586 128 OFFCURVE",
"613 128 CURVE SMOOTH",
"676 128 OFFCURVE",
"720 201 OFFCURVE",
"741 305 CURVE SMOOTH",
"751 355 LINE SMOOTH",
"755 375 OFFCURVE",
"755 395 OFFCURVE",
"755 414 CURVE SMOOTH",
"755 483 OFFCURVE",
"734 543 OFFCURVE",
"692 584 CURVE SMOOTH",
"650 625 OFFCURVE",
"588 649 OFFCURVE",
"511 649 CURVE SMOOTH",
"420 649 OFFCURVE",
"339 616 OFFCURVE",
"276 560 CURVE SMOOTH",
"212 503 OFFCURVE",
"167 421 OFFCURVE",
"147 322 CURVE SMOOTH",
"135 263 LINE SMOOTH",
"130 238 OFFCURVE",
"129 212 OFFCURVE",
"129 195 CURVE SMOOTH",
"129 35 OFFCURVE",
"207 -61 OFFCURVE",
"363 -61 CURVE SMOOTH",
"593 -61 LINE",
"581 -121 LINE"
);
},
{
closed = 1;
nodes = (
"430 133 OFFCURVE",
"459 146 OFFCURVE",
"481 167 CURVE SMOOTH",
"503 188 OFFCURVE",
"516 215 OFFCURVE",
"523 246 CURVE SMOOTH",
"546 360 LINE SMOOTH",
"550 380 OFFCURVE",
"543 401 OFFCURVE",
"527 418 CURVE SMOOTH",
"511 434 OFFCURVE",
"487 445 OFFCURVE",
"456 445 CURVE SMOOTH",
"392 445 OFFCURVE",
"348 401 OFFCURVE",
"336 340 CURVE SMOOTH",
"317 245 LINE SMOOTH",
"315 235 OFFCURVE",
"314 226 OFFCURVE",
"314 217 CURVE SMOOTH",
"314 165 OFFCURVE",
"346 133 OFFCURVE",
"398 133 CURVE SMOOTH"
);
}
);
width = 863;
}
);
leftKerningGroup = at;
rightKerningGroup = at;
unicode = 0040;
},
{
glyphname = hyphen;
layers = (
{
layerId = "92E619D5-181B-4123-A4FF-2530258B7CD2";
name = "Regular Italic";
paths = (
{
closed = 1;
nodes = (
"69 263 LINE",
"85 345 LINE",
"336 345 LINE",
"320 263 LINE"
);
}
);
width = 387;
}
);
leftKerningGroup = hyphen;
rightKerningGroup = hyphen;
unicode = 002D;
},
{
glyphname = uni00AD;
layers = (
{
layerId = "92E619D5-181B-4123-A4FF-2530258B7CD2";
name = "Regular Italic";
paths = (
{
closed = 1;
nodes = (
"69 263 LINE",
"85 345 LINE",
"336 345 LINE",
"320 263 LINE"
);
}
);
width = 387;
}
);
leftKerningGroup = hyphen;
rightKerningGroup = hyphen;
unicode = 00AD;
},
{
glyphname = endash;
layers = (
{
layerId = "92E619D5-181B-4123-A4FF-2530258B7CD2";
name = "Regular Italic";
paths = (
{
closed = 1;
nodes = (
"37 268 LINE",
"51 340 LINE",
"546 340 LINE",
"532 268 LINE"
);
}
);
width = 565;
}
);
leftKerningGroup = hyphen;
rightKerningGroup = hyphen;
unicode = 2013;
},
{
glyphname = emdash;
layers = (
{
layerId = "92E619D5-181B-4123-A4FF-2530258B7CD2";
name = "Regular Italic";
paths = (
{
closed = 1;
nodes = (
"37 268 LINE",
"51 340 LINE",
"730 340 LINE",
"716 268 LINE"
);
}
);
width = 749;
}
);
leftKerningGroup = hyphen;
rightKerningGroup = hyphen;
unicode = 2014;
},
{
glyphname = underscore;
layers = (
{
layerId = "92E619D5-181B-4123-A4FF-2530258B7CD2";
name = "Regular Italic";
paths = (
{
closed = 1;
nodes = (
"-53 -163 LINE",
"-39 -97 LINE",
"447 -97 LINE",
"433 -163 LINE"
);
}
);
width = 548;
}
);
leftKerningGroup = underscore;
rightKerningGroup = underscore;
unicode = 005F;
},
{
glyphname = period;
layers = (
{
layerId = "92E619D5-181B-4123-A4FF-2530258B7CD2";
name = "Regular Italic";
paths = (
{
closed = 1;
nodes = (
"54 -12 OFFCURVE",
"35 1 OFFCURVE",
"35 28 CURVE SMOOTH",
"35 37 OFFCURVE",
"36 51 OFFCURVE",
"39 62 CURVE",
"44 89 OFFCURVE",
"59 117 OFFCURVE",
"104 117 CURVE SMOOTH",
"136 117 OFFCURVE",
"155 104 OFFCURVE",
"155 77 CURVE SMOOTH",
"155 68 OFFCURVE",
"154 54 OFFCURVE",
"151 43 CURVE",
"148 30 OFFCURVE",
"144 16 OFFCURVE",
"134 6 CURVE SMOOTH",
"124 -4 OFFCURVE",
"109 -12 OFFCURVE",
"86 -12 CURVE SMOOTH"
);
}
);
width = 273;
}
);
leftKerningGroup = period;
rightKerningGroup = period;
unicode = 002E;
},
{
glyphname = ellipsis;
layers = (
{
layerId = "92E619D5-181B-4123-A4FF-2530258B7CD2";
name = "Regular Italic";
paths = (
{
closed = 1;
nodes = (
"54 -12 OFFCURVE",
"35 1 OFFCURVE",
"35 28 CURVE SMOOTH",
"35 37 OFFCURVE",
"36 51 OFFCURVE",
"39 62 CURVE",
"44 89 OFFCURVE",
"59 117 OFFCURVE",
"104 117 CURVE SMOOTH",
"136 117 OFFCURVE",
"155 104 OFFCURVE",
"155 77 CURVE SMOOTH",
"155 68 OFFCURVE",
"154 54 OFFCURVE",
"151 43 CURVE",
"148 30 OFFCURVE",
"144 16 OFFCURVE",
"134 6 CURVE SMOOTH",
"124 -4 OFFCURVE",
"109 -12 OFFCURVE",
"86 -12 CURVE SMOOTH"
);
},
{
closed = 1;
nodes = (
"315 -12 OFFCURVE",
"296 1 OFFCURVE",
"296 28 CURVE SMOOTH",
"296 37 OFFCURVE",
"297 51 OFFCURVE",
"300 62 CURVE",
"305 89 OFFCURVE",
"320 117 OFFCURVE",
"365 117 CURVE SMOOTH",
"397 117 OFFCURVE",
"416 104 OFFCURVE",
"416 77 CURVE SMOOTH",
"416 68 OFFCURVE",
"415 54 OFFCURVE",
"412 43 CURVE",
"409 30 OFFCURVE",
"405 16 OFFCURVE",
"395 6 CURVE SMOOTH",
"385 -4 OFFCURVE",
"370 -12 OFFCURVE",
"347 -12 CURVE SMOOTH"
);
},
{
closed = 1;
nodes = (
"576 -12 OFFCURVE",
"557 1 OFFCURVE",
"557 28 CURVE SMOOTH",
"557 37 OFFCURVE",
"558 51 OFFCURVE",
"561 62 CURVE",
"566 89 OFFCURVE",
"581 117 OFFCURVE",
"626 117 CURVE SMOOTH",
"658 117 OFFCURVE",
"677 104 OFFCURVE",
"677 77 CURVE SMOOTH",
"677 68 OFFCURVE",
"676 54 OFFCURVE",
"673 43 CURVE",
"670 30 OFFCURVE",
"666 16 OFFCURVE",
"656 6 CURVE SMOOTH",
"646 -4 OFFCURVE",
"631 -12 OFFCURVE",
"608 -12 CURVE SMOOTH"
);
}
);
width = 795;
}
);
leftKerningGroup = period;
rightKerningGroup = period;
unicode = 2026;
},
{
glyphname = colon;
layers = (
{
layerId = "92E619D5-181B-4123-A4FF-2530258B7CD2";
name = "Regular Italic";
paths = (
{
closed = 1;
nodes = (
"64 -12 OFFCURVE",
"45 1 OFFCURVE",
"45 28 CURVE SMOOTH",
"45 37 OFFCURVE",
"46 51 OFFCURVE",
"49 62 CURVE",
"54 89 OFFCURVE",
"69 117 OFFCURVE",
"114 117 CURVE SMOOTH",
"146 117 OFFCURVE",
"165 104 OFFCURVE",
"165 77 CURVE SMOOTH",
"165 68 OFFCURVE",
"164 54 OFFCURVE",
"161 43 CURVE",
"158 30 OFFCURVE",
"154 16 OFFCURVE",
"144 6 CURVE SMOOTH",
"134 -4 OFFCURVE",
"119 -12 OFFCURVE",
"96 -12 CURVE SMOOTH"
);
},
{
closed = 1;
nodes = (
"146 394 OFFCURVE",
"127 407 OFFCURVE",
"127 434 CURVE SMOOTH",
"127 443 OFFCURVE",
"128 457 OFFCURVE",
"131 468 CURVE",
"136 495 OFFCURVE",
"151 523 OFFCURVE",
"196 523 CURVE SMOOTH",
"228 523 OFFCURVE",
"247 510 OFFCURVE",
"247 483 CURVE SMOOTH",
"247 474 OFFCURVE",
"246 460 OFFCURVE",
"243 449 CURVE",
"240 436 OFFCURVE",
"236 422 OFFCURVE",
"226 412 CURVE SMOOTH",
"216 402 OFFCURVE",
"201 394 OFFCURVE",
"178 394 CURVE SMOOTH"
);
}
);
width = 292;
}
);
leftKerningGroup = colon;
unicode = 003A;
},
{
glyphname = comma;
layers = (
{
layerId = "92E619D5-181B-4123-A4FF-2530258B7CD2";
name = "Regular Italic";
paths = (
{
closed = 1;
nodes = (
"134 117 OFFCURVE",
"153 104 OFFCURVE",
"153 77 CURVE SMOOTH",
"153 68 OFFCURVE",
"152 57 OFFCURVE",
"149 46 CURVE",
"144 21 OFFCURVE",
"132 -12 OFFCURVE",
"113 -44 CURVE SMOOTH",
"93 -76 OFFCURVE",
"66 -109 OFFCURVE",
"33 -133 CURVE",
"-32 -133 LINE",
"17 -90 OFFCURVE",
"45 -51 OFFCURVE",
"66 -6 CURVE",
"44 -1 OFFCURVE",
"33 12 OFFCURVE",
"33 31 CURVE SMOOTH",
"33 40 OFFCURVE",
"34 51 OFFCURVE",
"37 62 CURVE",
"42 89 OFFCURVE",
"57 117 OFFCURVE",
"102 117 CURVE SMOOTH"
);
}
);
width = 273;
}
);
leftKerningGroup = period;
rightKerningGroup = period;
unicode = 002C;
},
{
glyphname = semicolon;
layers = (
{
layerId = "92E619D5-181B-4123-A4FF-2530258B7CD2";
name = "Regular Italic";
paths = (
{
closed = 1;
nodes = (
"144 117 OFFCURVE",
"163 104 OFFCURVE",
"163 77 CURVE SMOOTH",
"163 68 OFFCURVE",
"162 57 OFFCURVE",
"159 46 CURVE",
"154 21 OFFCURVE",
"142 -12 OFFCURVE",
"123 -44 CURVE SMOOTH",
"103 -76 OFFCURVE",
"76 -109 OFFCURVE",
"43 -133 CURVE",
"-22 -133 LINE",
"27 -90 OFFCURVE",
"55 -51 OFFCURVE",
"76 -6 CURVE",
"54 -1 OFFCURVE",
"43 12 OFFCURVE",
"43 31 CURVE SMOOTH",
"43 40 OFFCURVE",
"44 51 OFFCURVE",
"47 62 CURVE",
"52 89 OFFCURVE",
"67 117 OFFCURVE",
"112 117 CURVE SMOOTH"
);
},
{
closed = 1;
nodes = (
"146 394 OFFCURVE",
"127 407 OFFCURVE",
"127 434 CURVE SMOOTH",
"127 443 OFFCURVE",
"128 457 OFFCURVE",
"131 468 CURVE",
"136 495 OFFCURVE",
"151 523 OFFCURVE",
"196 523 CURVE SMOOTH",
"228 523 OFFCURVE",
"247 510 OFFCURVE",
"247 483 CURVE SMOOTH",
"247 474 OFFCURVE",
"246 460 OFFCURVE",
"243 449 CURVE",
"240 436 OFFCURVE",
"236 422 OFFCURVE",
"226 412 CURVE SMOOTH",
"216 402 OFFCURVE",
"201 394 OFFCURVE",
"178 394 CURVE SMOOTH"
);
}
);
width = 292;
}
);
leftKerningGroup = colon;
unicode = 003B;
},
{
glyphname = quotesingle;
layers = (
{
layerId = "92E619D5-181B-4123-A4FF-2530258B7CD2";
name = "Regular Italic";
paths = (
{
closed = 1;
nodes = (
"121 460 LINE",
"177 740 LINE",
"248 740 LINE",
"192 460 LINE"
);
}
);
width = 233;
}
);
leftKerningGroup = quotesingle;
rightKerningGroup = quotesingle;
unicode = 0027;
},
{
glyphname = quotedbl;
layers = (
{
layerId = "92E619D5-181B-4123-A4FF-2530258B7CD2";
name = "Regular Italic";
paths = (
{
closed = 1;
nodes = (
"121 460 LINE",
"177 740 LINE",
"248 740 LINE",
"192 460 LINE"
);
},
{
closed = 1;
nodes = (
"297 460 LINE",
"353 740 LINE",
"424 740 LINE",
"368 460 LINE"
);
}
);
width = 409;
}
);
leftKerningGroup = quotesingle;
rightKerningGroup = quotesingle;
unicode = 0022;
},
{
glyphname = quoteleft;
layers = (
{
layerId = "92E619D5-181B-4123-A4FF-2530258B7CD2";
name = "Regular Italic";
paths = (
{
closed = 1;
nodes = (
"153 490 OFFCURVE",
"134 503 OFFCURVE",
"134 530 CURVE SMOOTH",
"134 539 OFFCURVE",
"135 550 OFFCURVE",
"138 561 CURVE",
"143 586 OFFCURVE",
"155 619 OFFCURVE",
"175 651 CURVE SMOOTH",
"194 683 OFFCURVE",
"219 716 OFFCURVE",
"254 740 CURVE",
"319 740 LINE",
"270 697 OFFCURVE",
"242 658 OFFCURVE",
"221 613 CURVE",
"243 608 OFFCURVE",
"254 595 OFFCURVE",
"254 576 CURVE SMOOTH",
"254 567 OFFCURVE",
"253 556 OFFCURVE",
"250 545 CURVE",
"247 532 OFFCURVE",
"243 518 OFFCURVE",
"233 508 CURVE SMOOTH",
"223 498 OFFCURVE",
"208 490 OFFCURVE",
"185 490 CURVE SMOOTH"
);
}
);
width = 273;
}
);
leftKerningGroup = quoteleft;
rightKerningGroup = quoteleft;
unicode = 2018;
},
{
glyphname = quoteright;
layers = (
{
layerId = "92E619D5-181B-4123-A4FF-2530258B7CD2";
name = "Regular Italic";
paths = (
{
closed = 1;
nodes = (
"266 750 OFFCURVE",
"285 737 OFFCURVE",
"285 710 CURVE SMOOTH",
"285 701 OFFCURVE",
"284 690 OFFCURVE",
"281 679 CURVE",
"276 654 OFFCURVE",
"264 621 OFFCURVE",
"245 589 CURVE SMOOTH",
"225 557 OFFCURVE",
"198 524 OFFCURVE",
"165 500 CURVE",
"100 500 LINE",
"149 543 OFFCURVE",
"177 582 OFFCURVE",
"198 627 CURVE",
"176 632 OFFCURVE",
"165 645 OFFCURVE",
"165 664 CURVE SMOOTH",
"165 673 OFFCURVE",
"166 684 OFFCURVE",
"169 695 CURVE",
"174 722 OFFCURVE",
"189 750 OFFCURVE",
"234 750 CURVE SMOOTH"
);
}
);
width = 273;
}
);
leftKerningGroup = quoteright;
rightKerningGroup = quoteright;
unicode = 2019;
},
{
glyphname = quotedblleft;
layers = (
{
layerId = "92E619D5-181B-4123-A4FF-2530258B7CD2";
name = "Regular Italic";
paths = (
{
closed = 1;
nodes = (
"153 490 OFFCURVE",
"134 503 OFFCURVE",
"134 530 CURVE SMOOTH",
"134 539 OFFCURVE",
"135 550 OFFCURVE",
"138 561 CURVE",
"143 586 OFFCURVE",
"155 619 OFFCURVE",
"175 651 CURVE SMOOTH",
"194 683 OFFCURVE",
"219 716 OFFCURVE",
"254 740 CURVE",
"319 740 LINE",
"270 697 OFFCURVE",
"242 658 OFFCURVE",
"221 613 CURVE",
"243 608 OFFCURVE",
"254 595 OFFCURVE",
"254 576 CURVE SMOOTH",
"254 567 OFFCURVE",
"253 556 OFFCURVE",
"250 545 CURVE",
"247 532 OFFCURVE",
"243 518 OFFCURVE",
"233 508 CURVE SMOOTH",
"223 498 OFFCURVE",
"208 490 OFFCURVE",
"185 490 CURVE SMOOTH"
);
},
{
closed = 1;
nodes = (
"350 490 OFFCURVE",
"331 503 OFFCURVE",
"331 530 CURVE SMOOTH",
"331 539 OFFCURVE",
"332 550 OFFCURVE",
"335 561 CURVE",
"340 586 OFFCURVE",
"352 619 OFFCURVE",
"372 651 CURVE SMOOTH",
"391 683 OFFCURVE",
"416 716 OFFCURVE",
"451 740 CURVE",
"516 740 LINE",
"467 697 OFFCURVE",
"439 658 OFFCURVE",
"418 613 CURVE",
"440 608 OFFCURVE",
"451 595 OFFCURVE",
"451 576 CURVE SMOOTH",
"451 567 OFFCURVE",
"450 556 OFFCURVE",
"447 545 CURVE",
"444 532 OFFCURVE",
"440 518 OFFCURVE",
"430 508 CURVE SMOOTH",
"420 498 OFFCURVE",
"405 490 OFFCURVE",
"382 490 CURVE SMOOTH"
);
}
);
width = 470;
}
);
leftKerningGroup = quoteleft;
rightKerningGroup = quoteleft;
unicode = 201C;
},
{
glyphname = quotedblright;
layers = (
{
layerId = "92E619D5-181B-4123-A4FF-2530258B7CD2";
name = "Regular Italic";
paths = (
{
closed = 1;
nodes = (
"266 750 OFFCURVE",
"285 737 OFFCURVE",
"285 710 CURVE SMOOTH",
"285 701 OFFCURVE",
"284 690 OFFCURVE",
"281 679 CURVE",
"276 654 OFFCURVE",
"264 621 OFFCURVE",
"245 589 CURVE SMOOTH",
"225 557 OFFCURVE",
"198 524 OFFCURVE",
"165 500 CURVE",
"100 500 LINE",
"149 543 OFFCURVE",
"177 582 OFFCURVE",
"198 627 CURVE",
"176 632 OFFCURVE",
"165 645 OFFCURVE",
"165 664 CURVE SMOOTH",
"165 673 OFFCURVE",
"166 684 OFFCURVE",
"169 695 CURVE",
"174 722 OFFCURVE",
"189 750 OFFCURVE",
"234 750 CURVE SMOOTH"
);
},
{
closed = 1;
nodes = (
"463 750 OFFCURVE",
"482 737 OFFCURVE",
"482 710 CURVE SMOOTH",
"482 701 OFFCURVE",
"481 690 OFFCURVE",
"478 679 CURVE",
"473 654 OFFCURVE",
"461 621 OFFCURVE",
"442 589 CURVE SMOOTH",
"422 557 OFFCURVE",
"395 524 OFFCURVE",
"362 500 CURVE",
"297 500 LINE",
"346 543 OFFCURVE",
"374 582 OFFCURVE",
"395 627 CURVE",
"373 632 OFFCURVE",
"362 645 OFFCURVE",
"362 664 CURVE SMOOTH",
"362 673 OFFCURVE",
"363 684 OFFCURVE",
"366 695 CURVE",
"371 722 OFFCURVE",
"386 750 OFFCURVE",
"431 750 CURVE SMOOTH"
);
}
);
width = 470;
}
);
leftKerningGroup = quoteright;
rightKerningGroup = quoteright;
unicode = 201D;
},
{
glyphname = quotesinglbase;
layers = (
{
layerId = "92E619D5-181B-4123-A4FF-2530258B7CD2";
name = "Regular Italic";
paths = (
{
closed = 1;
nodes = (
"134 134 OFFCURVE",
"153 121 OFFCURVE",
"153 94 CURVE SMOOTH",
"153 85 OFFCURVE",
"152 74 OFFCURVE",
"149 63 CURVE",
"144 38 OFFCURVE",
"132 5 OFFCURVE",
"113 -27 CURVE SMOOTH",
"93 -59 OFFCURVE",
"66 -92 OFFCURVE",
"33 -116 CURVE",
"-32 -116 LINE",
"17 -73 OFFCURVE",
"45 -34 OFFCURVE",
"66 11 CURVE",
"44 16 OFFCURVE",
"33 29 OFFCURVE",
"33 48 CURVE SMOOTH",
"33 57 OFFCURVE",
"34 68 OFFCURVE",
"37 79 CURVE",
"42 106 OFFCURVE",
"57 134 OFFCURVE",
"102 134 CURVE SMOOTH"
);
}
);
width = 273;
}
);
leftKerningGroup = period;
rightKerningGroup = period;
unicode = 201A;
},
{
glyphname = quotedblbase;
layers = (
{
layerId = "92E619D5-181B-4123-A4FF-2530258B7CD2";
name = "Regular Italic";
paths = (
{
closed = 1;
nodes = (
"134 134 OFFCURVE",
"153 121 OFFCURVE",
"153 94 CURVE SMOOTH",
"153 85 OFFCURVE",
"152 74 OFFCURVE",
"149 63 CURVE",
"144 38 OFFCURVE",
"132 5 OFFCURVE",
"113 -27 CURVE SMOOTH",
"93 -59 OFFCURVE",
"66 -92 OFFCURVE",
"33 -116 CURVE",
"-32 -116 LINE",
"17 -73 OFFCURVE",
"45 -34 OFFCURVE",
"66 11 CURVE",
"44 16 OFFCURVE",
"33 29 OFFCURVE",
"33 48 CURVE SMOOTH",
"33 57 OFFCURVE",
"34 68 OFFCURVE",
"37 79 CURVE",
"42 106 OFFCURVE",
"57 134 OFFCURVE",
"102 134 CURVE SMOOTH"
);
},
{
closed = 1;
nodes = (
"322 134 OFFCURVE",
"341 121 OFFCURVE",
"341 94 CURVE SMOOTH",
"341 85 OFFCURVE",
"340 74 OFFCURVE",
"337 63 CURVE",
"332 38 OFFCURVE",
"320 5 OFFCURVE",
"301 -27 CURVE SMOOTH",
"281 -59 OFFCURVE",
"254 -92 OFFCURVE",
"221 -116 CURVE",
"156 -116 LINE",
"205 -73 OFFCURVE",
"233 -34 OFFCURVE",
"254 11 CURVE",
"232 16 OFFCURVE",
"221 29 OFFCURVE",
"221 48 CURVE SMOOTH",
"221 57 OFFCURVE",
"222 68 OFFCURVE",
"225 79 CURVE",
"230 106 OFFCURVE",
"245 134 OFFCURVE",
"290 134 CURVE SMOOTH"
);
}
);
width = 461;
}
);
leftKerningGroup = period;
rightKerningGroup = period;
unicode = 201E;
},
{
glyphname = guilsinglleft;
layers = (
{
layerId = "92E619D5-181B-4123-A4FF-2530258B7CD2";
name = "Regular Italic";
paths = (
{
closed = 1;
nodes = (
"186 78 LINE",
"32 250 LINE",
"47 323 LINE",
"264 488 LINE",
"278 429 LINE",
"114 280 LINE",
"218 130 LINE"
);
}
);
width = 298;
}
);
leftKerningGroup = guilsinglleft;
rightKerningGroup = guilsinglleft;
unicode = 2039;
},
{
glyphname = guilsinglright;
layers = (
{
layerId = "92E619D5-181B-4123-A4FF-2530258B7CD2";
name = "Regular Italic";
paths = (
{
closed = 1;
nodes = (
"25 137 LINE",
"189 286 LINE",
"85 436 LINE",
"117 488 LINE",
"271 316 LINE",
"256 243 LINE",
"39 78 LINE"
);
}
);
width = 298;
}
);
leftKerningGroup = guilsinglright;
rightKerningGroup = guilsinglright;
unicode = 203A;
},
{
glyphname = guillemotleft;
layers = (
{
layerId = "92E619D5-181B-4123-A4FF-2530258B7CD2";
name = "Regular Italic";
paths = (
{
closed = 1;
nodes = (
"186 78 LINE",
"32 250 LINE",
"47 323 LINE",
"264 488 LINE",
"278 429 LINE",
"114 280 LINE",
"218 130 LINE"
);
},
{
closed = 1;
nodes = (
"387 78 LINE",
"233 250 LINE",
"248 323 LINE",
"465 488 LINE",
"479 429 LINE",
"315 280 LINE",
"419 130 LINE"
);
}
);
width = 499;
}
);
leftKerningGroup = guilsinglleft;
rightKerningGroup = guilsinglleft;
unicode = 00AB;
},
{
glyphname = guillemotright;
layers = (
{
layerId = "92E619D5-181B-4123-A4FF-2530258B7CD2";
name = "Regular Italic";
paths = (
{
closed = 1;
nodes = (
"226 137 LINE",
"390 286 LINE",
"286 436 LINE",
"318 488 LINE",
"472 316 LINE",
"457 243 LINE",
"240 78 LINE"
);
},
{
closed = 1;
nodes = (
"25 137 LINE",
"189 286 LINE",
"85 436 LINE",
"117 488 LINE",
"271 316 LINE",
"256 243 LINE",
"39 78 LINE"
);
}
);
width = 499;
}
);
leftKerningGroup = guilsinglright;
rightKerningGroup = guilsinglright;
unicode = 00BB;
},
{
glyphname = exclamdown;
layers = (
{
layerId = "92E619D5-181B-4123-A4FF-2530258B7CD2";
name = "Regular Italic";
paths = (
{
closed = 1;
nodes = (
"6 -181 LINE",
"47 22 LINE",
"131 331 LINE",
"169 331 LINE",
"130 22 LINE",
"89 -181 LINE"
);
},
{
closed = 1;
nodes = (
"133 399 OFFCURVE",
"114 412 OFFCURVE",
"114 439 CURVE SMOOTH",
"114 448 OFFCURVE",
"115 462 OFFCURVE",
"118 473 CURVE",
"123 500 OFFCURVE",
"138 528 OFFCURVE",
"183 528 CURVE SMOOTH",
"215 528 OFFCURVE",
"234 515 OFFCURVE",
"234 488 CURVE SMOOTH",
"234 479 OFFCURVE",
"233 465 OFFCURVE",
"230 454 CURVE",
"227 441 OFFCURVE",
"223 427 OFFCURVE",
"213 417 CURVE SMOOTH",
"203 407 OFFCURVE",
"188 399 OFFCURVE",
"165 399 CURVE SMOOTH"
);
}
);
width = 271;
}
);
rightKerningGroup = exclamdown;
unicode = 00A1;
},
{
glyphname = exclam;
layers = (
{
layerId = "92E619D5-181B-4123-A4FF-2530258B7CD2";
name = "Regular Italic";
paths = (
{
closed = 1;
nodes = (
"102 185 LINE",
"141 494 LINE",
"182 698 LINE",
"265 698 LINE",
"224 494 LINE",
"140 185 LINE"
);
},
{
closed = 1;
nodes = (
"56 -12 OFFCURVE",
"37 1 OFFCURVE",
"37 28 CURVE SMOOTH",
"37 37 OFFCURVE",
"38 51 OFFCURVE",
"41 62 CURVE",
"46 89 OFFCURVE",
"61 117 OFFCURVE",
"106 117 CURVE SMOOTH",
"138 117 OFFCURVE",
"157 104 OFFCURVE",
"157 77 CURVE SMOOTH",
"157 68 OFFCURVE",
"156 54 OFFCURVE",
"153 43 CURVE",
"150 30 OFFCURVE",
"146 16 OFFCURVE",
"136 6 CURVE SMOOTH",
"126 -4 OFFCURVE",
"111 -12 OFFCURVE",
"88 -12 CURVE SMOOTH"
);
}
);
width = 271;
}
);
leftKerningGroup = exclam;
unicode = 0021;
},
{
glyphname = questiondown;
layers = (
{
layerId = "92E619D5-181B-4123-A4FF-2530258B7CD2";
name = "Regular Italic";
paths = (
{
closed = 1;
nodes = (
"54 -194 OFFCURVE",
"-17 -134 OFFCURVE",
"-17 -33 CURVE SMOOTH",
"-17 22 OFFCURVE",
"5 74 OFFCURVE",
"43 116 CURVE SMOOTH",
"81 158 OFFCURVE",
"136 188 OFFCURVE",
"204 200 CURVE",
"226 308 LINE",
"301 308 LINE",
"268 143 LINE",
"215 140 OFFCURVE",
"169 126 OFFCURVE",
"134 103 CURVE SMOOTH",
"99 79 OFFCURVE",
"77 46 OFFCURVE",
"70 10 CURVE",
"67 1 OFFCURVE",
"67 -17 OFFCURVE",
"67 -28 CURVE SMOOTH",
"67 -85 OFFCURVE",
"102 -122 OFFCURVE",
"170 -122 CURVE SMOOTH",
"247 -122 OFFCURVE",
"290 -75 OFFCURVE",
"318 -3 CURVE",
"385 -30 LINE",
"365 -79 OFFCURVE",
"337 -121 OFFCURVE",
"301 -149 CURVE SMOOTH",
"265 -178 OFFCURVE",
"220 -194 OFFCURVE",
"163 -194 CURVE SMOOTH"
);
},
{
closed = 1;
nodes = (
"250 399 OFFCURVE",
"231 412 OFFCURVE",
"231 439 CURVE SMOOTH",
"231 448 OFFCURVE",
"232 462 OFFCURVE",
"235 473 CURVE",
"240 500 OFFCURVE",
"255 528 OFFCURVE",
"300 528 CURVE SMOOTH",
"332 528 OFFCURVE",
"351 515 OFFCURVE",
"351 488 CURVE SMOOTH",
"351 479 OFFCURVE",
"350 465 OFFCURVE",
"347 454 CURVE",
"344 441 OFFCURVE",
"340 427 OFFCURVE",
"330 417 CURVE SMOOTH",
"320 407 OFFCURVE",
"305 399 OFFCURVE",
"282 399 CURVE SMOOTH"
);
}
);
width = 470;
}
);
leftKerningGroup = questiondown;
rightKerningGroup = questiondown;
unicode = 00BF;
},
{
glyphname = question;
layers = (
{
layerId = "92E619D5-181B-4123-A4FF-2530258B7CD2";
name = "Regular Italic";
paths = (
{
closed = 1;
nodes = (
"169 208 LINE",
"202 373 LINE",
"255 374 OFFCURVE",
"301 390 OFFCURVE",
"336 414 CURVE SMOOTH",
"371 437 OFFCURVE",
"393 470 OFFCURVE",
"400 506 CURVE",
"403 515 OFFCURVE",
"403 533 OFFCURVE",
"403 544 CURVE SMOOTH",
"403 601 OFFCURVE",
"368 638 OFFCURVE",
"300 638 CURVE SMOOTH",
"223 638 OFFCURVE",
"180 591 OFFCURVE",
"152 519 CURVE",
"85 546 LINE",
"126 645 OFFCURVE",
"192 710 OFFCURVE",
"307 710 CURVE SMOOTH",
"416 710 OFFCURVE",
"487 650 OFFCURVE",
"487 549 CURVE SMOOTH",
"487 494 OFFCURVE",
"466 443 OFFCURVE",
"428 401 CURVE SMOOTH",
"390 359 OFFCURVE",
"334 328 OFFCURVE",
"266 316 CURVE",
"244 208 LINE"
);
},
{
closed = 1;
nodes = (
"138 -12 OFFCURVE",
"119 1 OFFCURVE",
"119 28 CURVE SMOOTH",
"119 37 OFFCURVE",
"120 51 OFFCURVE",
"123 62 CURVE",
"128 89 OFFCURVE",
"143 117 OFFCURVE",
"188 117 CURVE SMOOTH",
"220 117 OFFCURVE",
"239 104 OFFCURVE",
"239 77 CURVE SMOOTH",
"239 68 OFFCURVE",
"238 54 OFFCURVE",
"235 43 CURVE",
"232 30 OFFCURVE",
"228 16 OFFCURVE",
"218 6 CURVE SMOOTH",
"208 -4 OFFCURVE",
"193 -12 OFFCURVE",
"170 -12 CURVE SMOOTH"
);
}
);
width = 470;
}
);
leftKerningGroup = question;
rightKerningGroup = question;
unicode = 003F;
},
{
glyphname = parenleft;
layers = (
{
layerId = "92E619D5-181B-4123-A4FF-2530258B7CD2";
name = "Regular Italic";
paths = (
{
closed = 1;
nodes = (
"76 322 OFFCURVE",
"109 435 OFFCURVE",
"160 531 CURVE SMOOTH",
"211 626 OFFCURVE",
"279 704 OFFCURVE",
"350 760 CURVE",
"426 760 LINE",
"362 708 OFFCURVE",
"305 644 OFFCURVE",
"261 576 CURVE SMOOTH",
"216 508 OFFCURVE",
"183 437 OFFCURVE",
"170 369 CURVE SMOOTH",
"153 284 LINE SMOOTH",
"147 254 OFFCURVE",
"144 223 OFFCURVE",
"144 190 CURVE SMOOTH",
"144 67 OFFCURVE",
"180 -50 OFFCURVE",
"245 -137 CURVE",
"178 -137 LINE",
"121 -62 OFFCURVE",
"76 53 OFFCURVE",
"76 198 CURVE SMOOTH"
);
}
);
width = 328;
}
);
rightKerningGroup = parenleft;
unicode = 0028;
},
{
glyphname = parenright;
layers = (
{
layerId = "92E619D5-181B-4123-A4FF-2530258B7CD2";
name = "Regular Italic";
paths = (
{
closed = 1;
nodes = (
"274 301 OFFCURVE",
"241 188 OFFCURVE",
"190 93 CURVE SMOOTH",
"139 -3 OFFCURVE",
"71 -81 OFFCURVE",
"0 -137 CURVE",
"-76 -137 LINE",
"-12 -85 OFFCURVE",
"45 -22 OFFCURVE",
"90 46 CURVE SMOOTH",
"134 114 OFFCURVE",
"167 186 OFFCURVE",
"180 254 CURVE SMOOTH",
"197 339 LINE SMOOTH",
"203 369 OFFCURVE",
"206 400 OFFCURVE",
"206 433 CURVE SMOOTH",
"206 556 OFFCURVE",
"170 673 OFFCURVE",
"105 760 CURVE",
"172 760 LINE",
"229 685 OFFCURVE",
"274 570 OFFCURVE",
"274 425 CURVE SMOOTH"
);
}
);
width = 328;
}
);
leftKerningGroup = parenright;
unicode = 0029;
},
{
glyphname = bracketleft;
layers = (
{
layerId = "92E619D5-181B-4123-A4FF-2530258B7CD2";
name = "Regular Italic";
paths = (
{
closed = 1;
nodes = (
"12 -138 LINE",
"192 760 LINE",
"351 760 LINE",
"338 699 LINE",
"249 699 LINE",
"93 -77 LINE",
"182 -77 LINE",
"170 -138 LINE"
);
}
);
width = 317;
}
);
rightKerningGroup = bracketleft;
unicode = 005B;
},
{
glyphname = bracketright;
layers = (
{
layerId = "92E619D5-181B-4123-A4FF-2530258B7CD2";
name = "Regular Italic";
paths = (
{
closed = 1;
nodes = (
"327 760 LINE",
"147 -138 LINE",
"-12 -138 LINE",
"1 -77 LINE",
"90 -77 LINE",
"246 699 LINE",
"157 699 LINE",
"169 760 LINE"
);
}
);
width = 316;
}
);
leftKerningGroup = bracketright;
unicode = 005D;
},
{
glyphname = braceleft;
layers = (
{
layerId = "92E619D5-181B-4123-A4FF-2530258B7CD2";
name = "Regular Italic";
paths = (
{
closed = 1;
nodes = (
"115 -138 LINE SMOOTH",
"71 -138 OFFCURVE",
"49 -112 OFFCURVE",
"49 -76 CURVE SMOOTH",
"49 -69 OFFCURVE",
"49 -62 OFFCURVE",
"52 -47 CURVE SMOOTH",
"98 181 LINE SMOOTH",
"100 191 OFFCURVE",
"101 200 OFFCURVE",
"101 207 CURVE SMOOTH",
"101 251 OFFCURVE",
"72 272 OFFCURVE",
"27 272 CURVE",
"43 350 LINE",
"110 350 OFFCURVE",
"139 386 OFFCURVE",
"150 441 CURVE SMOOTH",
"197 676 LINE SMOOTH",
"208 732 OFFCURVE",
"237 760 OFFCURVE",
"283 760 CURVE SMOOTH",
"371 760 LINE",
"360 697 LINE",
"270 697 LINE",
"220 446 LINE SMOOTH",
"213 415 OFFCURVE",
"205 385 OFFCURVE",
"187 361 CURVE SMOOTH",
"169 337 OFFCURVE",
"142 320 OFFCURVE",
"102 316 CURVE",
"99 300 LINE",
"146 291 OFFCURVE",
"171 259 OFFCURVE",
"171 211 CURVE SMOOTH",
"171 200 OFFCURVE",
"169 188 OFFCURVE",
"166 177 CURVE",
"116 -75 LINE",
"207 -75 LINE",
"193 -138 LINE"
);
}
);
width = 329;
}
);
rightKerningGroup = bracketleft;
unicode = 007B;
},
{
glyphname = braceright;
layers = (
{
layerId = "92E619D5-181B-4123-A4FF-2530258B7CD2";
name = "Regular Italic";
paths = (
{
closed = 1;
nodes = (
"-10 -75 LINE",
"80 -75 LINE",
"130 176 LINE SMOOTH",
"135 205 OFFCURVE",
"146 236 OFFCURVE",
"164 260 CURVE SMOOTH",
"182 283 OFFCURVE",
"208 300 OFFCURVE",
"248 304 CURVE",
"251 320 LINE",
"204 329 OFFCURVE",
"179 363 OFFCURVE",
"179 411 CURVE SMOOTH",
"179 422 OFFCURVE",
"181 434 OFFCURVE",
"184 445 CURVE",
"234 697 LINE",
"143 697 LINE",
"157 760 LINE",
"235 760 LINE SMOOTH",
"279 760 OFFCURVE",
"301 734 OFFCURVE",
"301 698 CURVE SMOOTH",
"301 691 OFFCURVE",
"301 684 OFFCURVE",
"298 669 CURVE SMOOTH",
"252 441 LINE SMOOTH",
"250 431 OFFCURVE",
"249 422 OFFCURVE",
"249 415 CURVE SMOOTH",
"249 371 OFFCURVE",
"278 350 OFFCURVE",
"323 350 CURVE",
"307 272 LINE",
"240 272 OFFCURVE",
"211 236 OFFCURVE",
"200 181 CURVE SMOOTH",
"153 -54 LINE SMOOTH",
"142 -110 OFFCURVE",
"113 -138 OFFCURVE",
"67 -138 CURVE SMOOTH",
"-21 -138 LINE"
);
}
);
width = 329;
}
);
leftKerningGroup = bracketright;
unicode = 007D;
},
{
glyphname = slash;
layers = (
{
layerId = "92E619D5-181B-4123-A4FF-2530258B7CD2";
name = "Regular Italic";
paths = (
{
closed = 1;
nodes = (
"-68 -151 LINE",
"361 740 LINE",
"432 740 LINE",
"3 -151 LINE"
);
}
);
width = 378;
}
);
leftKerningGroup = slash;
rightKerningGroup = slash;
unicode = 002F;
},
{
glyphname = backslash;
layers = (
{
layerId = "92E619D5-181B-4123-A4FF-2530258B7CD2";
name = "Regular Italic";
paths = (
{
closed = 1;
nodes = (
"213 -151 LINE",
"142 740 LINE",
"209 740 LINE",
"280 -151 LINE"
);
}
);
width = 378;
}
);
unicode = 005C;
},
{
glyphname = fraction;
layers = (
{
layerId = "92E619D5-181B-4123-A4FF-2530258B7CD2";
name = "Regular Italic";
paths = (
{
closed = 1;
nodes = (
"-245 0 LINE",
"364 698 LINE",
"437 698 LINE",
"-172 0 LINE"
);
}
);
width = 148;
}
);
unicode = 2044;
},
{
glyphname = percent;
layers = (
{
layerId = "92E619D5-181B-4123-A4FF-2530258B7CD2";
name = "Regular Italic";
paths = (
{
closed = 1;
nodes = (
"118 0 LINE",
"722 698 LINE",
"802 698 LINE",
"198 0 LINE"
);
},
{
closed = 1;
nodes = (
"147 314 OFFCURVE",
"102 366 OFFCURVE",
"102 457 CURVE SMOOTH",
"102 522 OFFCURVE",
"119 586 OFFCURVE",
"151 633 CURVE SMOOTH",
"183 680 OFFCURVE",
"230 710 OFFCURVE",
"290 710 CURVE SMOOTH",
"369 710 OFFCURVE",
"415 658 OFFCURVE",
"415 567 CURVE SMOOTH",
"415 500 OFFCURVE",
"398 438 OFFCURVE",
"366 391 CURVE SMOOTH",
"334 344 OFFCURVE",
"287 314 OFFCURVE",
"227 314 CURVE SMOOTH"
);
},
{
closed = 1;
nodes = (
"284 364 OFFCURVE",
"316 408 OFFCURVE",
"331 480 CURVE SMOOTH",
"345 548 LINE",
"348 559 OFFCURVE",
"349 574 OFFCURVE",
"349 585 CURVE SMOOTH",
"349 633 OFFCURVE",
"327 660 OFFCURVE",
"284 660 CURVE SMOOTH",
"233 660 OFFCURVE",
"201 616 OFFCURVE",
"186 544 CURVE SMOOTH",
"172 476 LINE",
"169 465 OFFCURVE",
"168 450 OFFCURVE",
"168 439 CURVE SMOOTH",
"168 391 OFFCURVE",
"190 364 OFFCURVE",
"233 364 CURVE SMOOTH"
);
},
{
closed = 1;
nodes = (
"550 -12 OFFCURVE",
"505 40 OFFCURVE",
"505 131 CURVE SMOOTH",
"505 196 OFFCURVE",
"522 260 OFFCURVE",
"554 307 CURVE SMOOTH",
"586 354 OFFCURVE",
"633 384 OFFCURVE",
"693 384 CURVE SMOOTH",
"772 384 OFFCURVE",
"818 332 OFFCURVE",
"818 241 CURVE SMOOTH",
"818 174 OFFCURVE",
"801 112 OFFCURVE",
"769 65 CURVE SMOOTH",
"737 18 OFFCURVE",
"690 -12 OFFCURVE",
"630 -12 CURVE SMOOTH"
);
},
{
closed = 1;
nodes = (
"687 38 OFFCURVE",
"719 82 OFFCURVE",
"734 154 CURVE SMOOTH",
"748 222 LINE",
"751 233 OFFCURVE",
"752 248 OFFCURVE",
"752 259 CURVE SMOOTH",
"752 307 OFFCURVE",
"730 334 OFFCURVE",
"687 334 CURVE SMOOTH",
"636 334 OFFCURVE",
"604 290 OFFCURVE",
"589 218 CURVE SMOOTH",
"575 150 LINE",
"572 139 OFFCURVE",
"571 124 OFFCURVE",
"571 113 CURVE SMOOTH",
"571 65 OFFCURVE",
"593 38 OFFCURVE",
"636 38 CURVE SMOOTH"
);
}
);
width = 900;
}
);
rightKerningGroup = percent;
unicode = 0025;
},
{
glyphname = perthousand;
layers = (
{
layerId = "92E619D5-181B-4123-A4FF-2530258B7CD2";
name = "Regular Italic";
paths = (
{
closed = 1;
nodes = (
"118 0 LINE",
"722 698 LINE",
"802 698 LINE",
"198 0 LINE"
);
},
{
closed = 1;
nodes = (
"147 314 OFFCURVE",
"102 366 OFFCURVE",
"102 457 CURVE SMOOTH",
"102 522 OFFCURVE",
"119 586 OFFCURVE",
"151 633 CURVE SMOOTH",
"183 680 OFFCURVE",
"230 710 OFFCURVE",
"290 710 CURVE SMOOTH",
"369 710 OFFCURVE",
"415 658 OFFCURVE",
"415 567 CURVE SMOOTH",
"415 500 OFFCURVE",
"398 438 OFFCURVE",
"366 391 CURVE SMOOTH",
"334 344 OFFCURVE",
"287 314 OFFCURVE",
"227 314 CURVE SMOOTH"
);
},
{
closed = 1;
nodes = (
"284 364 OFFCURVE",
"316 408 OFFCURVE",
"331 480 CURVE SMOOTH",
"345 548 LINE",
"348 559 OFFCURVE",
"349 574 OFFCURVE",
"349 585 CURVE SMOOTH",
"349 633 OFFCURVE",
"327 660 OFFCURVE",
"284 660 CURVE SMOOTH",
"233 660 OFFCURVE",
"201 616 OFFCURVE",
"186 544 CURVE SMOOTH",
"172 476 LINE",
"169 465 OFFCURVE",
"168 450 OFFCURVE",
"168 439 CURVE SMOOTH",
"168 391 OFFCURVE",
"190 364 OFFCURVE",
"233 364 CURVE SMOOTH"
);
},
{
closed = 1;
nodes = (
"550 -12 OFFCURVE",
"505 40 OFFCURVE",
"505 131 CURVE SMOOTH",
"505 196 OFFCURVE",
"522 260 OFFCURVE",
"554 307 CURVE SMOOTH",
"586 354 OFFCURVE",
"633 384 OFFCURVE",
"693 384 CURVE SMOOTH",
"772 384 OFFCURVE",
"818 332 OFFCURVE",
"818 241 CURVE SMOOTH",
"818 174 OFFCURVE",
"801 112 OFFCURVE",
"769 65 CURVE SMOOTH",
"737 18 OFFCURVE",
"690 -12 OFFCURVE",
"630 -12 CURVE SMOOTH"
);
},
{
closed = 1;
nodes = (
"687 38 OFFCURVE",
"719 82 OFFCURVE",
"734 154 CURVE SMOOTH",
"748 222 LINE",
"751 233 OFFCURVE",
"752 248 OFFCURVE",
"752 259 CURVE SMOOTH",
"752 307 OFFCURVE",
"730 334 OFFCURVE",
"687 334 CURVE SMOOTH",
"636 334 OFFCURVE",
"604 290 OFFCURVE",
"589 218 CURVE SMOOTH",
"575 150 LINE",
"572 139 OFFCURVE",
"571 124 OFFCURVE",
"571 113 CURVE SMOOTH",
"571 65 OFFCURVE",
"593 38 OFFCURVE",
"636 38 CURVE SMOOTH"
);
},
{
closed = 1;
nodes = (
"912 -12 OFFCURVE",
"867 40 OFFCURVE",
"867 131 CURVE SMOOTH",
"867 196 OFFCURVE",
"884 260 OFFCURVE",
"916 307 CURVE SMOOTH",
"948 354 OFFCURVE",
"995 384 OFFCURVE",
"1055 384 CURVE SMOOTH",
"1134 384 OFFCURVE",
"1180 332 OFFCURVE",
"1180 241 CURVE SMOOTH",
"1180 174 OFFCURVE",
"1163 112 OFFCURVE",
"1131 65 CURVE SMOOTH",
"1099 18 OFFCURVE",
"1052 -12 OFFCURVE",
"992 -12 CURVE SMOOTH"
);
},
{
closed = 1;
nodes = (
"1049 38 OFFCURVE",
"1081 82 OFFCURVE",
"1096 154 CURVE SMOOTH",
"1110 222 LINE",
"1113 233 OFFCURVE",
"1114 248 OFFCURVE",
"1114 259 CURVE SMOOTH",
"1114 307 OFFCURVE",
"1092 334 OFFCURVE",
"1049 334 CURVE SMOOTH",
"998 334 OFFCURVE",
"966 290 OFFCURVE",
"951 218 CURVE SMOOTH",
"937 150 LINE",
"934 139 OFFCURVE",
"933 124 OFFCURVE",
"933 113 CURVE SMOOTH",
"933 65 OFFCURVE",
"955 38 OFFCURVE",
"998 38 CURVE SMOOTH"
);
}
);
width = 1262;
}
);
rightKerningGroup = perthousand;
unicode = 2030;
},
{
glyphname = bar;
layers = (
{
layerId = "92E619D5-181B-4123-A4FF-2530258B7CD2";
name = "Regular Italic";
paths = (
{
closed = 1;
nodes = (
"41 -138 LINE",
"222 760 LINE",
"288 760 LINE",
"107 -138 LINE"
);
}
);
width = 306;
}
);
unicode = 007C;
},
{
glyphname = brokenbar;
layers = (
{
layerId = "92E619D5-181B-4123-A4FF-2530258B7CD2";
name = "Regular Italic";
paths = (
{
closed = 1;
nodes = (
"150 406 LINE",
"222 760 LINE",
"288 760 LINE",
"216 406 LINE"
);
},
{
closed = 1;
nodes = (
"41 -138 LINE",
"113 216 LINE",
"179 216 LINE",
"107 -138 LINE"
);
}
);
width = 306;
}
);
unicode = 00A6;
},
{
glyphname = section;
layers = (
{
layerId = "92E619D5-181B-4123-A4FF-2530258B7CD2";
name = "Regular Italic";
paths = (
{
closed = 1;
nodes = (
"404 -31 OFFCURVE",
"380 -76 OFFCURVE",
"343 -107 CURVE SMOOTH",
"306 -138 OFFCURVE",
"253 -155 OFFCURVE",
"197 -155 CURVE SMOOTH",
"126 -155 OFFCURVE",
"66 -136 OFFCURVE",
"26 -96 CURVE",
"80 -42 LINE",
"108 -70 OFFCURVE",
"153 -87 OFFCURVE",
"204 -87 CURVE SMOOTH",
"236 -87 OFFCURVE",
"265 -77 OFFCURVE",
"288 -59 CURVE SMOOTH",
"311 -41 OFFCURVE",
"325 -17 OFFCURVE",
"325 15 CURVE SMOOTH",
"325 55 OFFCURVE",
"305 85 OFFCURVE",
"248 104 CURVE SMOOTH",
"189 124 LINE SMOOTH",
"101 155 OFFCURVE",
"67 194 OFFCURVE",
"67 254 CURVE SMOOTH",
"67 338 OFFCURVE",
"124 396 OFFCURVE",
"204 411 CURVE",
"205 420 LINE",
"168 449 OFFCURVE",
"153 488 OFFCURVE",
"153 531 CURVE SMOOTH",
"153 586 OFFCURVE",
"177 630 OFFCURVE",
"215 662 CURVE SMOOTH",
"253 693 OFFCURVE",
"304 710 OFFCURVE",
"360 710 CURVE SMOOTH",
"431 710 OFFCURVE",
"491 691 OFFCURVE",
"531 651 CURVE",
"477 597 LINE",
"449 625 OFFCURVE",
"404 642 OFFCURVE",
"353 642 CURVE SMOOTH",
"321 642 OFFCURVE",
"292 633 OFFCURVE",
"269 615 CURVE SMOOTH",
"246 597 OFFCURVE",
"232 572 OFFCURVE",
"232 540 CURVE SMOOTH",
"232 500 OFFCURVE",
"252 470 OFFCURVE",
"309 451 CURVE SMOOTH",
"368 431 LINE SMOOTH",
"456 400 OFFCURVE",
"490 361 OFFCURVE",
"490 301 CURVE SMOOTH",
"490 217 OFFCURVE",
"433 159 OFFCURVE",
"353 144 CURVE",
"352 135 LINE",
"389 106 OFFCURVE",
"404 67 OFFCURVE",
"404 24 CURVE SMOOTH"
);
},
{
closed = 1;
nodes = (
"410 329 OFFCURVE",
"382 353 OFFCURVE",
"317 374 CURVE SMOOTH",
"258 393 LINE SMOOTH",
"252 395 OFFCURVE",
"245 398 OFFCURVE",
"238 401 CURVE",
"179 378 OFFCURVE",
"147 329 OFFCURVE",
"147 282 CURVE SMOOTH",
"147 226 OFFCURVE",
"175 202 OFFCURVE",
"240 181 CURVE SMOOTH",
"299 162 LINE SMOOTH",
"305 160 OFFCURVE",
"312 157 OFFCURVE",
"319 154 CURVE",
"378 177 OFFCURVE",
"410 226 OFFCURVE",
"410 273 CURVE SMOOTH"
);
}
);
width = 557;
}
);
unicode = 00A7;
},
{
glyphname = paragraph;
layers = (
{
layerId = "92E619D5-181B-4123-A4FF-2530258B7CD2";
name = "Regular Italic";
paths = (
{
closed = 1;
nodes = (
"247 301 LINE",
"207 301 OFFCURVE",
"169 321 OFFCURVE",
"141 353 CURVE SMOOTH",
"113 385 OFFCURVE",
"96 428 OFFCURVE",
"96 475 CURVE SMOOTH",
"96 540 OFFCURVE",
"123 597 OFFCURVE",
"165 636 CURVE SMOOTH",
"207 675 OFFCURVE",
"263 698 OFFCURVE",
"326 698 CURVE SMOOTH",
"637 698 LINE",
"625 632 LINE",
"561 632 LINE",
"404 -149 LINE",
"333 -149 LINE",
"490 632 LINE",
"384 632 LINE",
"227 -149 LINE",
"156 -149 LINE"
);
}
);
width = 629;
}
);
unicode = 00B6;
},
{
glyphname = copyright;
layers = (
{
layerId = "92E619D5-181B-4123-A4FF-2530258B7CD2";
name = "Regular Italic";
paths = (
{
closed = 1;
nodes = (
"270 -12 OFFCURVE",
"198 19 OFFCURVE",
"147 73 CURVE SMOOTH",
"96 127 OFFCURVE",
"67 201 OFFCURVE",
"67 292 CURVE SMOOTH",
"67 412 OFFCURVE",
"110 516 OFFCURVE",
"180 590 CURVE SMOOTH",
"250 664 OFFCURVE",
"349 708 OFFCURVE",
"461 708 CURVE SMOOTH",
"549 708 OFFCURVE",
"621 678 OFFCURVE",
"672 624 CURVE SMOOTH",
"723 570 OFFCURVE",
"752 493 OFFCURVE",
"752 404 CURVE SMOOTH",
"752 284 OFFCURVE",
"710 181 OFFCURVE",
"640 107 CURVE SMOOTH",
"570 33 OFFCURVE",
"470 -12 OFFCURVE",
"358 -12 CURVE SMOOTH"
);
},
{
closed = 1;
nodes = (
"439 46 OFFCURVE",
"510 74 OFFCURVE",
"565 119 CURVE SMOOTH",
"620 164 OFFCURVE",
"660 227 OFFCURVE",
"673 296 CURVE SMOOTH",
"681 339 OFFCURVE",
"688 379 OFFCURVE",
"688 404 CURVE SMOOTH",
"688 479 OFFCURVE",
"664 540 OFFCURVE",
"623 583 CURVE SMOOTH",
"582 626 OFFCURVE",
"525 650 OFFCURVE",
"457 650 CURVE SMOOTH",
"380 650 OFFCURVE",
"309 622 OFFCURVE",
"254 577 CURVE SMOOTH",
"199 532 OFFCURVE",
"159 469 OFFCURVE",
"146 400 CURVE SMOOTH",
"138 357 OFFCURVE",
"131 317 OFFCURVE",
"131 292 CURVE SMOOTH",
"131 217 OFFCURVE",
"155 156 OFFCURVE",
"196 113 CURVE SMOOTH",
"237 70 OFFCURVE",
"294 46 OFFCURVE",
"362 46 CURVE SMOOTH"
);
},
{
closed = 1;
nodes = (
"299 155 OFFCURVE",
"250 209 OFFCURVE",
"250 301 CURVE SMOOTH",
"250 368 OFFCURVE",
"270 428 OFFCURVE",
"303 472 CURVE SMOOTH",
"335 516 OFFCURVE",
"383 543 OFFCURVE",
"439 543 CURVE SMOOTH",
"475 543 OFFCURVE",
"504 532 OFFCURVE",
"525 514 CURVE SMOOTH",
"546 496 OFFCURVE",
"561 472 OFFCURVE",
"568 447 CURVE",
"510 423 LINE",
"501 462 OFFCURVE",
"475 483 OFFCURVE",
"436 483 CURVE SMOOTH",
"380 483 OFFCURVE",
"348 439 OFFCURVE",
"336 379 CURVE SMOOTH",
"324 320 LINE SMOOTH",
"322 310 OFFCURVE",
"321 301 OFFCURVE",
"321 292 CURVE SMOOTH",
"321 247 OFFCURVE",
"345 216 OFFCURVE",
"388 216 CURVE SMOOTH",
"423 216 OFFCURVE",
"456 238 OFFCURVE",
"487 282 CURVE",
"535 244 LINE",
"500 193 OFFCURVE",
"448 155 OFFCURVE",
"380 155 CURVE SMOOTH"
);
}
);
width = 784;
}
);
leftKerningGroup = copyright;
unicode = 00A9;
},
{
glyphname = registered;
layers = (
{
layerId = "92E619D5-181B-4123-A4FF-2530258B7CD2";
name = "Regular Italic";
paths = (
{
closed = 1;
nodes = (
"215 298 OFFCURVE",
"171 317 OFFCURVE",
"140 349 CURVE SMOOTH",
"109 380 OFFCURVE",
"90 424 OFFCURVE",
"90 473 CURVE SMOOTH",
"90 541 OFFCURVE",
"113 601 OFFCURVE",
"151 643 CURVE SMOOTH",
"189 685 OFFCURVE",
"243 710 OFFCURVE",
"306 710 CURVE SMOOTH",
"354 710 OFFCURVE",
"398 691 OFFCURVE",
"429 660 CURVE SMOOTH",
"460 628 OFFCURVE",
"479 584 OFFCURVE",
"479 535 CURVE SMOOTH",
"479 467 OFFCURVE",
"457 408 OFFCURVE",
"419 366 CURVE SMOOTH",
"381 324 OFFCURVE",
"326 298 OFFCURVE",
"263 298 CURVE SMOOTH"
);
},
{
closed = 1;
nodes = (
"354 337 OFFCURVE",
"415 397 OFFCURVE",
"432 481 CURVE SMOOTH",
"435 496 OFFCURVE",
"437 525 OFFCURVE",
"437 532 CURVE SMOOTH",
"437 615 OFFCURVE",
"381 671 OFFCURVE",
"302 671 CURVE SMOOTH",
"215 671 OFFCURVE",
"154 611 OFFCURVE",
"137 527 CURVE SMOOTH",
"134 512 OFFCURVE",
"132 483 OFFCURVE",
"132 476 CURVE SMOOTH",
"132 393 OFFCURVE",
"188 337 OFFCURVE",
"267 337 CURVE SMOOTH"
);
},
{
closed = 1;
nodes = (
"232 400 LINE",
"193 400 LINE",
"235 609 LINE",
"317 609 LINE SMOOTH",
"354 609 OFFCURVE",
"372 584 OFFCURVE",
"372 556 CURVE SMOOTH",
"372 521 OFFCURVE",
"352 492 OFFCURVE",
"320 485 CURVE",
"350 400 LINE",
"309 400 LINE",
"283 481 LINE",
"248 481 LINE"
);
},
{
closed = 1;
nodes = (
"298 511 LINE SMOOTH",
"313 511 OFFCURVE",
"323 517 OFFCURVE",
"326 532 CURVE SMOOTH",
"328 542 OFFCURVE",
"329 549 OFFCURVE",
"330 553 CURVE",
"331 556 OFFCURVE",
"331 559 OFFCURVE",
"331 560 CURVE SMOOTH",
"331 571 OFFCURVE",
"325 576 OFFCURVE",
"312 576 CURVE SMOOTH",
"267 576 LINE",
"254 511 LINE"
);
}
);
width = 469;
}
);
leftKerningGroup = registered;
rightKerningGroup = registered;
unicode = 00AE;
},
{
glyphname = trademark;
layers = (
{
layerId = "92E619D5-181B-4123-A4FF-2530258B7CD2";
name = "Regular Italic";
paths = (
{
closed = 1;
nodes = (
"133 419 LINE",
"180 654 LINE",
"100 654 LINE",
"109 698 LINE",
"319 698 LINE",
"310 654 LINE",
"230 654 LINE",
"183 419 LINE"
);
},
{
closed = 1;
nodes = (
"313 419 LINE",
"369 698 LINE",
"426 698 LINE",
"460 565 LINE",
"463 565 LINE",
"551 698 LINE",
"615 698 LINE",
"559 419 LINE",
"513 419 LINE",
"538 545 LINE",
"556 628 LINE",
"552 628 LINE",
"447 473 LINE",
"404 628 LINE",
"400 628 LINE",
"384 542 LINE",
"359 419 LINE"
);
}
);
width = 587;
}
);
leftKerningGroup = trademark;
rightKerningGroup = trademark;
unicode = 2122;
},
{
glyphname = ordfeminine;
layers = (
{
layerId = "92E619D5-181B-4123-A4FF-2530258B7CD2";
name = "Regular Italic";
paths = (
{
closed = 1;
nodes = (
"370 357 LINE",
"337 357 LINE SMOOTH",
"301 357 OFFCURVE",
"287 372 OFFCURVE",
"287 397 CURVE SMOOTH",
"287 402 OFFCURVE",
"287 407 OFFCURVE",
"288 410 CURVE",
"284 410 LINE",
"264 379 OFFCURVE",
"224 349 OFFCURVE",
"168 349 CURVE SMOOTH",
"112 349 OFFCURVE",
"78 381 OFFCURVE",
"78 428 CURVE SMOOTH",
"78 509 OFFCURVE",
"137 551 OFFCURVE",
"242 551 CURVE SMOOTH",
"312 551 LINE",
"317 576 LINE SMOOTH",
"318 581 OFFCURVE",
"319 586 OFFCURVE",
"319 591 CURVE SMOOTH",
"319 595 OFFCURVE",
"319 599 OFFCURVE",
"319 604 CURVE SMOOTH",
"319 641 OFFCURVE",
"298 659 OFFCURVE",
"257 659 CURVE SMOOTH",
"216 659 OFFCURVE",
"180 638 OFFCURVE",
"159 607 CURVE",
"123 641 LINE",
"151 677 OFFCURVE",
"201 710 OFFCURVE",
"265 710 CURVE SMOOTH",
"336 710 OFFCURVE",
"380 676 OFFCURVE",
"380 605 CURVE SMOOTH",
"380 592 OFFCURVE",
"379 579 OFFCURVE",
"376 566 CURVE SMOOTH",
"345 412 LINE",
"381 412 LINE"
);
},
{
closed = 1;
nodes = (
"232 507 LINE SMOOTH",
"180 507 OFFCURVE",
"150 490 OFFCURVE",
"143 459 CURVE SMOOTH",
"140 446 OFFCURVE",
"139 438 OFFCURVE",
"139 435 CURVE SMOOTH",
"139 411 OFFCURVE",
"156 399 OFFCURVE",
"189 399 CURVE SMOOTH",
"240 399 OFFCURVE",
"287 427 OFFCURVE",
"295 467 CURVE SMOOTH",
"303 507 LINE"
);
}
);
width = 390;
}
);
unicode = 00AA;
},
{
glyphname = ordmasculine;
layers = (
{
layerId = "92E619D5-181B-4123-A4FF-2530258B7CD2";
name = "Regular Italic";
paths = (
{
closed = 1;
nodes = (
"144 350 OFFCURVE",
"94 406 OFFCURVE",
"94 482 CURVE SMOOTH",
"94 539 OFFCURVE",
"109 596 OFFCURVE",
"139 639 CURVE SMOOTH",
"169 682 OFFCURVE",
"213 710 OFFCURVE",
"276 710 CURVE SMOOTH",
"353 710 OFFCURVE",
"403 654 OFFCURVE",
"403 578 CURVE SMOOTH",
"403 521 OFFCURVE",
"389 464 OFFCURVE",
"359 421 CURVE SMOOTH",
"329 378 OFFCURVE",
"282 350 OFFCURVE",
"221 350 CURVE SMOOTH"
);
},
{
closed = 1;
nodes = (
"281 401 OFFCURVE",
"314 443 OFFCURVE",
"326 499 CURVE SMOOTH",
"338 557 LINE",
"341 568 OFFCURVE",
"342 577 OFFCURVE",
"342 586 CURVE SMOOTH",
"342 630 OFFCURVE",
"316 659 OFFCURVE",
"268 659 CURVE SMOOTH",
"216 659 OFFCURVE",
"183 617 OFFCURVE",
"171 561 CURVE SMOOTH",
"159 503 LINE",
"156 492 OFFCURVE",
"155 483 OFFCURVE",
"155 474 CURVE SMOOTH",
"155 430 OFFCURVE",
"181 401 OFFCURVE",
"229 401 CURVE SMOOTH"
);
}
);
width = 389;
}
);
unicode = 00BA;
},
{
glyphname = degree;
layers = (
{
layerId = "92E619D5-181B-4123-A4FF-2530258B7CD2";
name = "Regular Italic";
paths = (
{
closed = 1;
nodes = (
"223 366 OFFCURVE",
"187 381 OFFCURVE",
"161 408 CURVE SMOOTH",
"135 435 OFFCURVE",
"119 472 OFFCURVE",
"119 517 CURVE SMOOTH",
"119 572 OFFCURVE",
"138 620 OFFCURVE",
"171 655 CURVE SMOOTH",
"203 690 OFFCURVE",
"248 710 OFFCURVE",
"303 710 CURVE SMOOTH",
"343 710 OFFCURVE",
"379 695 OFFCURVE",
"405 669 CURVE SMOOTH",
"431 643 OFFCURVE",
"447 604 OFFCURVE",
"447 560 CURVE SMOOTH",
"447 504 OFFCURVE",
"428 456 OFFCURVE",
"396 421 CURVE SMOOTH",
"363 386 OFFCURVE",
"316 366 OFFCURVE",
"263 366 CURVE SMOOTH"
);
},
{
closed = 1;
nodes = (
"305 430 OFFCURVE",
"331 444 OFFCURVE",
"350 467 CURVE SMOOTH",
"369 490 OFFCURVE",
"379 522 OFFCURVE",
"379 557 CURVE SMOOTH",
"379 606 OFFCURVE",
"346 646 OFFCURVE",
"294 646 CURVE SMOOTH",
"261 646 OFFCURVE",
"235 632 OFFCURVE",
"216 609 CURVE SMOOTH",
"197 585 OFFCURVE",
"187 554 OFFCURVE",
"187 519 CURVE SMOOTH",
"187 470 OFFCURVE",
"220 430 OFFCURVE",
"272 430 CURVE SMOOTH"
);
}
);
width = 454;
}
);
unicode = 00B0;
},
{
glyphname = asterisk;
layers = (
{
layerId = "92E619D5-181B-4123-A4FF-2530258B7CD2";
name = "Regular Italic";
paths = (
{
closed = 1;
nodes = (
"172 380 LINE",
"120 425 LINE",
"237 545 LINE",
"103 583 LINE",
"134 648 LINE",
"261 595 LINE",
"286 747 LINE",
"354 747 LINE",
"319 595 LINE",
"462 647 LINE",
"474 583 LINE",
"326 542 LINE",
"394 424 LINE",
"336 385 LINE",
"277 512 LINE"
);
}
);
width = 452;
}
);
leftKerningGroup = quotesingle;
rightKerningGroup = quotesingle;
unicode = 002A;
},
{
glyphname = dagger;
layers = (
{
layerId = "92E619D5-181B-4123-A4FF-2530258B7CD2";
name = "Regular Italic";
paths = (
{
closed = 1;
nodes = (
"140 -200 LINE",
"271 454 LINE",
"88 454 LINE",
"100 516 LINE",
"283 516 LINE",
"328 740 LINE",
"394 740 LINE",
"349 516 LINE",
"533 516 LINE",
"521 453 LINE",
"336 453 LINE",
"206 -200 LINE"
);
}
);
width = 534;
}
);
unicode = 2020;
},
{
glyphname = daggerdbl;
layers = (
{
layerId = "92E619D5-181B-4123-A4FF-2530258B7CD2";
name = "Regular Italic";
paths = (
{
closed = 1;
nodes = (
"143 -200 LINE",
"188 24 LINE",
"4 24 LINE",
"16 87 LINE",
"200 87 LINE",
"273 453 LINE",
"91 453 LINE",
"103 516 LINE",
"286 516 LINE",
"331 740 LINE",
"397 740 LINE",
"352 516 LINE",
"536 516 LINE",
"524 453 LINE",
"340 453 LINE",
"266 87 LINE",
"449 87 LINE",
"437 24 LINE",
"254 24 LINE",
"209 -200 LINE"
);
}
);
width = 534;
}
);
unicode = 2021;
},
{
glyphname = numbersign;
layers = (
{
layerId = "92E619D5-181B-4123-A4FF-2530258B7CD2";
name = "Regular Italic";
paths = (
{
closed = 1;
nodes = (
"374 205 LINE",
"241 205 LINE",
"165 0 LINE",
"98 0 LINE",
"174 205 LINE",
"47 205 LINE",
"58 263 LINE",
"195 263 LINE",
"257 435 LINE",
"131 435 LINE",
"142 493 LINE",
"279 493 LINE",
"354 698 LINE",
"421 698 LINE",
"346 493 LINE",
"479 493 LINE",
"554 698 LINE",
"621 698 LINE",
"546 493 LINE",
"672 493 LINE",
"661 435 LINE",
"524 435 LINE",
"462 263 LINE",
"588 263 LINE",
"577 205 LINE",
"441 205 LINE",
"365 0 LINE",
"298 0 LINE"
);
},
{
closed = 1;
nodes = (
"395 263 LINE",
"457 435 LINE",
"324 435 LINE",
"262 263 LINE"
);
}
);
width = 681;
}
);
unicode = 0023;
},
{
glyphname = asciicircum;
layers = (
{
layerId = "92E619D5-181B-4123-A4FF-2530258B7CD2";
name = "Regular Italic";
paths = (
{
closed = 1;
nodes = (
"493 296 LINE",
"378 621 LINE",
"374 621 LINE",
"130 296 LINE",
"74 331 LINE",
"344 698 LINE",
"429 698 LINE",
"555 325 LINE"
);
}
);
width = 600;
}
);
unicode = 005E;
},
{
glyphname = asciitilde;
layers = (
{
layerId = "92E619D5-181B-4123-A4FF-2530258B7CD2";
name = "Regular Italic";
paths = (
{
closed = 1;
nodes = (
"365 236 OFFCURVE",
"335 251 OFFCURVE",
"295 274 CURVE SMOOTH",
"263 293 OFFCURVE",
"234 308 OFFCURVE",
"194 308 CURVE SMOOTH",
"163 308 OFFCURVE",
"139 297 OFFCURVE",
"106 274 CURVE",
"82 320 LINE",
"114 352 OFFCURVE",
"149 374 OFFCURVE",
"209 374 CURVE SMOOTH",
"254 374 OFFCURVE",
"284 359 OFFCURVE",
"324 336 CURVE SMOOTH",
"356 317 OFFCURVE",
"385 302 OFFCURVE",
"425 302 CURVE SMOOTH",
"456 302 OFFCURVE",
"480 313 OFFCURVE",
"513 336 CURVE",
"537 290 LINE",
"505 258 OFFCURVE",
"470 236 OFFCURVE",
"410 236 CURVE SMOOTH"
);
}
);
width = 600;
}
);
unicode = 007E;
},
{
glyphname = plus;
layers = (
{
layerId = "92E619D5-181B-4123-A4FF-2530258B7CD2";
name = "Regular Italic";
paths = (
{
closed = 1;
nodes = (
"225 62 LINE",
"267 272 LINE",
"78 272 LINE",
"91 338 LINE",
"281 338 LINE",
"323 548 LINE",
"396 548 LINE",
"354 338 LINE",
"541 338 LINE",
"528 272 LINE",
"340 272 LINE",
"298 62 LINE"
);
}
);
width = 600;
}
);
unicode = 002B;
},
{
glyphname = minus;
layers = (
{
layerId = "92E619D5-181B-4123-A4FF-2530258B7CD2";
name = "Regular Italic";
paths = (
{
closed = 1;
nodes = (
"78 272 LINE",
"91 338 LINE",
"541 338 LINE",
"528 272 LINE"
);
}
);
width = 600;
}
);
unicode = 2212;
},
{
glyphname = plusminus;
layers = (
{
layerId = "92E619D5-181B-4123-A4FF-2530258B7CD2";
name = "Regular Italic";
paths = (
{
closed = 1;
nodes = (
"244 153 LINE",
"284 353 LINE",
"94 353 LINE",
"107 419 LINE",
"297 419 LINE",
"337 619 LINE",
"410 619 LINE",
"370 419 LINE",
"557 419 LINE",
"544 353 LINE",
"357 353 LINE",
"317 153 LINE"
);
},
{
closed = 1;
nodes = (
"24 0 LINE",
"37 66 LINE",
"487 66 LINE",
"474 0 LINE"
);
}
);
width = 600;
}
);
unicode = 00B1;
},
{
glyphname = multiply;
layers = (
{
layerId = "92E619D5-181B-4123-A4FF-2530258B7CD2";
name = "Regular Italic";
paths = (
{
closed = 1;
nodes = (
"302 255 LINE",
"117 92 LINE",
"76 146 LINE",
"262 309 LINE",
"141 471 LINE",
"195 518 LINE",
"316 356 LINE",
"501 518 LINE",
"542 464 LINE",
"356 302 LINE",
"476 140 LINE",
"422 93 LINE"
);
}
);
width = 600;
}
);
unicode = 00D7;
},
{
glyphname = divide;
layers = (
{
layerId = "92E619D5-181B-4123-A4FF-2530258B7CD2";
name = "Regular Italic";
paths = (
{
closed = 1;
nodes = (
"77 273 LINE",
"91 339 LINE",
"541 339 LINE",
"527 273 LINE"
);
},
{
closed = 1;
nodes = (
"227 54 OFFCURVE",
"213 68 OFFCURVE",
"213 92 CURVE SMOOTH",
"213 100 OFFCURVE",
"214 109 OFFCURVE",
"217 120 CURVE",
"224 155 OFFCURVE",
"243 172 OFFCURVE",
"282 172 CURVE SMOOTH",
"318 172 OFFCURVE",
"332 158 OFFCURVE",
"332 134 CURVE SMOOTH",
"332 126 OFFCURVE",
"331 117 OFFCURVE",
"328 106 CURVE",
"321 71 OFFCURVE",
"302 54 OFFCURVE",
"263 54 CURVE SMOOTH"
);
},
{
closed = 1;
nodes = (
"302 440 OFFCURVE",
"288 454 OFFCURVE",
"288 478 CURVE SMOOTH",
"288 486 OFFCURVE",
"289 495 OFFCURVE",
"292 506 CURVE",
"299 541 OFFCURVE",
"318 558 OFFCURVE",
"357 558 CURVE SMOOTH",
"393 558 OFFCURVE",
"407 544 OFFCURVE",
"407 520 CURVE SMOOTH",
"407 512 OFFCURVE",
"406 503 OFFCURVE",
"403 492 CURVE",
"396 457 OFFCURVE",
"377 440 OFFCURVE",
"338 440 CURVE SMOOTH"
);
}
);
width = 600;
}
);
unicode = 00F7;
},
{
glyphname = equal;
layers = (
{
layerId = "92E619D5-181B-4123-A4FF-2530258B7CD2";
name = "Regular Italic";
paths = (
{
closed = 1;
nodes = (
"98 374 LINE",
"111 440 LINE",
"561 440 LINE",
"548 374 LINE"
);
},
{
closed = 1;
nodes = (
"58 172 LINE",
"71 238 LINE",
"521 238 LINE",
"508 172 LINE"
);
}
);
width = 600;
}
);
unicode = 003D;
},
{
glyphname = approxequal;
layers = (
{
layerId = "92E619D5-181B-4123-A4FF-2530258B7CD2";
name = "Regular Italic";
paths = (
{
closed = 1;
nodes = (
"385 337 OFFCURVE",
"355 352 OFFCURVE",
"315 375 CURVE SMOOTH",
"283 394 OFFCURVE",
"254 409 OFFCURVE",
"214 409 CURVE SMOOTH",
"183 409 OFFCURVE",
"159 398 OFFCURVE",
"126 375 CURVE",
"102 421 LINE",
"134 453 OFFCURVE",
"169 475 OFFCURVE",
"229 475 CURVE SMOOTH",
"274 475 OFFCURVE",
"304 460 OFFCURVE",
"344 437 CURVE SMOOTH",
"376 418 OFFCURVE",
"405 403 OFFCURVE",
"445 403 CURVE SMOOTH",
"476 403 OFFCURVE",
"500 414 OFFCURVE",
"533 437 CURVE",
"557 391 LINE",
"525 359 OFFCURVE",
"490 337 OFFCURVE",
"430 337 CURVE SMOOTH"
);
},
{
closed = 1;
nodes = (
"346 137 OFFCURVE",
"316 152 OFFCURVE",
"276 175 CURVE SMOOTH",
"244 194 OFFCURVE",
"215 209 OFFCURVE",
"175 209 CURVE SMOOTH",
"144 209 OFFCURVE",
"120 198 OFFCURVE",
"87 175 CURVE",
"63 221 LINE",
"95 253 OFFCURVE",
"130 275 OFFCURVE",
"190 275 CURVE SMOOTH",
"235 275 OFFCURVE",
"265 260 OFFCURVE",
"305 237 CURVE SMOOTH",
"337 218 OFFCURVE",
"366 203 OFFCURVE",
"406 203 CURVE SMOOTH",
"437 203 OFFCURVE",
"461 214 OFFCURVE",
"494 237 CURVE",
"518 191 LINE",
"486 159 OFFCURVE",
"451 137 OFFCURVE",
"391 137 CURVE SMOOTH"
);
}
);
width = 600;
}
);
unicode = 2248;
},
{
glyphname = notequal;
layers = (
{
layerId = "92E619D5-181B-4123-A4FF-2530258B7CD2";
name = "Regular Italic";
paths = (
{
closed = 1;
nodes = (
"107 72 LINE",
"178 172 LINE",
"58 172 LINE",
"71 238 LINE",
"225 238 LINE",
"322 374 LINE",
"98 374 LINE",
"111 440 LINE",
"369 440 LINE",
"440 540 LINE",
"513 540 LINE",
"442 440 LINE",
"561 440 LINE",
"548 374 LINE",
"395 374 LINE",
"298 238 LINE",
"521 238 LINE",
"508 172 LINE",
"251 172 LINE",
"180 72 LINE"
);
}
);
width = 600;
}
);
unicode = 2260;
},
{
glyphname = less;
layers = (
{
layerId = "92E619D5-181B-4123-A4FF-2530258B7CD2";
name = "Regular Italic";
paths = (
{
closed = 1;
nodes = (
"94 242 LINE",
"109 318 LINE",
"565 567 LINE",
"548 480 LINE",
"175 281 LINE",
"173 273 LINE",
"466 68 LINE",
"450 -12 LINE"
);
}
);
width = 600;
}
);
unicode = 003C;
},
{
glyphname = greater;
layers = (
{
layerId = "92E619D5-181B-4123-A4FF-2530258B7CD2";
name = "Regular Italic";
paths = (
{
closed = 1;
nodes = (
"62 75 LINE",
"435 279 LINE",
"437 287 LINE",
"144 486 LINE",
"160 566 LINE",
"516 318 LINE",
"501 242 LINE",
"45 -12 LINE"
);
}
);
width = 600;
}
);
unicode = 003E;
},
{
glyphname = lessequal;
layers = (
{
layerId = "92E619D5-181B-4123-A4FF-2530258B7CD2";
name = "Regular Italic";
paths = (
{
closed = 1;
nodes = (
"45 0 LINE",
"59 66 LINE",
"465 66 LINE",
"451 0 LINE"
);
},
{
closed = 1;
nodes = (
"553 507 LINE",
"190 357 LINE",
"189 350 LINE",
"492 199 LINE",
"476 122 LINE",
"108 314 LINE",
"126 401 LINE",
"570 592 LINE"
);
}
);
width = 600;
}
);
unicode = 2264;
},
{
glyphname = greaterequal;
layers = (
{
layerId = "92E619D5-181B-4123-A4FF-2530258B7CD2";
name = "Regular Italic";
paths = (
{
closed = 1;
nodes = (
"87 207 LINE",
"450 358 LINE",
"451 365 LINE",
"148 515 LINE",
"164 592 LINE",
"532 401 LINE",
"514 314 LINE",
"70 122 LINE"
);
},
{
closed = 1;
nodes = (
"59 66 LINE",
"465 66 LINE",
"451 0 LINE",
"45 0 LINE"
);
}
);
width = 600;
}
);
unicode = 2265;
},
{
glyphname = periodcentered;
layers = (
{
layerId = "92E619D5-181B-4123-A4FF-2530258B7CD2";
name = "Regular Italic";
paths = (
{
closed = 1;
nodes = (
"117 240 OFFCURVE",
"98 253 OFFCURVE",
"98 280 CURVE SMOOTH",
"98 289 OFFCURVE",
"99 303 OFFCURVE",
"102 314 CURVE",
"107 341 OFFCURVE",
"122 369 OFFCURVE",
"167 369 CURVE SMOOTH",
"199 369 OFFCURVE",
"218 356 OFFCURVE",
"218 329 CURVE SMOOTH",
"218 320 OFFCURVE",
"217 306 OFFCURVE",
"214 295 CURVE",
"211 282 OFFCURVE",
"207 268 OFFCURVE",
"197 258 CURVE SMOOTH",
"187 248 OFFCURVE",
"172 240 OFFCURVE",
"149 240 CURVE SMOOTH"
);
}
);
width = 316;
}
);
unicode = 00B7;
},
{
glyphname = bullet;
layers = (
{
layerId = "92E619D5-181B-4123-A4FF-2530258B7CD2";
name = "Regular Italic";
paths = (
{
closed = 1;
nodes = (
"113 186 OFFCURVE",
"81 217 OFFCURVE",
"81 264 CURVE SMOOTH",
"81 267 OFFCURVE",
"82 274 OFFCURVE",
"83 284 CURVE SMOOTH",
"84 294 OFFCURVE",
"86 306 OFFCURVE",
"89 321 CURVE SMOOTH",
"101 381 OFFCURVE",
"138 422 OFFCURVE",
"221 422 CURVE SMOOTH",
"289 422 OFFCURVE",
"321 391 OFFCURVE",
"321 344 CURVE SMOOTH",
"321 341 OFFCURVE",
"321 334 OFFCURVE",
"320 324 CURVE SMOOTH",
"319 314 OFFCURVE",
"316 302 OFFCURVE",
"313 287 CURVE SMOOTH",
"301 227 OFFCURVE",
"264 186 OFFCURVE",
"181 186 CURVE SMOOTH"
);
}
);
width = 386;
}
);
unicode = 2022;
},
{
glyphname = lozenge;
layers = (
{
layerId = "92E619D5-181B-4123-A4FF-2530258B7CD2";
name = "Regular Italic";
paths = (
{
closed = 1;
nodes = (
"213 0 LINE",
"76 351 LINE",
"348 698 LINE",
"425 698 LINE",
"562 347 LINE",
"290 0 LINE"
);
},
{
closed = 1;
nodes = (
"266 77 LINE",
"483 353 LINE",
"379 621 LINE",
"372 621 LINE",
"155 345 LINE",
"259 77 LINE"
);
}
);
width = 600;
}
);
unicode = 25CA;
},
{
glyphname = logicalnot;
layers = (
{
layerId = "92E619D5-181B-4123-A4FF-2530258B7CD2";
name = "Regular Italic";
paths = (
{
closed = 1;
nodes = (
"423 78 LINE",
"462 273 LINE",
"68 273 LINE",
"82 339 LINE",
"542 339 LINE",
"490 78 LINE"
);
}
);
width = 600;
}
);
unicode = 00AC;
},
{
glyphname = radical;
layers = (
{
layerId = "92E619D5-181B-4123-A4FF-2530258B7CD2";
name = "Regular Italic";
paths = (
{
closed = 1;
nodes = (
"193 0 LINE",
"164 454 LINE",
"69 454 LINE",
"82 516 LINE",
"232 516 LINE",
"242 350 LINE",
"258 66 LINE",
"263 66 LINE",
"393 350 LINE",
"557 698 LINE",
"636 698 LINE",
"303 0 LINE"
);
}
);
width = 582;
}
);
unicode = 221A;
},
{
glyphname = integral;
layers = (
{
layerId = "92E619D5-181B-4123-A4FF-2530258B7CD2";
name = "Regular Italic";
paths = (
{
closed = 1;
nodes = (
"-21 -132 LINE",
"94 -132 LINE",
"245 621 LINE SMOOTH",
"260 692 OFFCURVE",
"292 740 OFFCURVE",
"372 740 CURVE SMOOTH",
"461 740 LINE",
"447 672 LINE",
"332 672 LINE",
"180 -83 LINE SMOOTH",
"165 -154 OFFCURVE",
"133 -200 OFFCURVE",
"54 -200 CURVE SMOOTH",
"-35 -200 LINE"
);
}
);
width = 420;
}
);
unicode = 222B;
},
{
glyphname = infinity;
layers = (
{
layerId = "92E619D5-181B-4123-A4FF-2530258B7CD2";
name = "Regular Italic";
paths = (
{
closed = 1;
nodes = (
"69 115 OFFCURVE",
"16 160 OFFCURVE",
"16 256 CURVE SMOOTH",
"16 321 OFFCURVE",
"36 381 OFFCURVE",
"73 425 CURVE SMOOTH",
"110 468 OFFCURVE",
"165 495 OFFCURVE",
"234 495 CURVE SMOOTH",
"269 495 OFFCURVE",
"304 488 OFFCURVE",
"333 468 CURVE",
"361 447 OFFCURVE",
"383 413 OFFCURVE",
"391 358 CURVE",
"395 358 LINE",
"436 458 OFFCURVE",
"501 495 OFFCURVE",
"578 495 CURVE SMOOTH",
"675 495 OFFCURVE",
"728 449 OFFCURVE",
"728 353 CURVE SMOOTH",
"728 288 OFFCURVE",
"708 228 OFFCURVE",
"671 185 CURVE SMOOTH",
"634 142 OFFCURVE",
"579 115 OFFCURVE",
"510 115 CURVE SMOOTH",
"475 115 OFFCURVE",
"440 122 OFFCURVE",
"412 142 CURVE SMOOTH",
"383 162 OFFCURVE",
"361 196 OFFCURVE",
"353 251 CURVE",
"349 251 LINE",
"309 152 OFFCURVE",
"243 115 OFFCURVE",
"166 115 CURVE SMOOTH"
);
},
{
closed = 1;
nodes = (
"246 181 OFFCURVE",
"294 216 OFFCURVE",
"338 305 CURVE",
"331 385 OFFCURVE",
"305 429 OFFCURVE",
"237 429 CURVE SMOOTH",
"172 429 OFFCURVE",
"123 396 OFFCURVE",
"104 324 CURVE SMOOTH",
"93 285 OFFCURVE",
"92 273 OFFCURVE",
"92 257 CURVE SMOOTH",
"92 206 OFFCURVE",
"123 181 OFFCURVE",
"178 181 CURVE SMOOTH"
);
},
{
closed = 1;
nodes = (
"572 181 OFFCURVE",
"621 213 OFFCURVE",
"640 285 CURVE SMOOTH",
"651 324 OFFCURVE",
"652 336 OFFCURVE",
"652 352 CURVE SMOOTH",
"652 404 OFFCURVE",
"621 429 OFFCURVE",
"566 429 CURVE SMOOTH",
"498 429 OFFCURVE",
"450 395 OFFCURVE",
"406 304 CURVE",
"413 225 OFFCURVE",
"439 181 OFFCURVE",
"507 181 CURVE SMOOTH"
);
}
);
width = 730;
}
);
unicode = 221E;
},
{
glyphname = uni212E;
layers = (
{
layerId = "92E619D5-181B-4123-A4FF-2530258B7CD2";
name = "Regular Italic";
paths = (
{
closed = 1;
nodes = (
"180 109 LINE",
"223 69 OFFCURVE",
"283 39 OFFCURVE",
"363 39 CURVE SMOOTH",
"483 39 OFFCURVE",
"559 99 OFFCURVE",
"607 188 CURVE",
"653 163 LINE",
"626 112 OFFCURVE",
"589 69 OFFCURVE",
"541 38 CURVE SMOOTH",
"493 6 OFFCURVE",
"434 -12 OFFCURVE",
"363 -12 CURVE SMOOTH",
"268 -12 OFFCURVE",
"188 23 OFFCURVE",
"129 86 CURVE SMOOTH",
"70 149 OFFCURVE",
"36 238 OFFCURVE",
"36 349 CURVE SMOOTH",
"36 458 OFFCURVE",
"70 549 OFFCURVE",
"129 612 CURVE SMOOTH",
"188 675 OFFCURVE",
"268 710 OFFCURVE",
"363 710 CURVE SMOOTH",
"456 710 OFFCURVE",
"538 675 OFFCURVE",
"597 612 CURVE SMOOTH",
"656 549 OFFCURVE",
"690 458 OFFCURVE",
"690 349 CURVE",
"180 349 LINE"
);
},
{
closed = 1;
nodes = (
"546 397 LINE",
"546 592 LINE",
"503 632 OFFCURVE",
"443 662 OFFCURVE",
"363 662 CURVE SMOOTH",
"283 662 OFFCURVE",
"223 632 OFFCURVE",
"180 592 CURVE",
"180 397 LINE"
);
}
);
width = 726;
}
);
unicode = 212E;
},
{
glyphname = uni2113;
layers = (
{
layerId = "92E619D5-181B-4123-A4FF-2530258B7CD2";
name = "Regular Italic";
paths = (
{
closed = 1;
nodes = (
"173 -12 OFFCURVE",
"122 58 OFFCURVE",
"122 159 CURVE SMOOTH",
"122 171 LINE",
"103 156 OFFCURVE",
"86 145 OFFCURVE",
"67 133 CURVE",
"34 185 LINE",
"48 194 OFFCURVE",
"63 204 OFFCURVE",
"78 214 CURVE",
"93 223 OFFCURVE",
"107 233 OFFCURVE",
"120 244 CURVE",
"120 561 LINE SMOOTH",
"120 633 OFFCURVE",
"135 681 OFFCURVE",
"160 711 CURVE SMOOTH",
"184 741 OFFCURVE",
"220 752 OFFCURVE",
"260 752 CURVE SMOOTH",
"352 752 OFFCURVE",
"400 693 OFFCURVE",
"400 584 CURVE SMOOTH",
"400 453 OFFCURVE",
"328 344 OFFCURVE",
"197 224 CURVE",
"197 178 LINE SMOOTH",
"197 90 OFFCURVE",
"227 56 OFFCURVE",
"279 56 CURVE SMOOTH",
"340 56 OFFCURVE",
"376 101 OFFCURVE",
"404 162 CURVE",
"459 128 LINE",
"442 89 OFFCURVE",
"419 54 OFFCURVE",
"388 29 CURVE SMOOTH",
"357 4 OFFCURVE",
"319 -12 OFFCURVE",
"272 -12 CURVE SMOOTH"
);
},
{
closed = 1;
nodes = (
"244 687 OFFCURVE",
"228 681 OFFCURVE",
"216 663 CURVE SMOOTH",
"204 645 OFFCURVE",
"197 615 OFFCURVE",
"197 568 CURVE SMOOTH",
"197 308 LINE",
"281 396 OFFCURVE",
"326 485 OFFCURVE",
"326 574 CURVE SMOOTH",
"326 591 LINE SMOOTH",
"326 660 OFFCURVE",
"302 687 OFFCURVE",
"263 687 CURVE SMOOTH"
);
}
);
width = 488;
}
);
unicode = 2113;
},
{
glyphname = uni2116;
layers = (
{
layerId = "92E619D5-181B-4123-A4FF-2530258B7CD2";
name = "Regular Italic";
paths = (
{
closed = 1;
nodes = (
"783 364 OFFCURVE",
"751 378 OFFCURVE",
"728 402 CURVE",
"704 425 OFFCURVE",
"690 457 OFFCURVE",
"690 496 CURVE SMOOTH",
"690 549 OFFCURVE",
"705 603 OFFCURVE",
"736 643 CURVE SMOOTH",
"767 683 OFFCURVE",
"814 710 OFFCURVE",
"877 710 CURVE SMOOTH",
"914 710 OFFCURVE",
"946 696 OFFCURVE",
"970 673 CURVE",
"993 649 OFFCURVE",
"1007 616 OFFCURVE",
"1007 577 CURVE SMOOTH",
"1007 524 OFFCURVE",
"992 470 OFFCURVE",
"961 430 CURVE SMOOTH",
"929 390 OFFCURVE",
"883 364 OFFCURVE",
"820 364 CURVE SMOOTH"
);
},
{
closed = 1;
nodes = (
"39 0 LINE",
"179 698 LINE",
"267 698 LINE",
"408 279 LINE",
"458 114 LINE",
"462 114 LINE",
"578 698 LINE",
"653 698 LINE",
"513 0 LINE",
"425 0 LINE",
"285 412 LINE",
"234 584 LINE",
"230 584 LINE",
"114 0 LINE"
);
},
{
closed = 1;
nodes = (
"881 415 OFFCURVE",
"915 451 OFFCURVE",
"930 522 CURVE SMOOTH",
"937 556 LINE",
"940 567 OFFCURVE",
"940 571 OFFCURVE",
"940 580 CURVE SMOOTH",
"940 628 OFFCURVE",
"915 659 OFFCURVE",
"867 659 CURVE SMOOTH",
"816 659 OFFCURVE",
"782 622 OFFCURVE",
"767 551 CURVE SMOOTH",
"760 517 LINE",
"757 506 OFFCURVE",
"757 502 OFFCURVE",
"757 493 CURVE SMOOTH",
"757 445 OFFCURVE",
"782 415 OFFCURVE",
"830 415 CURVE SMOOTH"
);
},
{
closed = 1;
nodes = (
"657 244 LINE",
"670 308 LINE",
"934 308 LINE",
"921 244 LINE"
);
}
);
width = 992;
}
);
unicode = 2116;
},
{
glyphname = partialdiff;
layers = (
{
layerId = "92E619D5-181B-4123-A4FF-2530258B7CD2";
name = "Regular Italic";
paths = (
{
closed = 1;
nodes = (
"177 -12 OFFCURVE",
"131 10 OFFCURVE",
"99 47 CURVE SMOOTH",
"67 83 OFFCURVE",
"49 135 OFFCURVE",
"49 198 CURVE SMOOTH",
"49 279 OFFCURVE",
"75 356 OFFCURVE",
"119 412 CURVE SMOOTH",
"162 468 OFFCURVE",
"222 504 OFFCURVE",
"293 504 CURVE SMOOTH",
"365 504 OFFCURVE",
"411 470 OFFCURVE",
"430 413 CURVE",
"435 415 LINE",
"430 470 OFFCURVE",
"404 525 OFFCURVE",
"367 574 CURVE SMOOTH",
"330 623 OFFCURVE",
"280 666 OFFCURVE",
"228 698 CURVE",
"337 698 LINE",
"374 670 OFFCURVE",
"418 627 OFFCURVE",
"452 571 CURVE SMOOTH",
"486 514 OFFCURVE",
"511 441 OFFCURVE",
"511 356 CURVE SMOOTH",
"511 245 OFFCURVE",
"483 153 OFFCURVE",
"435 89 CURVE SMOOTH",
"387 25 OFFCURVE",
"319 -12 OFFCURVE",
"236 -12 CURVE SMOOTH"
);
},
{
closed = 1;
nodes = (
"288 56 OFFCURVE",
"323 72 OFFCURVE",
"351 99 CURVE SMOOTH",
"378 126 OFFCURVE",
"398 165 OFFCURVE",
"407 210 CURVE SMOOTH",
"418 265 LINE SMOOTH",
"423 292 OFFCURVE",
"425 304 OFFCURVE",
"425 319 CURVE SMOOTH",
"425 394 OFFCURVE",
"378 437 OFFCURVE",
"301 437 CURVE SMOOTH",
"262 437 OFFCURVE",
"227 421 OFFCURVE",
"200 394 CURVE SMOOTH",
"172 367 OFFCURVE",
"152 328 OFFCURVE",
"143 283 CURVE SMOOTH",
"132 228 LINE SMOOTH",
"127 201 OFFCURVE",
"125 189 OFFCURVE",
"125 174 CURVE SMOOTH",
"125 99 OFFCURVE",
"172 56 OFFCURVE",
"249 56 CURVE SMOOTH"
);
}
);
width = 563;
}
);
unicode = 2202;
},
{
glyphname = cent;
layers = (
{
layerId = "92E619D5-181B-4123-A4FF-2530258B7CD2";
name = "Regular Italic";
paths = (
{
closed = 1;
nodes = (
"178 -4 LINE",
"97 19 OFFCURVE",
"49 92 OFFCURVE",
"49 200 CURVE SMOOTH",
"49 284 OFFCURVE",
"71 363 OFFCURVE",
"112 422 CURVE SMOOTH",
"152 481 OFFCURVE",
"211 521 OFFCURVE",
"284 526 CURVE",
"305 630 LINE",
"373 630 LINE",
"351 522 LINE",
"415 507 OFFCURVE",
"455 467 OFFCURVE",
"475 408 CURVE",
"408 377 LINE",
"395 420 OFFCURVE",
"374 444 OFFCURVE",
"335 455 CURVE",
"256 55 LINE",
"304 60 OFFCURVE",
"338 87 OFFCURVE",
"375 158 CURVE",
"436 128 LINE",
"393 40 OFFCURVE",
"332 -7 OFFCURVE",
"243 -12 CURVE",
"223 -114 LINE",
"155 -114 LINE"
);
},
{
closed = 1;
nodes = (
"125 125 OFFCURVE",
"147 82 OFFCURVE",
"192 63 CURVE",
"271 456 LINE",
"203 443 OFFCURVE",
"162 392 OFFCURVE",
"146 312 CURVE SMOOTH",
"129 229 LINE SMOOTH",
"126 214 OFFCURVE",
"125 196 OFFCURVE",
"125 181 CURVE SMOOTH"
);
}
);
width = 505;
}
);
unicode = 00A2;
},
{
glyphname = Euro;
layers = (
{
layerId = "92E619D5-181B-4123-A4FF-2530258B7CD2";
name = "Regular Italic";
paths = (
{
closed = 1;
nodes = (
"219 -12 OFFCURVE",
"162 12 OFFCURVE",
"121 60 CURVE SMOOTH",
"80 107 OFFCURVE",
"55 175 OFFCURVE",
"55 266 CURVE SMOOTH",
"55 387 OFFCURVE",
"88 499 OFFCURVE",
"147 580 CURVE SMOOTH",
"206 660 OFFCURVE",
"290 710 OFFCURVE",
"390 710 CURVE SMOOTH",
"503 710 OFFCURVE",
"580 658 OFFCURVE",
"613 558 CURVE",
"542 517 LINE",
"517 597 OFFCURVE",
"469 637 OFFCURVE",
"384 637 CURVE SMOOTH",
"287 637 OFFCURVE",
"209 570 OFFCURVE",
"174 463 CURVE",
"427 463 LINE",
"414 397 LINE",
"159 397 LINE",
"157 388 OFFCURVE",
"155 378 OFFCURVE",
"153 368 CURVE SMOOTH",
"151 357 OFFCURVE",
"149 348 OFFCURVE",
"148 341 CURVE",
"144 325 OFFCURVE",
"143 317 OFFCURVE",
"140 301 CURVE",
"395 301 LINE",
"382 235 LINE",
"136 235 LINE",
"140 130 OFFCURVE",
"197 61 OFFCURVE",
"293 61 CURVE SMOOTH",
"342 61 OFFCURVE",
"380 72 OFFCURVE",
"410 95 CURVE SMOOTH",
"440 118 OFFCURVE",
"463 149 OFFCURVE",
"487 192 CURVE",
"545 146 LINE",
"513 93 OFFCURVE",
"481 53 OFFCURVE",
"440 27 CURVE SMOOTH",
"399 1 OFFCURVE",
"350 -12 OFFCURVE",
"283 -12 CURVE SMOOTH"
);
}
);
width = 601;
}
);
unicode = 20AC;
},
{
glyphname = florin;
layers = (
{
layerId = "92E619D5-181B-4123-A4FF-2530258B7CD2";
name = "Regular Italic";
paths = (
{
closed = 1;
nodes = (
"-60 -66 LINE",
"86 -66 LINE",
"185 304 LINE",
"59 304 LINE",
"73 372 LINE",
"205 372 LINE",
"264 588 LINE SMOOTH",
"283 659 OFFCURVE",
"325 698 OFFCURVE",
"401 698 CURVE SMOOTH",
"521 698 LINE",
"507 630 LINE",
"356 630 LINE",
"286 372 LINE",
"453 372 LINE",
"439 304 LINE",
"266 304 LINE",
"177 -24 LINE SMOOTH",
"156 -101 OFFCURVE",
"117 -134 OFFCURVE",
"40 -134 CURVE SMOOTH",
"-73 -134 LINE"
);
}
);
width = 482;
}
);
unicode = 0192;
},
{
glyphname = sterling;
layers = (
{
layerId = "92E619D5-181B-4123-A4FF-2530258B7CD2";
name = "Regular Italic";
paths = (
{
closed = 1;
nodes = (
"26 0 LINE",
"47 102 LINE",
"92 121 OFFCURVE",
"118 154 OFFCURVE",
"132 189 CURVE SMOOTH",
"146 224 OFFCURVE",
"148 261 OFFCURVE",
"148 288 CURVE",
"61 288 LINE",
"75 356 LINE",
"144 356 LINE",
"140 387 OFFCURVE",
"137 418 OFFCURVE",
"137 449 CURVE SMOOTH",
"137 525 OFFCURVE",
"163 589 OFFCURVE",
"208 636 CURVE SMOOTH",
"252 683 OFFCURVE",
"316 710 OFFCURVE",
"393 710 CURVE SMOOTH",
"493 710 OFFCURVE",
"553 665 OFFCURVE",
"589 594 CURVE",
"521 549 LINE",
"494 604 OFFCURVE",
"455 638 OFFCURVE",
"387 638 CURVE SMOOTH",
"284 638 OFFCURVE",
"220 572 OFFCURVE",
"220 441 CURVE SMOOTH",
"220 413 OFFCURVE",
"222 383 OFFCURVE",
"225 356 CURVE",
"434 356 LINE",
"420 288 LINE",
"228 288 LINE",
"227 239 OFFCURVE",
"212 194 OFFCURVE",
"191 158 CURVE SMOOTH",
"170 121 OFFCURVE",
"142 93 OFFCURVE",
"117 77 CURVE",
"115 72 LINE",
"467 72 LINE",
"452 0 LINE"
);
}
);
width = 577;
}
);
unicode = 00A3;
},
{
glyphname = dollar;
layers = (
{
layerId = "92E619D5-181B-4123-A4FF-2530258B7CD2";
name = "Regular Italic";
paths = (
{
closed = 1;
nodes = (
"198 0 LINE",
"114 11 OFFCURVE",
"48 51 OFFCURVE",
"11 120 CURVE",
"70 169 LINE",
"101 112 OFFCURVE",
"149 79 OFFCURVE",
"214 70 CURVE",
"266 332 LINE",
"157 352 OFFCURVE",
"103 408 OFFCURVE",
"103 499 CURVE SMOOTH",
"103 552 OFFCURVE",
"123 601 OFFCURVE",
"163 637 CURVE SMOOTH",
"202 673 OFFCURVE",
"261 697 OFFCURVE",
"340 700 CURVE",
"356 780 LINE",
"416 780 LINE",
"399 695 LINE",
"475 684 OFFCURVE",
"532 647 OFFCURVE",
"563 587 CURVE",
"500 539 LINE",
"480 579 OFFCURVE",
"440 613 OFFCURVE",
"383 625 CURVE",
"336 388 LINE",
"457 365 OFFCURVE",
"510 311 OFFCURVE",
"510 219 CURVE SMOOTH",
"510 159 OFFCURVE",
"488 106 OFFCURVE",
"445 67 CURVE SMOOTH",
"402 28 OFFCURVE",
"339 3 OFFCURVE",
"258 -1 CURVE",
"242 -82 LINE",
"182 -82 LINE"
);
},
{
closed = 1;
nodes = (
"429 267 OFFCURVE",
"398 305 OFFCURVE",
"322 320 CURVE",
"272 69 LINE",
"324 73 OFFCURVE",
"364 90 OFFCURVE",
"390 116 CURVE SMOOTH",
"416 142 OFFCURVE",
"429 175 OFFCURVE",
"429 211 CURVE SMOOTH"
);
},
{
closed = 1;
nodes = (
"184 451 OFFCURVE",
"213 417 OFFCURVE",
"280 402 CURVE",
"325 629 LINE",
"238 624 OFFCURVE",
"184 579 OFFCURVE",
"184 506 CURVE SMOOTH"
);
}
);
width = 579;
}
);
unicode = 0024;
},
{
glyphname = yen;
layers = (
{
layerId = "92E619D5-181B-4123-A4FF-2530258B7CD2";
name = "Regular Italic";
paths = (
{
closed = 1;
nodes = (
"315 145 LINE",
"285 0 LINE",
"205 0 LINE",
"235 145 LINE",
"67 145 LINE",
"80 211 LINE",
"247 211 LINE",
"267 308 LINE",
"100 308 LINE",
"112 374 LINE",
"242 374 LINE",
"127 698 LINE",
"212 698 LINE",
"316 386 LINE",
"320 386 LINE",
"551 698 LINE",
"645 698 LINE",
"396 374 LINE",
"530 374 LINE",
"518 308 LINE",
"347 308 LINE",
"327 211 LINE",
"498 211 LINE",
"485 145 LINE"
);
}
);
width = 594;
}
);
unicode = 00A5;
},
{
glyphname = uni0E3F;
layers = (
{
layerId = "92E619D5-181B-4123-A4FF-2530258B7CD2";
name = "Regular Italic";
paths = (
{
closed = 1;
nodes = (
"271 -82 LINE",
"203 -82 LINE",
"224 20 LINE",
"43 20 LINE",
"175 677 LINE",
"355 677 LINE",
"376 780 LINE",
"444 780 LINE",
"423 677 LINE",
"538 677 OFFCURVE",
"594 624 OFFCURVE",
"594 536 CURVE SMOOTH",
"594 452 OFFCURVE",
"543 392 OFFCURVE",
"463 369 CURVE",
"462 365 LINE",
"518 348 OFFCURVE",
"555 307 OFFCURVE",
"555 234 CURVE SMOOTH",
"555 185 OFFCURVE",
"535 131 OFFCURVE",
"497 90 CURVE SMOOTH",
"459 49 OFFCURVE",
"402 20 OFFCURVE",
"330 20 CURVE SMOOTH",
"292 20 LINE"
);
},
{
closed = 1;
nodes = (
"299 393 LINE",
"341 605 LINE",
"240 605 LINE",
"198 393 LINE"
);
},
{
closed = 1;
nodes = (
"366 393 LINE",
"367 393 LINE SMOOTH",
"436 394 OFFCURVE",
"486 419 OFFCURVE",
"498 479 CURVE SMOOTH",
"500 489 OFFCURVE",
"502 499 OFFCURVE",
"504 508 CURVE SMOOTH",
"506 517 OFFCURVE",
"507 526 OFFCURVE",
"507 534 CURVE SMOOTH",
"507 583 OFFCURVE",
"473 605 OFFCURVE",
"414 605 CURVE SMOOTH",
"408 605 LINE"
);
},
{
closed = 1;
nodes = (
"238 92 LINE",
"285 324 LINE",
"184 324 LINE",
"138 92 LINE"
);
},
{
closed = 1;
nodes = (
"305 92 LINE",
"330 92 LINE SMOOTH",
"401 92 OFFCURVE",
"447 122 OFFCURVE",
"462 191 CURVE SMOOTH",
"467 216 OFFCURVE",
"471 233 OFFCURVE",
"471 252 CURVE SMOOTH",
"471 303 OFFCURVE",
"435 324 OFFCURVE",
"368 324 CURVE SMOOTH",
"352 324 LINE"
);
}
);
width = 614;
}
);
unicode = 0E3F;
},
{
glyphname = uni20A1;
layers = (
{
layerId = "92E619D5-181B-4123-A4FF-2530258B7CD2";
name = "Regular Italic";
paths = (
{
closed = 1;
nodes = (
"94 -82 LINE",
"133 50 LINE",
"81 97 OFFCURVE",
"45 163 OFFCURVE",
"45 267 CURVE SMOOTH",
"45 376 OFFCURVE",
"72 475 OFFCURVE",
"120 551 CURVE SMOOTH",
"168 627 OFFCURVE",
"238 679 OFFCURVE",
"325 695 CURVE",
"350 780 LINE",
"418 780 LINE",
"395 700 LINE",
"414 699 OFFCURVE",
"430 697 OFFCURVE",
"446 693 CURVE",
"472 780 LINE",
"540 780 LINE",
"508 669 LINE",
"551 644 OFFCURVE",
"582 605 OFFCURVE",
"601 550 CURVE",
"530 509 LINE",
"519 544 OFFCURVE",
"503 571 OFFCURVE",
"483 589 CURVE",
"329 75 LINE",
"400 87 OFFCURVE",
"440 129 OFFCURVE",
"479 201 CURVE",
"538 155 LINE",
"481 56 OFFCURVE",
"418 7 OFFCURVE",
"309 0 CURVE",
"284 -82 LINE",
"216 -82 LINE",
"241 1 LINE",
"222 4 OFFCURVE",
"206 7 OFFCURVE",
"191 14 CURVE",
"162 -82 LINE"
);
},
{
closed = 1;
nodes = (
"212 89 LINE",
"228 81 OFFCURVE",
"245 76 OFFCURVE",
"264 74 CURVE",
"426 619 LINE",
"410 624 OFFCURVE",
"392 626 OFFCURVE",
"372 626 CURVE"
);
},
{
closed = 1;
nodes = (
"125 200 OFFCURVE",
"139 167 OFFCURVE",
"160 136 CURVE",
"303 615 LINE",
"226 586 OFFCURVE",
"173 519 OFFCURVE",
"154 422 CURVE SMOOTH",
"131 308 LINE SMOOTH",
"127 288 OFFCURVE",
"125 268 OFFCURVE",
"125 247 CURVE SMOOTH"
);
}
);
width = 591;
}
);
unicode = 20A1;
},
{
glyphname = uni20A4;
layers = (
{
layerId = "92E619D5-181B-4123-A4FF-2530258B7CD2";
name = "Regular Italic";
paths = (
{
closed = 1;
nodes = (
"452 0 LINE",
"26 0 LINE",
"47 102 LINE",
"80 115 OFFCURVE",
"102 136 OFFCURVE",
"117 160 CURVE SMOOTH",
"132 184 OFFCURVE",
"140 211 OFFCURVE",
"144 236 CURVE",
"51 236 LINE",
"64 302 LINE",
"148 302 LINE",
"147 319 OFFCURVE",
"146 335 OFFCURVE",
"145 351 CURVE",
"143 366 OFFCURVE",
"141 382 OFFCURVE",
"140 398 CURVE",
"83 398 LINE",
"96 464 LINE",
"137 464 LINE",
"140 535 OFFCURVE",
"166 596 OFFCURVE",
"211 640 CURVE SMOOTH",
"256 684 OFFCURVE",
"319 710 OFFCURVE",
"396 710 CURVE SMOOTH",
"497 710 OFFCURVE",
"552 665 OFFCURVE",
"589 594 CURVE",
"521 549 LINE",
"494 602 OFFCURVE",
"458 638 OFFCURVE",
"387 638 CURVE SMOOTH",
"288 638 OFFCURVE",
"228 577 OFFCURVE",
"221 464 CURVE",
"455 464 LINE",
"442 398 LINE",
"222 398 LINE",
"225 365 OFFCURVE",
"227 333 OFFCURVE",
"228 302 CURVE",
"423 302 LINE",
"410 236 LINE",
"222 236 LINE",
"206 161 OFFCURVE",
"159 104 OFFCURVE",
"115 77 CURVE",
"114 72 LINE",
"467 72 LINE"
);
}
);
width = 577;
}
);
unicode = 20A4;
},
{
glyphname = uni20A6;
layers = (
{
layerId = "92E619D5-181B-4123-A4FF-2530258B7CD2";
name = "Regular Italic";
paths = (
{
closed = 1;
nodes = (
"360 238 LINE",
"166 238 LINE",
"118 0 LINE",
"46 0 LINE",
"93 234 LINE",
"28 234 LINE",
"41 300 LINE",
"106 300 LINE",
"126 398 LINE",
"61 398 LINE",
"74 464 LINE",
"139 464 LINE",
"186 698 LINE",
"279 698 LINE",
"361 460 LINE",
"561 460 LINE",
"609 698 LINE",
"681 698 LINE",
"634 464 LINE",
"695 464 LINE",
"682 398 LINE",
"621 398 LINE",
"601 300 LINE",
"662 300 LINE",
"649 234 LINE",
"588 234 LINE",
"541 0 LINE",
"445 0 LINE"
);
},
{
closed = 1;
nodes = (
"340 296 LINE",
"298 414 LINE",
"239 591 LINE",
"236 591 LINE",
"177 296 LINE"
);
},
{
closed = 1;
nodes = (
"419 293 LINE",
"485 96 LINE",
"488 96 LINE",
"550 402 LINE",
"381 402 LINE"
);
}
);
width = 691;
}
);
unicode = 20A6;
},
{
glyphname = uni20A8;
layers = (
{
layerId = "92E619D5-181B-4123-A4FF-2530258B7CD2";
name = "Regular Italic";
paths = (
{
closed = 1;
nodes = (
"179 698 LINE",
"350 698 LINE SMOOTH",
"437 698 OFFCURVE",
"493 650 OFFCURVE",
"493 558 CURVE SMOOTH",
"493 511 OFFCURVE",
"480 463 OFFCURVE",
"456 423 CURVE SMOOTH",
"431 383 OFFCURVE",
"393 351 OFFCURVE",
"342 335 CURVE",
"406 151 LINE SMOOTH",
"430 83 OFFCURVE",
"459 54 OFFCURVE",
"510 54 CURVE SMOOTH",
"549 54 OFFCURVE",
"576 80 OFFCURVE",
"576 121 CURVE SMOOTH",
"576 148 OFFCURVE",
"564 174 OFFCURVE",
"541 201 CURVE SMOOTH",
"517 228 LINE SMOOTH",
"488 261 OFFCURVE",
"469 297 OFFCURVE",
"469 340 CURVE SMOOTH",
"469 377 OFFCURVE",
"485 412 OFFCURVE",
"512 437 CURVE SMOOTH",
"539 462 OFFCURVE",
"575 478 OFFCURVE",
"618 478 CURVE SMOOTH",
"650 478 OFFCURVE",
"691 468 OFFCURVE",
"715 445 CURVE",
"676 394 LINE",
"664 407 OFFCURVE",
"636 415 OFFCURVE",
"613 415 CURVE SMOOTH",
"574 415 OFFCURVE",
"543 388 OFFCURVE",
"543 349 CURVE SMOOTH",
"543 326 OFFCURVE",
"550 305 OFFCURVE",
"577 274 CURVE",
"601 249 LINE SMOOTH",
"633 215 OFFCURVE",
"649 177 OFFCURVE",
"649 135 CURVE SMOOTH",
"649 91 OFFCURVE",
"634 55 OFFCURVE",
"609 29 CURVE SMOOTH",
"584 3 OFFCURVE",
"548 -12 OFFCURVE",
"505 -12 CURVE SMOOTH",
"420 -12 OFFCURVE",
"368 28 OFFCURVE",
"333 127 CURVE SMOOTH",
"264 324 LINE",
"181 324 LINE",
"117 0 LINE",
"39 0 LINE"
);
},
{
closed = 1;
nodes = (
"281 392 LINE SMOOTH",
"344 392 OFFCURVE",
"389 425 OFFCURVE",
"401 485 CURVE SMOOTH",
"409 524 LINE SMOOTH",
"412 537 OFFCURVE",
"413 549 OFFCURVE",
"413 560 CURVE SMOOTH",
"413 601 OFFCURVE",
"384 628 OFFCURVE",
"333 628 CURVE SMOOTH",
"242 628 LINE",
"195 392 LINE"
);
}
);
width = 720;
}
);
unicode = 20A8;
},
{
glyphname = uni20A9;
layers = (
{
layerId = "92E619D5-181B-4123-A4FF-2530258B7CD2";
name = "Regular Italic";
paths = (
{
closed = 1;
nodes = (
"523 233 LINE",
"335 233 LINE",
"231 0 LINE",
"142 0 LINE",
"133 233 LINE",
"23 233 LINE",
"36 299 LINE",
"130 299 LINE",
"125 399 LINE",
"41 399 LINE",
"54 465 LINE",
"123 465 LINE",
"113 698 LINE",
"191 698 LINE",
"197 463 LINE",
"368 463 LINE",
"473 698 LINE",
"565 698 LINE",
"577 463 LINE",
"753 463 LINE",
"854 698 LINE",
"935 698 LINE",
"831 465 LINE",
"896 465 LINE",
"883 399 LINE",
"801 399 LINE",
"756 299 LINE",
"849 299 LINE",
"836 233 LINE",
"726 233 LINE",
"622 0 LINE",
"534 0 LINE"
);
},
{
closed = 1;
nodes = (
"210 101 LINE",
"341 402 LINE",
"199 402 LINE",
"206 101 LINE"
);
},
{
closed = 1;
nodes = (
"598 102 LINE",
"727 402 LINE",
"580 402 LINE",
"594 102 LINE"
);
},
{
closed = 1;
nodes = (
"519 299 LINE",
"506 606 LINE",
"501 606 LINE",
"364 299 LINE"
);
}
);
width = 872;
}
);
unicode = 20A9;
},
{
glyphname = uni20AA;
layers = (
{
layerId = "92E619D5-181B-4123-A4FF-2530258B7CD2";
name = "Regular Italic";
paths = (
{
closed = 1;
nodes = (
"309 540 LINE",
"387 540 LINE",
"293 68 LINE",
"431 68 LINE SMOOTH",
"459 68 OFFCURVE",
"486 74 OFFCURVE",
"510 91 CURVE SMOOTH",
"533 107 OFFCURVE",
"551 136 OFFCURVE",
"560 181 CURVE SMOOTH",
"664 698 LINE",
"742 698 LINE",
"642 200 LINE SMOOTH",
"615 64 OFFCURVE",
"536 0 OFFCURVE",
"423 0 CURVE SMOOTH",
"201 0 LINE"
);
},
{
closed = 1;
nodes = (
"39 0 LINE",
"179 698 LINE",
"402 698 LINE SMOOTH",
"489 698 OFFCURVE",
"546 648 OFFCURVE",
"546 555 CURVE SMOOTH",
"546 538 OFFCURVE",
"545 520 OFFCURVE",
"541 500 CURVE SMOOTH",
"473 158 LINE",
"395 158 LINE",
"466 514 LINE SMOOTH",
"469 529 OFFCURVE",
"470 544 OFFCURVE",
"470 555 CURVE SMOOTH",
"470 612 OFFCURVE",
"435 630 OFFCURVE",
"388 630 CURVE SMOOTH",
"243 630 LINE",
"117 0 LINE"
);
}
);
width = 745;
}
);
unicode = 20AA;
},
{
glyphname = uni20AB;
layers = (
{
layerId = "92E619D5-181B-4123-A4FF-2530258B7CD2";
name = "Regular Italic";
paths = (
{
closed = 1;
nodes = (
"377 233 LINE",
"372 233 LINE",
"337 169 OFFCURVE",
"286 131 OFFCURVE",
"226 131 CURVE SMOOTH",
"135 131 OFFCURVE",
"84 188 OFFCURVE",
"84 284 CURVE SMOOTH",
"84 365 OFFCURVE",
"106 435 OFFCURVE",
"144 484 CURVE SMOOTH",
"182 532 OFFCURVE",
"236 560 OFFCURVE",
"301 560 CURVE SMOOTH",
"364 560 OFFCURVE",
"403 533 OFFCURVE",
"422 482 CURVE",
"427 482 LINE",
"455 620 LINE",
"311 620 LINE",
"322 680 LINE",
"467 680 LINE",
"479 740 LINE",
"552 740 LINE",
"540 680 LINE",
"604 680 LINE",
"593 620 LINE",
"528 620 LINE",
"431 140 LINE",
"358 140 LINE"
);
},
{
closed = 1;
nodes = (
"292 193 OFFCURVE",
"324 209 OFFCURVE",
"348 233 CURVE SMOOTH",
"372 256 OFFCURVE",
"388 286 OFFCURVE",
"393 313 CURVE SMOOTH",
"411 402 LINE SMOOTH",
"416 431 OFFCURVE",
"407 456 OFFCURVE",
"387 473 CURVE SMOOTH",
"367 489 OFFCURVE",
"339 498 OFFCURVE",
"307 498 CURVE SMOOTH",
"232 498 OFFCURVE",
"190 453 OFFCURVE",
"175 377 CURVE SMOOTH",
"167 338 OFFCURVE",
"159 300 OFFCURVE",
"159 281 CURVE SMOOTH",
"159 225 OFFCURVE",
"195 193 OFFCURVE",
"255 193 CURVE SMOOTH"
);
},
{
closed = 1;
nodes = (
"21 0 LINE",
"34 66 LINE",
"445 66 LINE",
"432 0 LINE"
);
}
);
width = 566;
}
);
unicode = 20AB;
},
{
glyphname = uni20AD;
layers = (
{
layerId = "92E619D5-181B-4123-A4FF-2530258B7CD2";
name = "Regular Italic";
paths = (
{
closed = 1;
nodes = (
"125 0 LINE",
"45 0 LINE",
"111 328 LINE",
"34 328 LINE",
"48 396 LINE",
"124 396 LINE",
"185 698 LINE",
"265 698 LINE",
"204 396 LINE",
"276 396 LINE",
"551 698 LINE",
"646 698 LINE",
"365 396 LINE",
"570 396 LINE",
"556 328 LINE",
"356 328 LINE",
"523 0 LINE",
"430 0 LINE",
"271 328 LINE",
"191 328 LINE"
);
}
);
width = 595;
}
);
unicode = 20AD;
},
{
glyphname = uni20AE;
layers = (
{
layerId = "92E619D5-181B-4123-A4FF-2530258B7CD2";
name = "Regular Italic";
paths = (
{
closed = 1;
nodes = (
"344 214 LINE",
"301 0 LINE",
"220 0 LINE",
"255 174 LINE",
"113 109 LINE",
"128 181 LINE",
"269 245 LINE",
"287 335 LINE",
"146 271 LINE",
"160 342 LINE",
"302 407 LINE",
"346 626 LINE",
"133 626 LINE",
"148 698 LINE",
"655 698 LINE",
"640 626 LINE",
"427 626 LINE",
"391 448 LINE",
"533 513 LINE",
"519 441 LINE",
"376 376 LINE",
"358 286 LINE",
"501 351 LINE",
"486 279 LINE"
);
}
);
width = 625;
}
);
unicode = 20AE;
},
{
glyphname = uni20B1;
layers = (
{
layerId = "92E619D5-181B-4123-A4FF-2530258B7CD2";
name = "Regular Italic";
paths = (
{
closed = 1;
nodes = (
"116 332 LINE",
"39 332 LINE",
"52 398 LINE",
"129 398 LINE",
"148 494 LINE",
"71 494 LINE",
"84 560 LINE",
"161 560 LINE",
"189 698 LINE",
"389 698 LINE SMOOTH",
"500 698 OFFCURVE",
"549 643 OFFCURVE",
"554 560 CURVE",
"642 560 LINE",
"629 494 LINE",
"553 494 LINE",
"550 459 OFFCURVE",
"545 429 OFFCURVE",
"537 398 CURVE",
"609 398 LINE",
"596 332 LINE",
"513 332 LINE",
"474 249 OFFCURVE",
"409 194 OFFCURVE",
"310 194 CURVE SMOOTH",
"168 194 LINE",
"129 0 LINE",
"49 0 LINE"
);
},
{
closed = 1;
nodes = (
"241 557 LINE",
"482 557 LINE",
"477 600 OFFCURVE",
"448 627 OFFCURVE",
"396 627 CURVE SMOOTH",
"255 627 LINE"
);
},
{
closed = 1;
nodes = (
"208 395 LINE",
"455 395 LINE",
"476 497 LINE",
"229 497 LINE"
);
},
{
closed = 1;
nodes = (
"321 265 LINE SMOOTH",
"377 265 OFFCURVE",
"416 287 OFFCURVE",
"439 335 CURVE",
"196 335 LINE",
"182 265 LINE"
);
}
);
width = 612;
}
);
unicode = 20B1;
},
{
glyphname = uni20B2;
layers = (
{
layerId = "92E619D5-181B-4123-A4FF-2530258B7CD2";
name = "Regular Italic";
paths = (
{
closed = 1;
nodes = (
"184 21 LINE",
"108 60 OFFCURVE",
"55 134 OFFCURVE",
"55 269 CURVE SMOOTH",
"55 393 OFFCURVE",
"89 500 OFFCURVE",
"149 577 CURVE SMOOTH",
"208 654 OFFCURVE",
"291 700 OFFCURVE",
"390 700 CURVE SMOOTH",
"405 700 OFFCURVE",
"419 699 OFFCURVE",
"432 697 CURVE",
"463 780 LINE",
"532 780 LINE",
"494 679 LINE",
"554 651 OFFCURVE",
"589 601 OFFCURVE",
"606 545 CURVE",
"534 506 LINE",
"525 546 OFFCURVE",
"504 583 OFFCURVE",
"467 606 CURVE",
"377 359 LINE",
"593 359 LINE",
"570 246 LINE SMOOTH",
"549 143 OFFCURVE",
"504 81 OFFCURVE",
"451 45 CURVE SMOOTH",
"398 9 OFFCURVE",
"336 -2 OFFCURVE",
"283 -2 CURVE SMOOTH",
"270 -2 OFFCURVE",
"258 -1 OFFCURVE",
"246 0 CURVE",
"215 -82 LINE",
"146 -82 LINE"
);
},
{
closed = 1;
nodes = (
"133 172 OFFCURVE",
"162 121 OFFCURVE",
"211 92 CURVE",
"406 626 LINE",
"400 627 OFFCURVE",
"395 628 OFFCURVE",
"392 628 CURVE SMOOTH",
"388 628 OFFCURVE",
"383 628 OFFCURVE",
"378 628 CURVE SMOOTH",
"266 628 OFFCURVE",
"188 553 OFFCURVE",
"161 422 CURVE SMOOTH",
"139 312 LINE SMOOTH",
"135 292 OFFCURVE",
"133 268 OFFCURVE",
"133 248 CURVE SMOOTH"
);
},
{
closed = 1;
nodes = (
"271 71 LINE",
"275 70 OFFCURVE",
"279 70 OFFCURVE",
"282 70 CURVE SMOOTH",
"285 70 OFFCURVE",
"288 70 OFFCURVE",
"291 70 CURVE SMOOTH",
"388 70 OFFCURVE",
"466 121 OFFCURVE",
"487 225 CURVE SMOOTH",
"499 285 LINE",
"349 285 LINE"
);
}
);
width = 643;
}
);
unicode = 20B2;
},
{
glyphname = uni20B4;
layers = (
{
layerId = "92E619D5-181B-4123-A4FF-2530258B7CD2";
name = "Regular Italic";
paths = (
{
closed = 1;
nodes = (
"156 -12 OFFCURVE",
"86 56 OFFCURVE",
"86 159 CURVE SMOOTH",
"86 194 OFFCURVE",
"97 224 OFFCURVE",
"112 249 CURVE",
"45 249 LINE",
"58 315 LINE",
"175 315 LINE",
"357 412 LINE",
"78 412 LINE",
"91 478 LINE",
"453 478 LINE",
"465 497 OFFCURVE",
"473 518 OFFCURVE",
"473 545 CURVE SMOOTH",
"473 601 OFFCURVE",
"433 639 OFFCURVE",
"369 639 CURVE SMOOTH",
"318 639 OFFCURVE",
"272 621 OFFCURVE",
"224 574 CURVE",
"180 627 LINE",
"245 688 OFFCURVE",
"314 710 OFFCURVE",
"378 710 CURVE SMOOTH",
"430 710 OFFCURVE",
"474 695 OFFCURVE",
"506 668 CURVE SMOOTH",
"537 640 OFFCURVE",
"555 601 OFFCURVE",
"555 553 CURVE SMOOTH",
"555 525 OFFCURVE",
"547 499 OFFCURVE",
"536 478 CURVE",
"606 478 LINE",
"593 412 LINE",
"477 412 LINE",
"296 315 LINE",
"573 315 LINE",
"560 249 LINE",
"199 249 LINE",
"178 224 OFFCURVE",
"167 196 OFFCURVE",
"167 166 CURVE SMOOTH",
"167 99 OFFCURVE",
"212 59 OFFCURVE",
"277 59 CURVE SMOOTH",
"330 59 OFFCURVE",
"379 80 OFFCURVE",
"442 137 CURVE",
"485 82 LINE",
"422 18 OFFCURVE",
"345 -12 OFFCURVE",
"268 -12 CURVE SMOOTH"
);
}
);
width = 609;
}
);
unicode = 20B4;
},
{
glyphname = uni20B5;
layers = (
{
layerId = "92E619D5-181B-4123-A4FF-2530258B7CD2";
name = "Regular Italic";
paths = (
{
closed = 1;
nodes = (
"183 23 LINE",
"107 62 OFFCURVE",
"55 138 OFFCURVE",
"55 267 CURVE SMOOTH",
"55 387 OFFCURVE",
"88 496 OFFCURVE",
"146 574 CURVE SMOOTH",
"204 652 OFFCURVE",
"287 700 OFFCURVE",
"388 700 CURVE SMOOTH",
"402 700 OFFCURVE",
"416 699 OFFCURVE",
"430 697 CURVE",
"461 780 LINE",
"530 780 LINE",
"493 681 LINE",
"548 658 OFFCURVE",
"588 614 OFFCURVE",
"611 549 CURVE",
"540 508 LINE",
"525 556 OFFCURVE",
"503 590 OFFCURVE",
"467 610 CURVE",
"270 71 LINE",
"275 70 OFFCURVE",
"280 70 OFFCURVE",
"284 70 CURVE SMOOTH",
"287 70 OFFCURVE",
"291 70 OFFCURVE",
"295 70 CURVE SMOOTH",
"344 70 OFFCURVE",
"381 82 OFFCURVE",
"411 104 CURVE SMOOTH",
"441 126 OFFCURVE",
"464 158 OFFCURVE",
"488 201 CURVE",
"547 155 LINE",
"515 102 OFFCURVE",
"483 63 OFFCURVE",
"442 37 CURVE SMOOTH",
"401 11 OFFCURVE",
"350 -2 OFFCURVE",
"285 -2 CURVE SMOOTH",
"270 -2 OFFCURVE",
"260 -1 OFFCURVE",
"244 2 CURVE",
"213 -82 LINE",
"144 -82 LINE"
);
},
{
closed = 1;
nodes = (
"135 172 OFFCURVE",
"163 123 OFFCURVE",
"210 94 CURVE",
"405 627 LINE",
"400 628 OFFCURVE",
"396 628 OFFCURVE",
"393 628 CURVE SMOOTH",
"390 628 OFFCURVE",
"386 628 OFFCURVE",
"382 628 CURVE SMOOTH",
"326 628 OFFCURVE",
"278 607 OFFCURVE",
"240 571 CURVE SMOOTH",
"202 534 OFFCURVE",
"175 482 OFFCURVE",
"163 419 CURVE SMOOTH",
"141 310 LINE SMOOTH",
"137 290 OFFCURVE",
"135 266 OFFCURVE",
"135 247 CURVE SMOOTH"
);
}
);
width = 599;
}
);
unicode = 20B5;
},
{
glyphname = uni20B8;
layers = (
{
layerId = "92E619D5-181B-4123-A4FF-2530258B7CD2";
name = "Regular Italic";
paths = (
{
closed = 1;
nodes = (
"114 630 LINE",
"128 698 LINE",
"633 698 LINE",
"619 630 LINE"
);
},
{
closed = 1;
nodes = (
"377 470 LINE",
"283 0 LINE",
"201 0 LINE",
"295 470 LINE",
"82 470 LINE",
"96 538 LINE",
"601 538 LINE",
"587 470 LINE"
);
}
);
width = 588;
}
);
unicode = 20B8;
},
{
glyphname = uni20B9;
layers = (
{
layerId = "92E619D5-181B-4123-A4FF-2530258B7CD2";
name = "Regular Italic";
paths = (
{
closed = 1;
nodes = (
"335 0 LINE",
"181 298 LINE",
"60 298 LINE",
"74 367 LINE",
"280 367 LINE SMOOTH",
"365 367 OFFCURVE",
"409 410 OFFCURVE",
"425 465 CURVE",
"95 465 LINE",
"109 534 LINE",
"436 534 LINE",
"439 593 OFFCURVE",
"411 629 OFFCURVE",
"343 629 CURVE SMOOTH",
"129 629 LINE",
"143 698 LINE",
"658 698 LINE",
"644 629 LINE",
"459 629 LINE",
"458 625 LINE",
"493 612 OFFCURVE",
"511 581 OFFCURVE",
"512 534 CURVE",
"625 534 LINE",
"611 465 LINE",
"504 465 LINE",
"492 417 OFFCURVE",
"468 376 OFFCURVE",
"429 346 CURVE SMOOTH",
"389 316 OFFCURVE",
"336 298 OFFCURVE",
"268 298 CURVE",
"426 0 LINE"
);
}
);
width = 588;
}
);
unicode = 20B9;
},
{
glyphname = uni20BA;
layers = (
{
layerId = "92E619D5-181B-4123-A4FF-2530258B7CD2";
name = "Regular Italic";
paths = (
{
closed = 1;
nodes = (
"150 244 LINE",
"48 197 LINE",
"62 269 LINE",
"164 315 LINE",
"182 405 LINE",
"80 359 LINE",
"95 431 LINE",
"197 477 LINE",
"241 698 LINE",
"322 698 LINE",
"286 518 LINE",
"514 622 LINE",
"500 551 LINE",
"271 446 LINE",
"253 355 LINE",
"481 460 LINE",
"467 389 LINE",
"239 284 LINE",
"197 71 LINE",
"296 71 LINE SMOOTH",
"352 71 OFFCURVE",
"400 94 OFFCURVE",
"437 135 CURVE SMOOTH",
"474 175 OFFCURVE",
"502 234 OFFCURVE",
"517 305 CURVE",
"596 305 LINE",
"579 220 OFFCURVE",
"546 144 OFFCURVE",
"496 89 CURVE SMOOTH",
"446 33 OFFCURVE",
"379 0 OFFCURVE",
"296 0 CURVE SMOOTH",
"101 0 LINE"
);
}
);
width = 635;
}
);
unicode = 20BA;
},
{
glyphname = uni20BD;
layers = (
{
layerId = "92E619D5-181B-4123-A4FF-2530258B7CD2";
name = "Regular Italic";
paths = (
{
closed = 1;
nodes = (
"157 136 LINE",
"130 0 LINE",
"49 0 LINE",
"76 136 LINE",
"0 136 LINE",
"14 202 LINE",
"89 202 LINE",
"109 298 LINE",
"33 298 LINE",
"47 368 LINE",
"123 368 LINE",
"189 698 LINE",
"438 698 LINE SMOOTH",
"499 698 OFFCURVE",
"542 681 OFFCURVE",
"570 651 CURVE SMOOTH",
"597 621 OFFCURVE",
"609 579 OFFCURVE",
"609 531 CURVE SMOOTH",
"609 468 OFFCURVE",
"587 411 OFFCURVE",
"547 368 CURVE SMOOTH",
"507 325 OFFCURVE",
"449 298 OFFCURVE",
"377 298 CURVE SMOOTH",
"190 298 LINE",
"170 202 LINE",
"434 202 LINE",
"420 136 LINE"
);
},
{
closed = 1;
nodes = (
"204 368 LINE",
"388 368 LINE SMOOTH",
"455 368 OFFCURVE",
"502 406 OFFCURVE",
"515 471 CURVE SMOOTH",
"520 494 OFFCURVE",
"523 510 OFFCURVE",
"525 519 CURVE",
"526 528 OFFCURVE",
"527 537 OFFCURVE",
"527 545 CURVE SMOOTH",
"527 593 OFFCURVE",
"502 628 OFFCURVE",
"431 628 CURVE SMOOTH",
"256 628 LINE"
);
}
);
width = 604;
}
);
unicode = 20BD;
},
{
glyphname = uni20BF;
layers = (
{
layerId = "92E619D5-181B-4123-A4FF-2530258B7CD2";
name = "Regular Italic";
paths = (
{
closed = 1;
nodes = (
"275 20 LINE",
"217 20 LINE",
"196 -82 LINE",
"128 -82 LINE",
"149 20 LINE",
"43 20 LINE",
"175 677 LINE",
"280 677 LINE",
"301 780 LINE",
"369 780 LINE",
"348 677 LINE",
"406 677 LINE",
"427 780 LINE",
"495 780 LINE",
"473 673 LINE",
"552 660 OFFCURVE",
"594 609 OFFCURVE",
"594 536 CURVE SMOOTH",
"594 452 OFFCURVE",
"543 392 OFFCURVE",
"463 369 CURVE",
"462 365 LINE",
"518 348 OFFCURVE",
"555 307 OFFCURVE",
"555 234 CURVE SMOOTH",
"555 186 OFFCURVE",
"536 134 OFFCURVE",
"500 94 CURVE SMOOTH",
"464 53 OFFCURVE",
"411 24 OFFCURVE",
"343 20 CURVE",
"322 -82 LINE",
"254 -82 LINE"
);
},
{
closed = 1;
nodes = (
"198 394 LINE",
"361 394 LINE SMOOTH",
"434 394 OFFCURVE",
"486 419 OFFCURVE",
"498 479 CURVE SMOOTH",
"500 489 OFFCURVE",
"502 499 OFFCURVE",
"504 508 CURVE SMOOTH",
"506 517 OFFCURVE",
"507 526 OFFCURVE",
"507 534 CURVE SMOOTH",
"507 583 OFFCURVE",
"473 605 OFFCURVE",
"414 605 CURVE SMOOTH",
"240 605 LINE"
);
},
{
closed = 1;
nodes = (
"138 92 LINE",
"330 92 LINE SMOOTH",
"401 92 OFFCURVE",
"447 122 OFFCURVE",
"462 191 CURVE SMOOTH",
"467 216 OFFCURVE",
"471 233 OFFCURVE",
"471 252 CURVE SMOOTH",
"471 303 OFFCURVE",
"435 324 OFFCURVE",
"368 324 CURVE SMOOTH",
"184 324 LINE"
);
}
);
width = 620;
}
);
unicode = 20BF;
},
{
glyphname = fi;
layers = (
{
layerId = "92E619D5-181B-4123-A4FF-2530258B7CD2";
name = "Regular Italic";
paths = (
{
closed = 1;
nodes = (
"77 516 LINE",
"162 516 LINE",
"184 626 LINE SMOOTH",
"199 697 OFFCURVE",
"230 740 OFFCURVE",
"310 740 CURVE SMOOTH",
"389 740 LINE",
"376 672 LINE",
"271 672 LINE",
"239 516 LINE",
"507 516 LINE",
"418 68 LINE",
"491 68 LINE",
"478 0 LINE",
"411 0 LINE SMOOTH",
"364 0 OFFCURVE",
"342 25 OFFCURVE",
"342 64 CURVE SMOOTH",
"342 71 OFFCURVE",
"343 77 OFFCURVE",
"344 84 CURVE",
"417 448 LINE",
"226 448 LINE",
"118 -86 LINE SMOOTH",
"103 -157 OFFCURVE",
"72 -200 OFFCURVE",
"-8 -200 CURVE SMOOTH",
"-75 -200 LINE",
"-62 -132 LINE",
"31 -132 LINE",
"149 448 LINE",
"64 448 LINE"
);
},
{
closed = 1;
nodes = (
"466 637 OFFCURVE",
"455 653 OFFCURVE",
"455 672 CURVE SMOOTH",
"455 674 OFFCURVE",
"455 677 OFFCURVE",
"456 681 CURVE",
"456 688 OFFCURVE",
"459 716 OFFCURVE",
"476 730 CURVE SMOOTH",
"484 737 OFFCURVE",
"496 740 OFFCURVE",
"513 740 CURVE SMOOTH",
"544 740 OFFCURVE",
"555 724 OFFCURVE",
"555 705 CURVE SMOOTH",
"555 703 OFFCURVE",
"555 700 OFFCURVE",
"555 697 CURVE",
"554 689 OFFCURVE",
"551 662 OFFCURVE",
"535 648 CURVE",
"526 641 OFFCURVE",
"514 637 OFFCURVE",
"497 637 CURVE SMOOTH"
);
}
);
width = 555;
}
);
leftKerningGroup = f;
rightKerningGroup = i;
unicode = FB01;
},
{
glyphname = fl;
layers = (
{
layerId = "92E619D5-181B-4123-A4FF-2530258B7CD2";
name = "Regular Italic";
paths = (
{
closed = 1;
nodes = (
"77 516 LINE",
"162 516 LINE",
"184 626 LINE SMOOTH",
"199 697 OFFCURVE",
"230 740 OFFCURVE",
"310 740 CURVE SMOOTH",
"389 740 LINE",
"376 672 LINE",
"271 672 LINE",
"239 516 LINE",
"340 516 LINE",
"327 448 LINE",
"226 448 LINE",
"118 -86 LINE SMOOTH",
"103 -157 OFFCURVE",
"72 -200 OFFCURVE",
"-8 -200 CURVE SMOOTH",
"-75 -200 LINE",
"-62 -132 LINE",
"31 -132 LINE",
"149 448 LINE",
"64 448 LINE"
);
},
{
closed = 1;
nodes = (
"412 0 LINE SMOOTH",
"365 0 OFFCURVE",
"342 26 OFFCURVE",
"342 63 CURVE SMOOTH",
"342 69 OFFCURVE",
"343 77 OFFCURVE",
"345 87 CURVE SMOOTH",
"476 740 LINE",
"553 740 LINE",
"418 68 LINE",
"496 68 LINE",
"483 0 LINE"
);
}
);
width = 555;
}
);
leftKerningGroup = f;
rightKerningGroup = d;
unicode = FB02;
},
{
glyphname = aacute;
layers = (
{
layerId = "92E619D5-181B-4123-A4FF-2530258B7CD2";
name = "Regular Italic";
paths = (
{
closed = 1;
nodes = (
"437 0 LINE SMOOTH",
"392 0 OFFCURVE",
"370 25 OFFCURVE",
"370 62 CURVE SMOOTH",
"370 70 OFFCURVE",
"371 79 OFFCURVE",
"373 89 CURVE SMOOTH",
"378 112 LINE",
"375 112 LINE",
"332 25 OFFCURVE",
"284 -12 OFFCURVE",
"208 -12 CURVE SMOOTH",
"113 -12 OFFCURVE",
"51 62 OFFCURVE",
"51 185 CURVE SMOOTH",
"51 261 OFFCURVE",
"72 346 OFFCURVE",
"113 414 CURVE SMOOTH",
"154 481 OFFCURVE",
"218 528 OFFCURVE",
"303 528 CURVE SMOOTH",
"334 528 OFFCURVE",
"364 520 OFFCURVE",
"388 504 CURVE SMOOTH",
"412 488 OFFCURVE",
"430 464 OFFCURVE",
"438 432 CURVE",
"442 432 LINE",
"459 516 LINE",
"536 516 LINE",
"446 68 LINE",
"519 68 LINE",
"506 0 LINE"
);
},
{
closed = 1;
nodes = (
"275 58 OFFCURVE",
"306 78 OFFCURVE",
"337 109 CURVE SMOOTH",
"372 144 OFFCURVE",
"391 182 OFFCURVE",
"402 233 CURVE SMOOTH",
"427 357 LINE SMOOTH",
"431 380 OFFCURVE",
"422 405 OFFCURVE",
"402 425 CURVE SMOOTH",
"382 444 OFFCURVE",
"352 458 OFFCURVE",
"312 458 CURVE SMOOTH",
"224 458 OFFCURVE",
"170 401 OFFCURVE",
"150 301 CURVE SMOOTH",
"135 226 LINE",
"132 207 OFFCURVE",
"130 190 OFFCURVE",
"130 175 CURVE SMOOTH",
"130 108 OFFCURVE",
"160 58 OFFCURVE",
"227 58 CURVE SMOOTH"
);
},
{
closed = 1;
nodes = (
"358 585 LINE",
"310 610 LINE",
"414 780 LINE",
"482 744 LINE"
);
}
);
width = 583;
}
);
leftKerningGroup = a;
rightKerningGroup = a;
unicode = 00E1;
},
{
glyphname = abreve;
layers = (
{
layerId = "92E619D5-181B-4123-A4FF-2530258B7CD2";
name = "Regular Italic";
paths = (
{
closed = 1;
nodes = (
"437 0 LINE SMOOTH",
"392 0 OFFCURVE",
"370 25 OFFCURVE",
"370 62 CURVE SMOOTH",
"370 70 OFFCURVE",
"371 79 OFFCURVE",
"373 89 CURVE SMOOTH",
"378 112 LINE",
"375 112 LINE",
"332 25 OFFCURVE",
"284 -12 OFFCURVE",
"208 -12 CURVE SMOOTH",
"113 -12 OFFCURVE",
"51 62 OFFCURVE",
"51 185 CURVE SMOOTH",
"51 261 OFFCURVE",
"72 346 OFFCURVE",
"113 414 CURVE SMOOTH",
"154 481 OFFCURVE",
"218 528 OFFCURVE",
"303 528 CURVE SMOOTH",
"334 528 OFFCURVE",
"364 520 OFFCURVE",
"388 504 CURVE SMOOTH",
"412 488 OFFCURVE",
"430 464 OFFCURVE",
"438 432 CURVE",
"442 432 LINE",
"459 516 LINE",
"536 516 LINE",
"446 68 LINE",
"519 68 LINE",
"506 0 LINE"
);
},
{
closed = 1;
nodes = (
"275 58 OFFCURVE",
"306 78 OFFCURVE",
"337 109 CURVE SMOOTH",
"372 144 OFFCURVE",
"391 182 OFFCURVE",
"402 233 CURVE SMOOTH",
"427 357 LINE SMOOTH",
"431 380 OFFCURVE",
"422 405 OFFCURVE",
"402 425 CURVE SMOOTH",
"382 444 OFFCURVE",
"352 458 OFFCURVE",
"312 458 CURVE SMOOTH",
"224 458 OFFCURVE",
"170 401 OFFCURVE",
"150 301 CURVE SMOOTH",
"135 226 LINE",
"132 207 OFFCURVE",
"130 190 OFFCURVE",
"130 175 CURVE SMOOTH",
"130 108 OFFCURVE",
"160 58 OFFCURVE",
"227 58 CURVE SMOOTH"
);
},
{
closed = 1;
nodes = (
"298 596 OFFCURVE",
"267 616 OFFCURVE",
"248 643 CURVE SMOOTH",
"228 670 OFFCURVE",
"220 703 OFFCURVE",
"216 730 CURVE",
"262 750 LINE",
"272 728 LINE SMOOTH",
"293 681 OFFCURVE",
"310 657 OFFCURVE",
"349 657 CURVE SMOOTH",
"385 657 OFFCURVE",
"410 677 OFFCURVE",
"449 728 CURVE SMOOTH",
"466 750 LINE",
"514 730 LINE",
"501 702 OFFCURVE",
"484 669 OFFCURVE",
"457 642 CURVE SMOOTH",
"430 615 OFFCURVE",
"395 596 OFFCURVE",
"347 596 CURVE SMOOTH"
);
}
);
width = 583;
}
);
leftKerningGroup = a;
rightKerningGroup = a;
unicode = 0103;
},
{
glyphname = acircumflex;
layers = (
{
layerId = "92E619D5-181B-4123-A4FF-2530258B7CD2";
name = "Regular Italic";
paths = (
{
closed = 1;
nodes = (
"437 0 LINE SMOOTH",
"392 0 OFFCURVE",
"370 25 OFFCURVE",
"370 62 CURVE SMOOTH",
"370 70 OFFCURVE",
"371 79 OFFCURVE",
"373 89 CURVE SMOOTH",
"378 112 LINE",
"375 112 LINE",
"332 25 OFFCURVE",
"284 -12 OFFCURVE",
"208 -12 CURVE SMOOTH",
"113 -12 OFFCURVE",
"51 62 OFFCURVE",
"51 185 CURVE SMOOTH",
"51 261 OFFCURVE",
"72 346 OFFCURVE",
"113 414 CURVE SMOOTH",
"154 481 OFFCURVE",
"218 528 OFFCURVE",
"303 528 CURVE SMOOTH",
"334 528 OFFCURVE",
"364 520 OFFCURVE",
"388 504 CURVE SMOOTH",
"412 488 OFFCURVE",
"430 464 OFFCURVE",
"438 432 CURVE",
"442 432 LINE",
"459 516 LINE",
"536 516 LINE",
"446 68 LINE",
"519 68 LINE",
"506 0 LINE"
);
},
{
closed = 1;
nodes = (
"275 58 OFFCURVE",
"306 78 OFFCURVE",
"337 109 CURVE SMOOTH",
"372 144 OFFCURVE",
"391 182 OFFCURVE",
"402 233 CURVE SMOOTH",
"427 357 LINE SMOOTH",
"431 380 OFFCURVE",
"422 405 OFFCURVE",
"402 425 CURVE SMOOTH",
"382 444 OFFCURVE",
"352 458 OFFCURVE",
"312 458 CURVE SMOOTH",
"224 458 OFFCURVE",
"170 401 OFFCURVE",
"150 301 CURVE SMOOTH",
"135 226 LINE",
"132 207 OFFCURVE",
"130 190 OFFCURVE",
"130 175 CURVE SMOOTH",
"130 108 OFFCURVE",
"160 58 OFFCURVE",
"227 58 CURVE SMOOTH"
);
},
{
closed = 1;
nodes = (
"419 765 LINE",
"501 622 LINE",
"458 591 LINE",
"365 706 LINE",
"226 590 LINE",
"187 622 LINE",
"325 765 LINE"
);
}
);
width = 583;
}
);
leftKerningGroup = a;
rightKerningGroup = a;
unicode = 00E2;
},
{
glyphname = adieresis;
layers = (
{
layerId = "92E619D5-181B-4123-A4FF-2530258B7CD2";
name = "Regular Italic";
paths = (
{
closed = 1;
nodes = (
"437 0 LINE SMOOTH",
"392 0 OFFCURVE",
"370 25 OFFCURVE",
"370 62 CURVE SMOOTH",
"370 70 OFFCURVE",
"371 79 OFFCURVE",
"373 89 CURVE SMOOTH",
"378 112 LINE",
"375 112 LINE",
"332 25 OFFCURVE",
"284 -12 OFFCURVE",
"208 -12 CURVE SMOOTH",
"113 -12 OFFCURVE",
"51 62 OFFCURVE",
"51 185 CURVE SMOOTH",
"51 261 OFFCURVE",
"72 346 OFFCURVE",
"113 414 CURVE SMOOTH",
"154 481 OFFCURVE",
"218 528 OFFCURVE",
"303 528 CURVE SMOOTH",
"334 528 OFFCURVE",
"364 520 OFFCURVE",
"388 504 CURVE SMOOTH",
"412 488 OFFCURVE",
"430 464 OFFCURVE",
"438 432 CURVE",
"442 432 LINE",
"459 516 LINE",
"536 516 LINE",
"446 68 LINE",
"519 68 LINE",
"506 0 LINE"
);
},
{
closed = 1;
nodes = (
"275 58 OFFCURVE",
"306 78 OFFCURVE",
"337 109 CURVE SMOOTH",
"372 144 OFFCURVE",
"391 182 OFFCURVE",
"402 233 CURVE SMOOTH",
"427 357 LINE SMOOTH",
"431 380 OFFCURVE",
"422 405 OFFCURVE",
"402 425 CURVE SMOOTH",
"382 444 OFFCURVE",
"352 458 OFFCURVE",
"312 458 CURVE SMOOTH",
"224 458 OFFCURVE",
"170 401 OFFCURVE",
"150 301 CURVE SMOOTH",
"135 226 LINE",
"132 207 OFFCURVE",
"130 190 OFFCURVE",
"130 175 CURVE SMOOTH",
"130 108 OFFCURVE",
"160 58 OFFCURVE",
"227 58 CURVE SMOOTH"
);
},
{
closed = 1;
nodes = (
"231 618 OFFCURVE",
"216 630 OFFCURVE",
"216 653 CURVE SMOOTH",
"216 658 OFFCURVE",
"216 663 OFFCURVE",
"219 674 CURVE",
"225 705 OFFCURVE",
"244 721 OFFCURVE",
"275 721 CURVE SMOOTH",
"302 721 OFFCURVE",
"317 709 OFFCURVE",
"317 686 CURVE SMOOTH",
"317 683 OFFCURVE",
"316 676 OFFCURVE",
"314 665 CURVE SMOOTH",
"308 634 OFFCURVE",
"289 618 OFFCURVE",
"258 618 CURVE SMOOTH"
);
},
{
closed = 1;
nodes = (
"413 618 OFFCURVE",
"398 630 OFFCURVE",
"398 653 CURVE SMOOTH",
"398 658 OFFCURVE",
"398 663 OFFCURVE",
"401 674 CURVE",
"407 705 OFFCURVE",
"426 721 OFFCURVE",
"457 721 CURVE SMOOTH",
"484 721 OFFCURVE",
"499 709 OFFCURVE",
"499 686 CURVE SMOOTH",
"499 683 OFFCURVE",
"498 676 OFFCURVE",
"496 665 CURVE SMOOTH",
"490 634 OFFCURVE",
"471 618 OFFCURVE",
"440 618 CURVE SMOOTH"
);
}
);
width = 583;
}
);
leftKerningGroup = a;
rightKerningGroup = a;
unicode = 00E4;
},
{
glyphname = uni1EA1;
layers = (
{
layerId = "92E619D5-181B-4123-A4FF-2530258B7CD2";
name = "Regular Italic";
paths = (
{
closed = 1;
nodes = (
"437 0 LINE SMOOTH",
"392 0 OFFCURVE",
"370 25 OFFCURVE",
"370 62 CURVE SMOOTH",
"370 70 OFFCURVE",
"371 79 OFFCURVE",
"373 89 CURVE SMOOTH",
"378 112 LINE",
"375 112 LINE",
"332 25 OFFCURVE",
"284 -12 OFFCURVE",
"208 -12 CURVE SMOOTH",
"113 -12 OFFCURVE",
"51 62 OFFCURVE",
"51 185 CURVE SMOOTH",
"51 261 OFFCURVE",
"72 346 OFFCURVE",
"113 414 CURVE SMOOTH",
"154 481 OFFCURVE",
"218 528 OFFCURVE",
"303 528 CURVE SMOOTH",
"334 528 OFFCURVE",
"364 520 OFFCURVE",
"388 504 CURVE SMOOTH",
"412 488 OFFCURVE",
"430 464 OFFCURVE",
"438 432 CURVE",
"442 432 LINE",
"459 516 LINE",
"536 516 LINE",
"446 68 LINE",
"519 68 LINE",
"506 0 LINE"
);
},
{
closed = 1;
nodes = (
"275 58 OFFCURVE",
"306 78 OFFCURVE",
"337 109 CURVE SMOOTH",
"372 144 OFFCURVE",
"391 182 OFFCURVE",
"402 233 CURVE SMOOTH",
"427 357 LINE SMOOTH",
"431 380 OFFCURVE",
"422 405 OFFCURVE",
"402 425 CURVE SMOOTH",
"382 444 OFFCURVE",
"352 458 OFFCURVE",
"312 458 CURVE SMOOTH",
"224 458 OFFCURVE",
"170 401 OFFCURVE",
"150 301 CURVE SMOOTH",
"135 226 LINE",
"132 207 OFFCURVE",
"130 190 OFFCURVE",
"130 175 CURVE SMOOTH",
"130 108 OFFCURVE",
"160 58 OFFCURVE",
"227 58 CURVE SMOOTH"
);
},
{
closed = 1;
nodes = (
"202 -169 OFFCURVE",
"187 -157 OFFCURVE",
"187 -134 CURVE SMOOTH",
"187 -129 OFFCURVE",
"187 -124 OFFCURVE",
"190 -113 CURVE",
"196 -82 OFFCURVE",
"215 -66 OFFCURVE",
"246 -66 CURVE SMOOTH",
"273 -66 OFFCURVE",
"288 -78 OFFCURVE",
"288 -101 CURVE SMOOTH",
"288 -104 OFFCURVE",
"287 -111 OFFCURVE",
"285 -122 CURVE SMOOTH",
"279 -153 OFFCURVE",
"260 -169 OFFCURVE",
"229 -169 CURVE SMOOTH"
);
}
);
width = 583;
}
);
leftKerningGroup = a;
rightKerningGroup = a;
unicode = 1EA1;
},
{
glyphname = agrave;
layers = (
{
layerId = "92E619D5-181B-4123-A4FF-2530258B7CD2";
name = "Regular Italic";
paths = (
{
closed = 1;
nodes = (
"437 0 LINE SMOOTH",
"392 0 OFFCURVE",
"370 25 OFFCURVE",
"370 62 CURVE SMOOTH",
"370 70 OFFCURVE",
"371 79 OFFCURVE",
"373 89 CURVE SMOOTH",
"378 112 LINE",
"375 112 LINE",
"332 25 OFFCURVE",
"284 -12 OFFCURVE",
"208 -12 CURVE SMOOTH",
"113 -12 OFFCURVE",
"51 62 OFFCURVE",
"51 185 CURVE SMOOTH",
"51 261 OFFCURVE",
"72 346 OFFCURVE",
"113 414 CURVE SMOOTH",
"154 481 OFFCURVE",
"218 528 OFFCURVE",
"303 528 CURVE SMOOTH",
"334 528 OFFCURVE",
"364 520 OFFCURVE",
"388 504 CURVE SMOOTH",
"412 488 OFFCURVE",
"430 464 OFFCURVE",
"438 432 CURVE",
"442 432 LINE",
"459 516 LINE",
"536 516 LINE",
"446 68 LINE",
"519 68 LINE",
"506 0 LINE"
);
},
{
closed = 1;
nodes = (
"275 58 OFFCURVE",
"306 78 OFFCURVE",
"337 109 CURVE SMOOTH",
"372 144 OFFCURVE",
"391 182 OFFCURVE",
"402 233 CURVE SMOOTH",
"427 357 LINE SMOOTH",
"431 380 OFFCURVE",
"422 405 OFFCURVE",
"402 425 CURVE SMOOTH",
"382 444 OFFCURVE",
"352 458 OFFCURVE",
"312 458 CURVE SMOOTH",
"224 458 OFFCURVE",
"170 401 OFFCURVE",
"150 301 CURVE SMOOTH",
"135 226 LINE",
"132 207 OFFCURVE",
"130 190 OFFCURVE",
"130 175 CURVE SMOOTH",
"130 108 OFFCURVE",
"160 58 OFFCURVE",
"227 58 CURVE SMOOTH"
);
},
{
closed = 1;
nodes = (
"246 744 LINE",
"314 776 LINE",
"375 606 LINE",
"330 585 LINE"
);
}
);
width = 583;
}
);
leftKerningGroup = a;
rightKerningGroup = a;
unicode = 00E0;
},
{
glyphname = uni1EA3;
layers = (
{
layerId = "92E619D5-181B-4123-A4FF-2530258B7CD2";
name = "Regular Italic";
paths = (
{
closed = 1;
nodes = (
"437 0 LINE SMOOTH",
"392 0 OFFCURVE",
"370 25 OFFCURVE",
"370 62 CURVE SMOOTH",
"370 70 OFFCURVE",
"371 79 OFFCURVE",
"373 89 CURVE SMOOTH",
"378 112 LINE",
"375 112 LINE",
"332 25 OFFCURVE",
"284 -12 OFFCURVE",
"208 -12 CURVE SMOOTH",
"113 -12 OFFCURVE",
"51 62 OFFCURVE",
"51 185 CURVE SMOOTH",
"51 261 OFFCURVE",
"72 346 OFFCURVE",
"113 414 CURVE SMOOTH",
"154 481 OFFCURVE",
"218 528 OFFCURVE",
"303 528 CURVE SMOOTH",
"334 528 OFFCURVE",
"364 520 OFFCURVE",
"388 504 CURVE SMOOTH",
"412 488 OFFCURVE",
"430 464 OFFCURVE",
"438 432 CURVE",
"442 432 LINE",
"459 516 LINE",
"536 516 LINE",
"446 68 LINE",
"519 68 LINE",
"506 0 LINE"
);
},
{
closed = 1;
nodes = (
"275 58 OFFCURVE",
"306 78 OFFCURVE",
"337 109 CURVE SMOOTH",
"372 144 OFFCURVE",
"391 182 OFFCURVE",
"402 233 CURVE SMOOTH",
"427 357 LINE SMOOTH",
"431 380 OFFCURVE",
"422 405 OFFCURVE",
"402 425 CURVE SMOOTH",
"382 444 OFFCURVE",
"352 458 OFFCURVE",
"312 458 CURVE SMOOTH",
"224 458 OFFCURVE",
"170 401 OFFCURVE",
"150 301 CURVE SMOOTH",
"135 226 LINE",
"132 207 OFFCURVE",
"130 190 OFFCURVE",
"130 175 CURVE SMOOTH",
"130 108 OFFCURVE",
"160 58 OFFCURVE",
"227 58 CURVE SMOOTH"
);
},
{
closed = 1;
nodes = (
"282 765 LINE",
"389 765 LINE SMOOTH",
"438 765 OFFCURVE",
"451 739 OFFCURVE",
"451 716 CURVE SMOOTH",
"451 683 OFFCURVE",
"425 649 OFFCURVE",
"390 609 CURVE SMOOTH",
"362 577 LINE",
"321 600 LINE",
"390 706 LINE",
"274 706 LINE"
);
}
);
width = 583;
}
);
leftKerningGroup = a;
rightKerningGroup = a;
unicode = 1EA3;
},
{
glyphname = amacron;
layers = (
{
layerId = "92E619D5-181B-4123-A4FF-2530258B7CD2";
name = "Regular Italic";
paths = (
{
closed = 1;
nodes = (
"437 0 LINE SMOOTH",
"392 0 OFFCURVE",
"370 25 OFFCURVE",
"370 62 CURVE SMOOTH",
"370 70 OFFCURVE",
"371 79 OFFCURVE",
"373 89 CURVE SMOOTH",
"378 112 LINE",
"375 112 LINE",
"332 25 OFFCURVE",
"284 -12 OFFCURVE",
"208 -12 CURVE SMOOTH",
"113 -12 OFFCURVE",
"51 62 OFFCURVE",
"51 185 CURVE SMOOTH",
"51 261 OFFCURVE",
"72 346 OFFCURVE",
"113 414 CURVE SMOOTH",
"154 481 OFFCURVE",
"218 528 OFFCURVE",
"303 528 CURVE SMOOTH",
"334 528 OFFCURVE",
"364 520 OFFCURVE",
"388 504 CURVE SMOOTH",
"412 488 OFFCURVE",
"430 464 OFFCURVE",
"438 432 CURVE",
"442 432 LINE",
"459 516 LINE",
"536 516 LINE",
"446 68 LINE",
"519 68 LINE",
"506 0 LINE"
);
},
{
closed = 1;
nodes = (
"275 58 OFFCURVE",
"306 78 OFFCURVE",
"337 109 CURVE SMOOTH",
"372 144 OFFCURVE",
"391 182 OFFCURVE",
"402 233 CURVE SMOOTH",
"427 357 LINE SMOOTH",
"431 380 OFFCURVE",
"422 405 OFFCURVE",
"402 425 CURVE SMOOTH",
"382 444 OFFCURVE",
"352 458 OFFCURVE",
"312 458 CURVE SMOOTH",
"224 458 OFFCURVE",
"170 401 OFFCURVE",
"150 301 CURVE SMOOTH",
"135 226 LINE",
"132 207 OFFCURVE",
"130 190 OFFCURVE",
"130 175 CURVE SMOOTH",
"130 108 OFFCURVE",
"160 58 OFFCURVE",
"227 58 CURVE SMOOTH"
);
},
{
closed = 1;
nodes = (
"229 705 LINE",
"501 705 LINE",
"487 639 LINE",
"215 639 LINE"
);
}
);
width = 583;
}
);
leftKerningGroup = a;
rightKerningGroup = a;
unicode = 0101;
},
{
glyphname = aogonek;
layers = (
{
layerId = "92E619D5-181B-4123-A4FF-2530258B7CD2";
name = "Regular Italic";
paths = (
{
closed = 1;
nodes = (
"506 0 LINE",
"454 -35 OFFCURVE",
"424 -60 OFFCURVE",
"408 -79 CURVE SMOOTH",
"391 -99 OFFCURVE",
"388 -111 OFFCURVE",
"388 -122 CURVE SMOOTH",
"388 -143 OFFCURVE",
"402 -153 OFFCURVE",
"421 -153 CURVE SMOOTH",
"437 -153 OFFCURVE",
"456 -145 OFFCURVE",
"475 -126 CURVE",
"512 -170 LINE",
"495 -189 OFFCURVE",
"463 -207 OFFCURVE",
"416 -207 CURVE SMOOTH",
"391 -207 OFFCURVE",
"368 -202 OFFCURVE",
"350 -190 CURVE SMOOTH",
"332 -178 OFFCURVE",
"320 -159 OFFCURVE",
"320 -132 CURVE SMOOTH",
"320 -76 OFFCURVE",
"369 -40 OFFCURVE",
"445 -5 CURVE",
"444 0 LINE",
"437 0 LINE SMOOTH",
"392 0 OFFCURVE",
"370 25 OFFCURVE",
"370 62 CURVE SMOOTH",
"370 70 OFFCURVE",
"371 79 OFFCURVE",
"373 89 CURVE SMOOTH",
"378 112 LINE",
"375 112 LINE",
"332 25 OFFCURVE",
"284 -12 OFFCURVE",
"208 -12 CURVE SMOOTH",
"113 -12 OFFCURVE",
"51 62 OFFCURVE",
"51 185 CURVE SMOOTH",
"51 261 OFFCURVE",
"72 346 OFFCURVE",
"113 414 CURVE SMOOTH",
"154 481 OFFCURVE",
"218 528 OFFCURVE",
"303 528 CURVE SMOOTH",
"334 528 OFFCURVE",
"364 520 OFFCURVE",
"388 504 CURVE SMOOTH",
"412 488 OFFCURVE",
"430 464 OFFCURVE",
"438 432 CURVE",
"442 432 LINE",
"459 516 LINE",
"536 516 LINE",
"446 68 LINE",
"519 68 LINE"
);
},
{
closed = 1;
nodes = (
"275 58 OFFCURVE",
"306 78 OFFCURVE",
"337 109 CURVE SMOOTH",
"372 144 OFFCURVE",
"391 182 OFFCURVE",
"402 233 CURVE SMOOTH",
"427 357 LINE SMOOTH",
"431 380 OFFCURVE",
"422 405 OFFCURVE",
"402 425 CURVE SMOOTH",
"382 444 OFFCURVE",
"352 458 OFFCURVE",
"312 458 CURVE SMOOTH",
"224 458 OFFCURVE",
"170 401 OFFCURVE",
"150 301 CURVE SMOOTH",
"135 226 LINE",
"132 207 OFFCURVE",
"130 190 OFFCURVE",
"130 175 CURVE SMOOTH",
"130 108 OFFCURVE",
"160 58 OFFCURVE",
"227 58 CURVE SMOOTH"
);
}
);
width = 583;
}
);
leftKerningGroup = a;
rightKerningGroup = a;
unicode = 0105;
},
{
glyphname = aring;
layers = (
{
layerId = "92E619D5-181B-4123-A4FF-2530258B7CD2";
name = "Regular Italic";
paths = (
{
closed = 1;
nodes = (
"437 0 LINE SMOOTH",
"392 0 OFFCURVE",
"370 25 OFFCURVE",
"370 62 CURVE SMOOTH",
"370 70 OFFCURVE",
"371 79 OFFCURVE",
"373 89 CURVE SMOOTH",
"378 112 LINE",
"375 112 LINE",
"332 25 OFFCURVE",
"284 -12 OFFCURVE",
"208 -12 CURVE SMOOTH",
"113 -12 OFFCURVE",
"51 62 OFFCURVE",
"51 185 CURVE SMOOTH",
"51 261 OFFCURVE",
"72 346 OFFCURVE",
"113 414 CURVE SMOOTH",
"154 481 OFFCURVE",
"218 528 OFFCURVE",
"303 528 CURVE SMOOTH",
"334 528 OFFCURVE",
"364 520 OFFCURVE",
"388 504 CURVE SMOOTH",
"412 488 OFFCURVE",
"430 464 OFFCURVE",
"438 432 CURVE",
"442 432 LINE",
"459 516 LINE",
"536 516 LINE",
"446 68 LINE",
"519 68 LINE",
"506 0 LINE"
);
},
{
closed = 1;
nodes = (
"275 58 OFFCURVE",
"306 78 OFFCURVE",
"337 109 CURVE SMOOTH",
"372 144 OFFCURVE",
"391 182 OFFCURVE",
"402 233 CURVE SMOOTH",
"427 357 LINE SMOOTH",
"431 380 OFFCURVE",
"422 405 OFFCURVE",
"402 425 CURVE SMOOTH",
"382 444 OFFCURVE",
"352 458 OFFCURVE",
"312 458 CURVE SMOOTH",
"224 458 OFFCURVE",
"170 401 OFFCURVE",
"150 301 CURVE SMOOTH",
"135 226 LINE",
"132 207 OFFCURVE",
"130 190 OFFCURVE",
"130 175 CURVE SMOOTH",
"130 108 OFFCURVE",
"160 58 OFFCURVE",
"227 58 CURVE SMOOTH"
);
},
{
closed = 1;
nodes = (
"287 576 OFFCURVE",
"247 619 OFFCURVE",
"247 676 CURVE SMOOTH",
"247 756 OFFCURVE",
"297 806 OFFCURVE",
"376 806 CURVE SMOOTH",
"436 806 OFFCURVE",
"476 763 OFFCURVE",
"476 706 CURVE SMOOTH",
"476 626 OFFCURVE",
"426 576 OFFCURVE",
"347 576 CURVE SMOOTH"
);
},
{
closed = 1;
nodes = (
"388 624 OFFCURVE",
"409 643 OFFCURVE",
"416 680 CURVE",
"419 693 OFFCURVE",
"420 703 OFFCURVE",
"420 711 CURVE SMOOTH",
"420 742 OFFCURVE",
"403 758 OFFCURVE",
"370 758 CURVE SMOOTH",
"335 758 OFFCURVE",
"314 739 OFFCURVE",
"307 702 CURVE",
"304 689 OFFCURVE",
"303 679 OFFCURVE",
"303 671 CURVE SMOOTH",
"303 640 OFFCURVE",
"320 624 OFFCURVE",
"353 624 CURVE SMOOTH"
);
}
);
width = 583;
}
);
leftKerningGroup = a;
rightKerningGroup = a;
unicode = 00E5;
},
{
glyphname = aringacute;
layers = (
{
layerId = "92E619D5-181B-4123-A4FF-2530258B7CD2";
name = "Regular Italic";
paths = (
{
closed = 1;
nodes = (
"437 0 LINE SMOOTH",
"392 0 OFFCURVE",
"370 25 OFFCURVE",
"370 62 CURVE SMOOTH",
"370 70 OFFCURVE",
"371 79 OFFCURVE",
"373 89 CURVE SMOOTH",
"378 112 LINE",
"375 112 LINE",
"332 25 OFFCURVE",
"284 -12 OFFCURVE",
"208 -12 CURVE SMOOTH",
"113 -12 OFFCURVE",
"51 62 OFFCURVE",
"51 185 CURVE SMOOTH",
"51 261 OFFCURVE",
"72 346 OFFCURVE",
"113 414 CURVE SMOOTH",
"154 481 OFFCURVE",
"218 528 OFFCURVE",
"303 528 CURVE SMOOTH",
"334 528 OFFCURVE",
"364 520 OFFCURVE",
"388 504 CURVE SMOOTH",
"412 488 OFFCURVE",
"430 464 OFFCURVE",
"438 432 CURVE",
"442 432 LINE",
"459 516 LINE",
"536 516 LINE",
"446 68 LINE",
"519 68 LINE",
"506 0 LINE"
);
},
{
closed = 1;
nodes = (
"275 58 OFFCURVE",
"306 78 OFFCURVE",
"337 109 CURVE SMOOTH",
"372 144 OFFCURVE",
"391 182 OFFCURVE",
"402 233 CURVE SMOOTH",
"427 357 LINE SMOOTH",
"431 380 OFFCURVE",
"422 405 OFFCURVE",
"402 425 CURVE SMOOTH",
"382 444 OFFCURVE",
"352 458 OFFCURVE",
"312 458 CURVE SMOOTH",
"224 458 OFFCURVE",
"170 401 OFFCURVE",
"150 301 CURVE SMOOTH",
"135 226 LINE",
"132 207 OFFCURVE",
"130 190 OFFCURVE",
"130 175 CURVE SMOOTH",
"130 108 OFFCURVE",
"160 58 OFFCURVE",
"227 58 CURVE SMOOTH"
);
},
{
closed = 1;
nodes = (
"385 814 LINE",
"348 841 LINE",
"437 957 LINE",
"491 919 LINE"
);
},
{
closed = 1;
nodes = (
"284 566 OFFCURVE",
"244 609 OFFCURVE",
"244 666 CURVE SMOOTH",
"244 746 OFFCURVE",
"294 796 OFFCURVE",
"373 796 CURVE SMOOTH",
"433 796 OFFCURVE",
"473 753 OFFCURVE",
"473 697 CURVE SMOOTH",
"473 617 OFFCURVE",
"423 566 OFFCURVE",
"344 566 CURVE SMOOTH"
);
},
{
closed = 1;
nodes = (
"385 614 OFFCURVE",
"406 633 OFFCURVE",
"413 670 CURVE",
"416 683 OFFCURVE",
"417 694 OFFCURVE",
"417 702 CURVE SMOOTH",
"417 733 OFFCURVE",
"400 748 OFFCURVE",
"367 748 CURVE SMOOTH",
"332 748 OFFCURVE",
"311 730 OFFCURVE",
"304 693 CURVE",
"301 680 OFFCURVE",
"300 669 OFFCURVE",
"300 661 CURVE SMOOTH",
"300 630 OFFCURVE",
"317 614 OFFCURVE",
"350 614 CURVE SMOOTH"
);
}
);
width = 583;
}
);
leftKerningGroup = a;
rightKerningGroup = a;
unicode = 01FB;
},
{
glyphname = atilde;
layers = (
{
layerId = "92E619D5-181B-4123-A4FF-2530258B7CD2";
name = "Regular Italic";
paths = (
{
closed = 1;
nodes = (
"437 0 LINE SMOOTH",
"392 0 OFFCURVE",
"370 25 OFFCURVE",
"370 62 CURVE SMOOTH",
"370 70 OFFCURVE",
"371 79 OFFCURVE",
"373 89 CURVE SMOOTH",
"378 112 LINE",
"375 112 LINE",
"332 25 OFFCURVE",
"284 -12 OFFCURVE",
"208 -12 CURVE SMOOTH",
"113 -12 OFFCURVE",
"51 62 OFFCURVE",
"51 185 CURVE SMOOTH",
"51 261 OFFCURVE",
"72 346 OFFCURVE",
"113 414 CURVE SMOOTH",
"154 481 OFFCURVE",
"218 528 OFFCURVE",
"303 528 CURVE SMOOTH",
"334 528 OFFCURVE",
"364 520 OFFCURVE",
"388 504 CURVE SMOOTH",
"412 488 OFFCURVE",
"430 464 OFFCURVE",
"438 432 CURVE",
"442 432 LINE",
"459 516 LINE",
"536 516 LINE",
"446 68 LINE",
"519 68 LINE",
"506 0 LINE"
);
},
{
closed = 1;
nodes = (
"275 58 OFFCURVE",
"306 78 OFFCURVE",
"337 109 CURVE SMOOTH",
"372 144 OFFCURVE",
"391 182 OFFCURVE",
"402 233 CURVE SMOOTH",
"427 357 LINE SMOOTH",
"431 380 OFFCURVE",
"422 405 OFFCURVE",
"402 425 CURVE SMOOTH",
"382 444 OFFCURVE",
"352 458 OFFCURVE",
"312 458 CURVE SMOOTH",
"224 458 OFFCURVE",
"170 401 OFFCURVE",
"150 301 CURVE SMOOTH",
"135 226 LINE",
"132 207 OFFCURVE",
"130 190 OFFCURVE",
"130 175 CURVE SMOOTH",
"130 108 OFFCURVE",
"160 58 OFFCURVE",
"227 58 CURVE SMOOTH"
);
},
{
closed = 1;
nodes = (
"386 612 OFFCURVE",
"366 625 OFFCURVE",
"347 637 CURVE SMOOTH",
"318 656 OFFCURVE",
"299 661 OFFCURVE",
"282 661 CURVE SMOOTH",
"259 661 OFFCURVE",
"245 651 OFFCURVE",
"222 634 CURVE",
"194 673 LINE",
"217 700 OFFCURVE",
"248 726 OFFCURVE",
"293 726 CURVE SMOOTH",
"328 726 OFFCURVE",
"348 713 OFFCURVE",
"367 701 CURVE SMOOTH",
"396 682 OFFCURVE",
"415 677 OFFCURVE",
"432 677 CURVE SMOOTH",
"455 677 OFFCURVE",
"469 687 OFFCURVE",
"492 704 CURVE",
"520 665 LINE",
"497 638 OFFCURVE",
"466 612 OFFCURVE",
"421 612 CURVE SMOOTH"
);
}
);
width = 583;
}
);
leftKerningGroup = a;
rightKerningGroup = a;
unicode = 00E3;
},
{
glyphname = uni1EAF;
layers = (
{
layerId = "92E619D5-181B-4123-A4FF-2530258B7CD2";
name = "Regular Italic";
paths = (
{
closed = 1;
nodes = (
"437 0 LINE SMOOTH",
"392 0 OFFCURVE",
"370 25 OFFCURVE",
"370 62 CURVE SMOOTH",
"370 70 OFFCURVE",
"371 79 OFFCURVE",
"373 89 CURVE SMOOTH",
"378 112 LINE",
"375 112 LINE",
"332 25 OFFCURVE",
"284 -12 OFFCURVE",
"208 -12 CURVE SMOOTH",
"113 -12 OFFCURVE",
"51 62 OFFCURVE",
"51 185 CURVE SMOOTH",
"51 261 OFFCURVE",
"72 346 OFFCURVE",
"113 414 CURVE SMOOTH",
"154 481 OFFCURVE",
"218 528 OFFCURVE",
"303 528 CURVE SMOOTH",
"334 528 OFFCURVE",
"364 520 OFFCURVE",
"388 504 CURVE SMOOTH",
"412 488 OFFCURVE",
"430 464 OFFCURVE",
"438 432 CURVE",
"442 432 LINE",
"459 516 LINE",
"536 516 LINE",
"446 68 LINE",
"519 68 LINE",
"506 0 LINE"
);
},
{
closed = 1;
nodes = (
"275 58 OFFCURVE",
"306 78 OFFCURVE",
"337 109 CURVE SMOOTH",
"372 144 OFFCURVE",
"391 182 OFFCURVE",
"402 233 CURVE SMOOTH",
"427 357 LINE SMOOTH",
"431 380 OFFCURVE",
"422 405 OFFCURVE",
"402 425 CURVE SMOOTH",
"382 444 OFFCURVE",
"352 458 OFFCURVE",
"312 458 CURVE SMOOTH",
"224 458 OFFCURVE",
"170 401 OFFCURVE",
"150 301 CURVE SMOOTH",
"135 226 LINE",
"132 207 OFFCURVE",
"130 190 OFFCURVE",
"130 175 CURVE SMOOTH",
"130 108 OFFCURVE",
"160 58 OFFCURVE",
"227 58 CURVE SMOOTH"
);
},
{
closed = 1;
nodes = (
"295 585 OFFCURVE",
"264 605 OFFCURVE",
"245 632 CURVE SMOOTH",
"225 659 OFFCURVE",
"217 692 OFFCURVE",
"213 719 CURVE",
"259 739 LINE",
"267 717 LINE SMOOTH",
"286 666 OFFCURVE",
"306 643 OFFCURVE",
"346 643 CURVE SMOOTH",
"382 643 OFFCURVE",
"413 658 OFFCURVE",
"448 714 CURVE SMOOTH",
"463 739 LINE",
"511 719 LINE",
"498 691 OFFCURVE",
"481 658 OFFCURVE",
"454 631 CURVE SMOOTH",
"427 604 OFFCURVE",
"392 585 OFFCURVE",
"344 585 CURVE SMOOTH"
);
},
{
closed = 1;
nodes = (
"366 697 LINE",
"318 722 LINE",
"422 892 LINE",
"489 857 LINE"
);
}
);
width = 583;
}
);
leftKerningGroup = a;
rightKerningGroup = a;
unicode = 1EAF;
},
{
glyphname = uni1EB7;
layers = (
{
layerId = "92E619D5-181B-4123-A4FF-2530258B7CD2";
name = "Regular Italic";
paths = (
{
closed = 1;
nodes = (
"437 0 LINE SMOOTH",
"392 0 OFFCURVE",
"370 25 OFFCURVE",
"370 62 CURVE SMOOTH",
"370 70 OFFCURVE",
"371 79 OFFCURVE",
"373 89 CURVE SMOOTH",
"378 112 LINE",
"375 112 LINE",
"332 25 OFFCURVE",
"284 -12 OFFCURVE",
"208 -12 CURVE SMOOTH",
"113 -12 OFFCURVE",
"51 62 OFFCURVE",
"51 185 CURVE SMOOTH",
"51 261 OFFCURVE",
"72 346 OFFCURVE",
"113 414 CURVE SMOOTH",
"154 481 OFFCURVE",
"218 528 OFFCURVE",
"303 528 CURVE SMOOTH",
"334 528 OFFCURVE",
"364 520 OFFCURVE",
"388 504 CURVE SMOOTH",
"412 488 OFFCURVE",
"430 464 OFFCURVE",
"438 432 CURVE",
"442 432 LINE",
"459 516 LINE",
"536 516 LINE",
"446 68 LINE",
"519 68 LINE",
"506 0 LINE"
);
},
{
closed = 1;
nodes = (
"275 58 OFFCURVE",
"306 78 OFFCURVE",
"337 109 CURVE SMOOTH",
"372 144 OFFCURVE",
"391 182 OFFCURVE",
"402 233 CURVE SMOOTH",
"427 357 LINE SMOOTH",
"431 380 OFFCURVE",
"422 405 OFFCURVE",
"402 425 CURVE SMOOTH",
"382 444 OFFCURVE",
"352 458 OFFCURVE",
"312 458 CURVE SMOOTH",
"224 458 OFFCURVE",
"170 401 OFFCURVE",
"150 301 CURVE SMOOTH",
"135 226 LINE",
"132 207 OFFCURVE",
"130 190 OFFCURVE",
"130 175 CURVE SMOOTH",
"130 108 OFFCURVE",
"160 58 OFFCURVE",
"227 58 CURVE SMOOTH"
);
},
{
closed = 1;
nodes = (
"298 596 OFFCURVE",
"267 616 OFFCURVE",
"248 643 CURVE SMOOTH",
"228 670 OFFCURVE",
"220 703 OFFCURVE",
"216 730 CURVE",
"262 750 LINE",
"272 728 LINE SMOOTH",
"293 681 OFFCURVE",
"310 657 OFFCURVE",
"349 657 CURVE SMOOTH",
"385 657 OFFCURVE",
"410 677 OFFCURVE",
"449 728 CURVE SMOOTH",
"466 750 LINE",
"514 730 LINE",
"501 702 OFFCURVE",
"484 669 OFFCURVE",
"457 642 CURVE SMOOTH",
"430 615 OFFCURVE",
"395 596 OFFCURVE",
"347 596 CURVE SMOOTH"
);
},
{
closed = 1;
nodes = (
"202 -169 OFFCURVE",
"187 -157 OFFCURVE",
"187 -134 CURVE SMOOTH",
"187 -129 OFFCURVE",
"187 -124 OFFCURVE",
"190 -113 CURVE",
"196 -82 OFFCURVE",
"215 -66 OFFCURVE",
"246 -66 CURVE SMOOTH",
"273 -66 OFFCURVE",
"288 -78 OFFCURVE",
"288 -101 CURVE SMOOTH",
"288 -104 OFFCURVE",
"287 -111 OFFCURVE",
"285 -122 CURVE SMOOTH",
"279 -153 OFFCURVE",
"260 -169 OFFCURVE",
"229 -169 CURVE SMOOTH"
);
}
);
width = 583;
}
);
leftKerningGroup = a;
rightKerningGroup = a;
unicode = 1EB7;
},
{
glyphname = uni1EB1;
layers = (
{
layerId = "92E619D5-181B-4123-A4FF-2530258B7CD2";
name = "Regular Italic";
paths = (
{
closed = 1;
nodes = (
"437 0 LINE SMOOTH",
"392 0 OFFCURVE",
"370 25 OFFCURVE",
"370 62 CURVE SMOOTH",
"370 70 OFFCURVE",
"371 79 OFFCURVE",
"373 89 CURVE SMOOTH",
"378 112 LINE",
"375 112 LINE",
"332 25 OFFCURVE",
"284 -12 OFFCURVE",
"208 -12 CURVE SMOOTH",
"113 -12 OFFCURVE",
"51 62 OFFCURVE",
"51 185 CURVE SMOOTH",
"51 261 OFFCURVE",
"72 346 OFFCURVE",
"113 414 CURVE SMOOTH",
"154 481 OFFCURVE",
"218 528 OFFCURVE",
"303 528 CURVE SMOOTH",
"334 528 OFFCURVE",
"364 520 OFFCURVE",
"388 504 CURVE SMOOTH",
"412 488 OFFCURVE",
"430 464 OFFCURVE",
"438 432 CURVE",
"442 432 LINE",
"459 516 LINE",
"536 516 LINE",
"446 68 LINE",
"519 68 LINE",
"506 0 LINE"
);
},
{
closed = 1;
nodes = (
"275 58 OFFCURVE",
"306 78 OFFCURVE",
"337 109 CURVE SMOOTH",
"372 144 OFFCURVE",
"391 182 OFFCURVE",
"402 233 CURVE SMOOTH",
"427 357 LINE SMOOTH",
"431 380 OFFCURVE",
"422 405 OFFCURVE",
"402 425 CURVE SMOOTH",
"382 444 OFFCURVE",
"352 458 OFFCURVE",
"312 458 CURVE SMOOTH",
"224 458 OFFCURVE",
"170 401 OFFCURVE",
"150 301 CURVE SMOOTH",
"135 226 LINE",
"132 207 OFFCURVE",
"130 190 OFFCURVE",
"130 175 CURVE SMOOTH",
"130 108 OFFCURVE",
"160 58 OFFCURVE",
"227 58 CURVE SMOOTH"
);
},
{
closed = 1;
nodes = (
"295 585 OFFCURVE",
"264 605 OFFCURVE",
"245 632 CURVE SMOOTH",
"225 659 OFFCURVE",
"217 692 OFFCURVE",
"213 719 CURVE",
"259 739 LINE",
"267 717 LINE SMOOTH",
"286 666 OFFCURVE",
"306 643 OFFCURVE",
"346 643 CURVE SMOOTH",
"382 643 OFFCURVE",
"413 658 OFFCURVE",
"448 714 CURVE SMOOTH",
"463 739 LINE",
"511 719 LINE",
"498 691 OFFCURVE",
"481 658 OFFCURVE",
"454 631 CURVE SMOOTH",
"427 604 OFFCURVE",
"392 585 OFFCURVE",
"344 585 CURVE SMOOTH"
);
},
{
closed = 1;
nodes = (
"258 860 LINE",
"327 891 LINE",
"388 721 LINE",
"342 700 LINE"
);
}
);
width = 583;
}
);
leftKerningGroup = a;
rightKerningGroup = a;
unicode = 1EB1;
},
{
glyphname = uni1EB3;
layers = (
{
layerId = "92E619D5-181B-4123-A4FF-2530258B7CD2";
name = "Regular Italic";
paths = (
{
closed = 1;
nodes = (
"437 0 LINE SMOOTH",
"392 0 OFFCURVE",
"370 25 OFFCURVE",
"370 62 CURVE SMOOTH",
"370 70 OFFCURVE",
"371 79 OFFCURVE",
"373 89 CURVE SMOOTH",
"378 112 LINE",
"375 112 LINE",
"332 25 OFFCURVE",
"284 -12 OFFCURVE",
"208 -12 CURVE SMOOTH",
"113 -12 OFFCURVE",
"51 62 OFFCURVE",
"51 185 CURVE SMOOTH",
"51 261 OFFCURVE",
"72 346 OFFCURVE",
"113 414 CURVE SMOOTH",
"154 481 OFFCURVE",
"218 528 OFFCURVE",
"303 528 CURVE SMOOTH",
"334 528 OFFCURVE",
"364 520 OFFCURVE",
"388 504 CURVE SMOOTH",
"412 488 OFFCURVE",
"430 464 OFFCURVE",
"438 432 CURVE",
"442 432 LINE",
"459 516 LINE",
"536 516 LINE",
"446 68 LINE",
"519 68 LINE",
"506 0 LINE"
);
},
{
closed = 1;
nodes = (
"275 58 OFFCURVE",
"306 78 OFFCURVE",
"337 109 CURVE SMOOTH",
"372 144 OFFCURVE",
"391 182 OFFCURVE",
"402 233 CURVE SMOOTH",
"427 357 LINE SMOOTH",
"431 380 OFFCURVE",
"422 405 OFFCURVE",
"402 425 CURVE SMOOTH",
"382 444 OFFCURVE",
"352 458 OFFCURVE",
"312 458 CURVE SMOOTH",
"224 458 OFFCURVE",
"170 401 OFFCURVE",
"150 301 CURVE SMOOTH",
"135 226 LINE",
"132 207 OFFCURVE",
"130 190 OFFCURVE",
"130 175 CURVE SMOOTH",
"130 108 OFFCURVE",
"160 58 OFFCURVE",
"227 58 CURVE SMOOTH"
);
},
{
closed = 1;
nodes = (
"295 585 OFFCURVE",
"264 605 OFFCURVE",
"245 632 CURVE SMOOTH",
"225 659 OFFCURVE",
"217 692 OFFCURVE",
"213 719 CURVE",
"259 739 LINE",
"267 717 LINE SMOOTH",
"286 666 OFFCURVE",
"306 643 OFFCURVE",
"346 643 CURVE SMOOTH",
"382 643 OFFCURVE",
"413 658 OFFCURVE",
"448 714 CURVE SMOOTH",
"463 739 LINE",
"511 719 LINE",
"498 691 OFFCURVE",
"481 658 OFFCURVE",
"454 631 CURVE SMOOTH",
"427 604 OFFCURVE",
"392 585 OFFCURVE",
"344 585 CURVE SMOOTH"
);
},
{
closed = 1;
nodes = (
"289 880 LINE",
"396 880 LINE SMOOTH",
"445 880 OFFCURVE",
"458 854 OFFCURVE",
"458 831 CURVE SMOOTH",
"458 798 OFFCURVE",
"432 764 OFFCURVE",
"397 724 CURVE SMOOTH",
"369 692 LINE",
"328 715 LINE",
"397 823 LINE",
"281 823 LINE"
);
}
);
width = 583;
}
);
leftKerningGroup = a;
rightKerningGroup = a;
unicode = 1EB3;
},
{
glyphname = uni1EB5;
layers = (
{
layerId = "92E619D5-181B-4123-A4FF-2530258B7CD2";
name = "Regular Italic";
paths = (
{
closed = 1;
nodes = (
"437 0 LINE SMOOTH",
"392 0 OFFCURVE",
"370 25 OFFCURVE",
"370 62 CURVE SMOOTH",
"370 70 OFFCURVE",
"371 79 OFFCURVE",
"373 89 CURVE SMOOTH",
"378 112 LINE",
"375 112 LINE",
"332 25 OFFCURVE",
"284 -12 OFFCURVE",
"208 -12 CURVE SMOOTH",
"113 -12 OFFCURVE",
"51 62 OFFCURVE",
"51 185 CURVE SMOOTH",
"51 261 OFFCURVE",
"72 346 OFFCURVE",
"113 414 CURVE SMOOTH",
"154 481 OFFCURVE",
"218 528 OFFCURVE",
"303 528 CURVE SMOOTH",
"334 528 OFFCURVE",
"364 520 OFFCURVE",
"388 504 CURVE SMOOTH",
"412 488 OFFCURVE",
"430 464 OFFCURVE",
"438 432 CURVE",
"442 432 LINE",
"459 516 LINE",
"536 516 LINE",
"446 68 LINE",
"519 68 LINE",
"506 0 LINE"
);
},
{
closed = 1;
nodes = (
"275 58 OFFCURVE",
"306 78 OFFCURVE",
"337 109 CURVE SMOOTH",
"372 144 OFFCURVE",
"391 182 OFFCURVE",
"402 233 CURVE SMOOTH",
"427 357 LINE SMOOTH",
"431 380 OFFCURVE",
"422 405 OFFCURVE",
"402 425 CURVE SMOOTH",
"382 444 OFFCURVE",
"352 458 OFFCURVE",
"312 458 CURVE SMOOTH",
"224 458 OFFCURVE",
"170 401 OFFCURVE",
"150 301 CURVE SMOOTH",
"135 226 LINE",
"132 207 OFFCURVE",
"130 190 OFFCURVE",
"130 175 CURVE SMOOTH",
"130 108 OFFCURVE",
"160 58 OFFCURVE",
"227 58 CURVE SMOOTH"
);
},
{
closed = 1;
nodes = (
"295 585 OFFCURVE",
"264 605 OFFCURVE",
"245 632 CURVE SMOOTH",
"225 659 OFFCURVE",
"217 692 OFFCURVE",
"213 719 CURVE",
"259 739 LINE",
"267 717 LINE SMOOTH",
"286 666 OFFCURVE",
"306 643 OFFCURVE",
"346 643 CURVE SMOOTH",
"382 643 OFFCURVE",
"413 658 OFFCURVE",
"448 714 CURVE SMOOTH",
"463 739 LINE",
"511 719 LINE",
"498 691 OFFCURVE",
"481 658 OFFCURVE",
"454 631 CURVE SMOOTH",
"427 604 OFFCURVE",
"392 585 OFFCURVE",
"344 585 CURVE SMOOTH"
);
},
{
closed = 1;
nodes = (
"405 772 OFFCURVE",
"384 787 OFFCURVE",
"365 798 CURVE",
"336 817 OFFCURVE",
"317 822 OFFCURVE",
"300 822 CURVE SMOOTH",
"279 822 OFFCURVE",
"263 813 OFFCURVE",
"240 796 CURVE",
"213 833 LINE",
"232 860 OFFCURVE",
"266 884 OFFCURVE",
"311 884 CURVE SMOOTH",
"346 884 OFFCURVE",
"367 869 OFFCURVE",
"386 858 CURVE",
"415 839 OFFCURVE",
"434 834 OFFCURVE",
"451 834 CURVE SMOOTH",
"472 834 OFFCURVE",
"489 844 OFFCURVE",
"512 861 CURVE",
"538 827 LINE",
"518 799 OFFCURVE",
"485 772 OFFCURVE",
"440 772 CURVE SMOOTH"
);
}
);
width = 583;
}
);
leftKerningGroup = a;
rightKerningGroup = a;
unicode = 1EB5;
},
{
glyphname = uni1EA5;
layers = (
{
layerId = "92E619D5-181B-4123-A4FF-2530258B7CD2";
name = "Regular Italic";
paths = (
{
closed = 1;
nodes = (
"437 0 LINE SMOOTH",
"392 0 OFFCURVE",
"370 25 OFFCURVE",
"370 62 CURVE SMOOTH",
"370 70 OFFCURVE",
"371 79 OFFCURVE",
"373 89 CURVE SMOOTH",
"378 112 LINE",
"375 112 LINE",
"332 25 OFFCURVE",
"284 -12 OFFCURVE",
"208 -12 CURVE SMOOTH",
"113 -12 OFFCURVE",
"51 62 OFFCURVE",
"51 185 CURVE SMOOTH",
"51 261 OFFCURVE",
"72 346 OFFCURVE",
"113 414 CURVE SMOOTH",
"154 481 OFFCURVE",
"218 528 OFFCURVE",
"303 528 CURVE SMOOTH",
"334 528 OFFCURVE",
"364 520 OFFCURVE",
"388 504 CURVE SMOOTH",
"412 488 OFFCURVE",
"430 464 OFFCURVE",
"438 432 CURVE",
"442 432 LINE",
"459 516 LINE",
"536 516 LINE",
"446 68 LINE",
"519 68 LINE",
"506 0 LINE"
);
},
{
closed = 1;
nodes = (
"275 58 OFFCURVE",
"306 78 OFFCURVE",
"337 109 CURVE SMOOTH",
"372 144 OFFCURVE",
"391 182 OFFCURVE",
"402 233 CURVE SMOOTH",
"427 357 LINE SMOOTH",
"431 380 OFFCURVE",
"422 405 OFFCURVE",
"402 425 CURVE SMOOTH",
"382 444 OFFCURVE",
"352 458 OFFCURVE",
"312 458 CURVE SMOOTH",
"224 458 OFFCURVE",
"170 401 OFFCURVE",
"150 301 CURVE SMOOTH",
"135 226 LINE",
"132 207 OFFCURVE",
"130 190 OFFCURVE",
"130 175 CURVE SMOOTH",
"130 108 OFFCURVE",
"160 58 OFFCURVE",
"227 58 CURVE SMOOTH"
);
},
{
closed = 1;
nodes = (
"507 706 LINE",
"459 731 LINE",
"562 901 LINE",
"630 866 LINE"
);
},
{
closed = 1;
nodes = (
"417 745 LINE",
"501 613 LINE",
"460 581 LINE",
"365 693 LINE",
"235 581 LINE",
"194 613 LINE",
"323 745 LINE"
);
}
);
width = 583;
}
);
leftKerningGroup = a;
rightKerningGroup = a;
unicode = 1EA5;
},
{
glyphname = uni1EAD;
layers = (
{
layerId = "92E619D5-181B-4123-A4FF-2530258B7CD2";
name = "Regular Italic";
paths = (
{
closed = 1;
nodes = (
"437 0 LINE SMOOTH",
"392 0 OFFCURVE",
"370 25 OFFCURVE",
"370 62 CURVE SMOOTH",
"370 70 OFFCURVE",
"371 79 OFFCURVE",
"373 89 CURVE SMOOTH",
"378 112 LINE",
"375 112 LINE",
"332 25 OFFCURVE",
"284 -12 OFFCURVE",
"208 -12 CURVE SMOOTH",
"113 -12 OFFCURVE",
"51 62 OFFCURVE",
"51 185 CURVE SMOOTH",
"51 261 OFFCURVE",
"72 346 OFFCURVE",
"113 414 CURVE SMOOTH",
"154 481 OFFCURVE",
"218 528 OFFCURVE",
"303 528 CURVE SMOOTH",
"334 528 OFFCURVE",
"364 520 OFFCURVE",
"388 504 CURVE SMOOTH",
"412 488 OFFCURVE",
"430 464 OFFCURVE",
"438 432 CURVE",
"442 432 LINE",
"459 516 LINE",
"536 516 LINE",
"446 68 LINE",
"519 68 LINE",
"506 0 LINE"
);
},
{
closed = 1;
nodes = (
"275 58 OFFCURVE",
"306 78 OFFCURVE",
"337 109 CURVE SMOOTH",
"372 144 OFFCURVE",
"391 182 OFFCURVE",
"402 233 CURVE SMOOTH",
"427 357 LINE SMOOTH",
"431 380 OFFCURVE",
"422 405 OFFCURVE",
"402 425 CURVE SMOOTH",
"382 444 OFFCURVE",
"352 458 OFFCURVE",
"312 458 CURVE SMOOTH",
"224 458 OFFCURVE",
"170 401 OFFCURVE",
"150 301 CURVE SMOOTH",
"135 226 LINE",
"132 207 OFFCURVE",
"130 190 OFFCURVE",
"130 175 CURVE SMOOTH",
"130 108 OFFCURVE",
"160 58 OFFCURVE",
"227 58 CURVE SMOOTH"
);
},
{
closed = 1;
nodes = (
"419 765 LINE",
"501 622 LINE",
"458 591 LINE",
"365 706 LINE",
"226 590 LINE",
"187 622 LINE",
"325 765 LINE"
);
},
{
closed = 1;
nodes = (
"202 -169 OFFCURVE",
"187 -157 OFFCURVE",
"187 -134 CURVE SMOOTH",
"187 -129 OFFCURVE",
"187 -124 OFFCURVE",
"190 -113 CURVE",
"196 -82 OFFCURVE",
"215 -66 OFFCURVE",
"246 -66 CURVE SMOOTH",
"273 -66 OFFCURVE",
"288 -78 OFFCURVE",
"288 -101 CURVE SMOOTH",
"288 -104 OFFCURVE",
"287 -111 OFFCURVE",
"285 -122 CURVE SMOOTH",
"279 -153 OFFCURVE",
"260 -169 OFFCURVE",
"229 -169 CURVE SMOOTH"
);
}
);
width = 583;
}
);
leftKerningGroup = a;
rightKerningGroup = a;
unicode = 1EAD;
},
{
glyphname = uni1EA7;
layers = (
{
layerId = "92E619D5-181B-4123-A4FF-2530258B7CD2";
name = "Regular Italic";
paths = (
{
closed = 1;
nodes = (
"437 0 LINE SMOOTH",
"392 0 OFFCURVE",
"370 25 OFFCURVE",
"370 62 CURVE SMOOTH",
"370 70 OFFCURVE",
"371 79 OFFCURVE",
"373 89 CURVE SMOOTH",
"378 112 LINE",
"375 112 LINE",
"332 25 OFFCURVE",
"284 -12 OFFCURVE",
"208 -12 CURVE SMOOTH",
"113 -12 OFFCURVE",
"51 62 OFFCURVE",
"51 185 CURVE SMOOTH",
"51 261 OFFCURVE",
"72 346 OFFCURVE",
"113 414 CURVE SMOOTH",
"154 481 OFFCURVE",
"218 528 OFFCURVE",
"303 528 CURVE SMOOTH",
"334 528 OFFCURVE",
"364 520 OFFCURVE",
"388 504 CURVE SMOOTH",
"412 488 OFFCURVE",
"430 464 OFFCURVE",
"438 432 CURVE",
"442 432 LINE",
"459 516 LINE",
"536 516 LINE",
"446 68 LINE",
"519 68 LINE",
"506 0 LINE"
);
},
{
closed = 1;
nodes = (
"275 58 OFFCURVE",
"306 78 OFFCURVE",
"337 109 CURVE SMOOTH",
"372 144 OFFCURVE",
"391 182 OFFCURVE",
"402 233 CURVE SMOOTH",
"427 357 LINE SMOOTH",
"431 380 OFFCURVE",
"422 405 OFFCURVE",
"402 425 CURVE SMOOTH",
"382 444 OFFCURVE",
"352 458 OFFCURVE",
"312 458 CURVE SMOOTH",
"224 458 OFFCURVE",
"170 401 OFFCURVE",
"150 301 CURVE SMOOTH",
"135 226 LINE",
"132 207 OFFCURVE",
"130 190 OFFCURVE",
"130 175 CURVE SMOOTH",
"130 108 OFFCURVE",
"160 58 OFFCURVE",
"227 58 CURVE SMOOTH"
);
},
{
closed = 1;
nodes = (
"137 860 LINE",
"205 891 LINE",
"266 721 LINE",
"222 700 LINE"
);
},
{
closed = 1;
nodes = (
"416 745 LINE",
"500 613 LINE",
"459 581 LINE",
"364 693 LINE",
"234 581 LINE",
"193 613 LINE",
"322 745 LINE"
);
}
);
width = 583;
}
);
leftKerningGroup = a;
rightKerningGroup = a;
unicode = 1EA7;
},
{
glyphname = uni1EA9;
layers = (
{
layerId = "92E619D5-181B-4123-A4FF-2530258B7CD2";
name = "Regular Italic";
paths = (
{
closed = 1;
nodes = (
"437 0 LINE SMOOTH",
"392 0 OFFCURVE",
"370 25 OFFCURVE",
"370 62 CURVE SMOOTH",
"370 70 OFFCURVE",
"371 79 OFFCURVE",
"373 89 CURVE SMOOTH",
"378 112 LINE",
"375 112 LINE",
"332 25 OFFCURVE",
"284 -12 OFFCURVE",
"208 -12 CURVE SMOOTH",
"113 -12 OFFCURVE",
"51 62 OFFCURVE",
"51 185 CURVE SMOOTH",
"51 261 OFFCURVE",
"72 346 OFFCURVE",
"113 414 CURVE SMOOTH",
"154 481 OFFCURVE",
"218 528 OFFCURVE",
"303 528 CURVE SMOOTH",
"334 528 OFFCURVE",
"364 520 OFFCURVE",
"388 504 CURVE SMOOTH",
"412 488 OFFCURVE",
"430 464 OFFCURVE",
"438 432 CURVE",
"442 432 LINE",
"459 516 LINE",
"536 516 LINE",
"446 68 LINE",
"519 68 LINE",
"506 0 LINE"
);
},
{
closed = 1;
nodes = (
"275 58 OFFCURVE",
"306 78 OFFCURVE",
"337 109 CURVE SMOOTH",
"372 144 OFFCURVE",
"391 182 OFFCURVE",
"402 233 CURVE SMOOTH",
"427 357 LINE SMOOTH",
"431 380 OFFCURVE",
"422 405 OFFCURVE",
"402 425 CURVE SMOOTH",
"382 444 OFFCURVE",
"352 458 OFFCURVE",
"312 458 CURVE SMOOTH",
"224 458 OFFCURVE",
"170 401 OFFCURVE",
"150 301 CURVE SMOOTH",
"135 226 LINE",
"132 207 OFFCURVE",
"130 190 OFFCURVE",
"130 175 CURVE SMOOTH",
"130 108 OFFCURVE",
"160 58 OFFCURVE",
"227 58 CURVE SMOOTH"
);
},
{
closed = 1;
nodes = (
"423 880 LINE",
"530 880 LINE SMOOTH",
"578 880 OFFCURVE",
"590 855 OFFCURVE",
"590 831 CURVE SMOOTH",
"590 796 OFFCURVE",
"562 764 OFFCURVE",
"529 723 CURVE SMOOTH",
"504 692 LINE",
"464 715 LINE",
"534 824 LINE",
"414 824 LINE"
);
},
{
closed = 1;
nodes = (
"416 745 LINE",
"500 613 LINE",
"459 581 LINE",
"364 693 LINE",
"234 581 LINE",
"193 613 LINE",
"322 745 LINE"
);
}
);
width = 583;
}
);
leftKerningGroup = a;
rightKerningGroup = a;
unicode = 1EA9;
},
{
glyphname = uni1EAB;
layers = (
{
layerId = "92E619D5-181B-4123-A4FF-2530258B7CD2";
name = "Regular Italic";
paths = (
{
closed = 1;
nodes = (
"437 0 LINE SMOOTH",
"392 0 OFFCURVE",
"370 25 OFFCURVE",
"370 62 CURVE SMOOTH",
"370 70 OFFCURVE",
"371 79 OFFCURVE",
"373 89 CURVE SMOOTH",
"378 112 LINE",
"375 112 LINE",
"332 25 OFFCURVE",
"284 -12 OFFCURVE",
"208 -12 CURVE SMOOTH",
"113 -12 OFFCURVE",
"51 62 OFFCURVE",
"51 185 CURVE SMOOTH",
"51 261 OFFCURVE",
"72 346 OFFCURVE",
"113 414 CURVE SMOOTH",
"154 481 OFFCURVE",
"218 528 OFFCURVE",
"303 528 CURVE SMOOTH",
"334 528 OFFCURVE",
"364 520 OFFCURVE",
"388 504 CURVE SMOOTH",
"412 488 OFFCURVE",
"430 464 OFFCURVE",
"438 432 CURVE",
"442 432 LINE",
"459 516 LINE",
"536 516 LINE",
"446 68 LINE",
"519 68 LINE",
"506 0 LINE"
);
},
{
closed = 1;
nodes = (
"275 58 OFFCURVE",
"306 78 OFFCURVE",
"337 109 CURVE SMOOTH",
"372 144 OFFCURVE",
"391 182 OFFCURVE",
"402 233 CURVE SMOOTH",
"427 357 LINE SMOOTH",
"431 380 OFFCURVE",
"422 405 OFFCURVE",
"402 425 CURVE SMOOTH",
"382 444 OFFCURVE",
"352 458 OFFCURVE",
"312 458 CURVE SMOOTH",
"224 458 OFFCURVE",
"170 401 OFFCURVE",
"150 301 CURVE SMOOTH",
"135 226 LINE",
"132 207 OFFCURVE",
"130 190 OFFCURVE",
"130 175 CURVE SMOOTH",
"130 108 OFFCURVE",
"160 58 OFFCURVE",
"227 58 CURVE SMOOTH"
);
},
{
closed = 1;
nodes = (
"348 884 OFFCURVE",
"369 869 OFFCURVE",
"388 858 CURVE",
"417 839 OFFCURVE",
"436 834 OFFCURVE",
"453 834 CURVE SMOOTH",
"474 834 OFFCURVE",
"491 844 OFFCURVE",
"514 861 CURVE",
"541 825 LINE",
"518 798 OFFCURVE",
"486 772 OFFCURVE",
"441 772 CURVE SMOOTH",
"408 772 OFFCURVE",
"387 787 OFFCURVE",
"368 798 CURVE",
"339 817 OFFCURVE",
"320 822 OFFCURVE",
"303 822 CURVE SMOOTH",
"282 822 OFFCURVE",
"265 812 OFFCURVE",
"242 795 CURVE",
"215 833 LINE",
"238 860 OFFCURVE",
"270 884 OFFCURVE",
"315 884 CURVE SMOOTH"
);
},
{
closed = 1;
nodes = (
"416 745 LINE",
"500 613 LINE",
"459 581 LINE",
"364 693 LINE",
"234 581 LINE",
"193 613 LINE",
"322 745 LINE"
);
}
);
width = 583;
}
);
leftKerningGroup = a;
rightKerningGroup = a;
unicode = 1EAB;
},
{
glyphname = ae;
layers = (
{
layerId = "92E619D5-181B-4123-A4FF-2530258B7CD2";
name = "Regular Italic";
paths = (
{
closed = 1;
nodes = (
"221 56 OFFCURVE",
"254 66 OFFCURVE",
"282 83 CURVE SMOOTH",
"309 99 OFFCURVE",
"328 123 OFFCURVE",
"333 150 CURVE SMOOTH",
"349 229 LINE",
"250 225 LINE SMOOTH",
"173 222 OFFCURVE",
"117 210 OFFCURVE",
"106 158 CURVE SMOOTH",
"103 145 OFFCURVE",
"102 137 OFFCURVE",
"101 132 CURVE SMOOTH",
"100 127 OFFCURVE",
"100 122 OFFCURVE",
"100 119 CURVE SMOOTH",
"100 79 OFFCURVE",
"130 56 OFFCURVE",
"185 56 CURVE SMOOTH"
);
},
{
closed = 1;
nodes = (
"522 462 OFFCURVE",
"459 402 OFFCURVE",
"440 310 CURVE SMOOTH",
"435 286 LINE",
"544 290 OFFCURVE",
"610 299 OFFCURVE",
"650 315 CURVE SMOOTH",
"689 331 OFFCURVE",
"701 353 OFFCURVE",
"701 384 CURVE SMOOTH",
"701 416 OFFCURVE",
"689 435 OFFCURVE",
"673 447 CURVE SMOOTH",
"656 459 OFFCURVE",
"632 462 OFFCURVE",
"611 462 CURVE SMOOTH"
);
},
{
closed = 1;
nodes = (
"76 -12 OFFCURVE",
"22 35 OFFCURVE",
"22 122 CURVE SMOOTH",
"22 222 OFFCURVE",
"93 275 OFFCURVE",
"254 282 CURVE SMOOTH",
"361 286 LINE",
"372 345 LINE SMOOTH",
"374 355 OFFCURVE",
"375 364 OFFCURVE",
"375 372 CURVE SMOOTH",
"375 428 OFFCURVE",
"338 458 OFFCURVE",
"270 458 CURVE SMOOTH",
"209 458 OFFCURVE",
"171 433 OFFCURVE",
"135 385 CURVE",
"87 431 LINE",
"123 487 OFFCURVE",
"193 528 OFFCURVE",
"281 528 CURVE SMOOTH",
"364 528 OFFCURVE",
"408 490 OFFCURVE",
"427 433 CURVE",
"434 433 LINE",
"478 493 OFFCURVE",
"539 528 OFFCURVE",
"615 528 CURVE SMOOTH",
"656 528 OFFCURVE",
"697 518 OFFCURVE",
"729 495 CURVE SMOOTH",
"760 472 OFFCURVE",
"780 438 OFFCURVE",
"780 390 CURVE SMOOTH",
"780 332 OFFCURVE",
"750 291 OFFCURVE",
"691 266 CURVE SMOOTH",
"631 241 OFFCURVE",
"543 229 OFFCURVE",
"426 228 CURVE",
"423 213 OFFCURVE",
"421 193 OFFCURVE",
"421 174 CURVE SMOOTH",
"421 107 OFFCURVE",
"464 57 OFFCURVE",
"544 57 CURVE SMOOTH",
"609 57 OFFCURVE",
"662 90 OFFCURVE",
"702 139 CURVE",
"752 94 LINE",
"688 15 OFFCURVE",
"614 -12 OFFCURVE",
"538 -12 CURVE SMOOTH",
"449 -12 OFFCURVE",
"390 26 OFFCURVE",
"363 94 CURVE",
"356 94 LINE",
"317 23 OFFCURVE",
"248 -12 OFFCURVE",
"168 -12 CURVE SMOOTH"
);
}
);
width = 806;
}
);
leftKerningGroup = ae;
rightKerningGroup = e;
unicode = 00E6;
},
{
glyphname = aeacute;
layers = (
{
layerId = "92E619D5-181B-4123-A4FF-2530258B7CD2";
name = "Regular Italic";
paths = (
{
closed = 1;
nodes = (
"221 56 OFFCURVE",
"254 66 OFFCURVE",
"282 83 CURVE SMOOTH",
"309 99 OFFCURVE",
"328 123 OFFCURVE",
"333 150 CURVE SMOOTH",
"349 229 LINE",
"250 225 LINE SMOOTH",
"173 222 OFFCURVE",
"117 210 OFFCURVE",
"106 158 CURVE SMOOTH",
"103 145 OFFCURVE",
"102 137 OFFCURVE",
"101 132 CURVE SMOOTH",
"100 127 OFFCURVE",
"100 122 OFFCURVE",
"100 119 CURVE SMOOTH",
"100 79 OFFCURVE",
"130 56 OFFCURVE",
"185 56 CURVE SMOOTH"
);
},
{
closed = 1;
nodes = (
"522 462 OFFCURVE",
"459 402 OFFCURVE",
"440 310 CURVE SMOOTH",
"435 286 LINE",
"544 290 OFFCURVE",
"610 299 OFFCURVE",
"650 315 CURVE SMOOTH",
"689 331 OFFCURVE",
"701 353 OFFCURVE",
"701 384 CURVE SMOOTH",
"701 416 OFFCURVE",
"689 435 OFFCURVE",
"673 447 CURVE SMOOTH",
"656 459 OFFCURVE",
"632 462 OFFCURVE",
"611 462 CURVE SMOOTH"
);
},
{
closed = 1;
nodes = (
"76 -12 OFFCURVE",
"22 35 OFFCURVE",
"22 122 CURVE SMOOTH",
"22 222 OFFCURVE",
"93 275 OFFCURVE",
"254 282 CURVE SMOOTH",
"361 286 LINE",
"372 345 LINE SMOOTH",
"374 355 OFFCURVE",
"375 364 OFFCURVE",
"375 372 CURVE SMOOTH",
"375 428 OFFCURVE",
"338 458 OFFCURVE",
"270 458 CURVE SMOOTH",
"209 458 OFFCURVE",
"171 433 OFFCURVE",
"135 385 CURVE",
"87 431 LINE",
"123 487 OFFCURVE",
"193 528 OFFCURVE",
"281 528 CURVE SMOOTH",
"364 528 OFFCURVE",
"408 490 OFFCURVE",
"427 433 CURVE",
"434 433 LINE",
"478 493 OFFCURVE",
"539 528 OFFCURVE",
"615 528 CURVE SMOOTH",
"656 528 OFFCURVE",
"697 518 OFFCURVE",
"729 495 CURVE SMOOTH",
"760 472 OFFCURVE",
"780 438 OFFCURVE",
"780 390 CURVE SMOOTH",
"780 332 OFFCURVE",
"750 291 OFFCURVE",
"691 266 CURVE SMOOTH",
"631 241 OFFCURVE",
"543 229 OFFCURVE",
"426 228 CURVE",
"423 213 OFFCURVE",
"421 193 OFFCURVE",
"421 174 CURVE SMOOTH",
"421 107 OFFCURVE",
"464 57 OFFCURVE",
"544 57 CURVE SMOOTH",
"609 57 OFFCURVE",
"662 90 OFFCURVE",
"702 139 CURVE",
"752 94 LINE",
"688 15 OFFCURVE",
"614 -12 OFFCURVE",
"538 -12 CURVE SMOOTH",
"449 -12 OFFCURVE",
"390 26 OFFCURVE",
"363 94 CURVE",
"356 94 LINE",
"317 23 OFFCURVE",
"248 -12 OFFCURVE",
"168 -12 CURVE SMOOTH"
);
},
{
closed = 1;
nodes = (
"474 585 LINE",
"426 610 LINE",
"530 780 LINE",
"598 744 LINE"
);
}
);
width = 806;
}
);
leftKerningGroup = ae;
rightKerningGroup = e;
unicode = 01FD;
},
{
glyphname = cacute;
layers = (
{
layerId = "92E619D5-181B-4123-A4FF-2530258B7CD2";
name = "Regular Italic";
paths = (
{
closed = 1;
nodes = (
"177 -12 OFFCURVE",
"131 9 OFFCURVE",
"99 46 CURVE SMOOTH",
"67 83 OFFCURVE",
"49 135 OFFCURVE",
"49 199 CURVE SMOOTH",
"49 288 OFFCURVE",
"73 371 OFFCURVE",
"117 431 CURVE SMOOTH",
"161 491 OFFCURVE",
"223 528 OFFCURVE",
"302 528 CURVE SMOOTH",
"394 528 OFFCURVE",
"453 478 OFFCURVE",
"473 407 CURVE",
"409 378 LINE",
"392 432 OFFCURVE",
"355 459 OFFCURVE",
"300 459 CURVE SMOOTH",
"217 459 OFFCURVE",
"166 404 OFFCURVE",
"147 312 CURVE SMOOTH",
"130 228 LINE SMOOTH",
"127 213 OFFCURVE",
"126 195 OFFCURVE",
"126 183 CURVE SMOOTH",
"126 108 OFFCURVE",
"164 57 OFFCURVE",
"244 57 CURVE SMOOTH",
"295 57 OFFCURVE",
"335 81 OFFCURVE",
"376 158 CURVE",
"437 128 LINE",
"394 39 OFFCURVE",
"325 -12 OFFCURVE",
"236 -12 CURVE SMOOTH"
);
},
{
closed = 1;
nodes = (
"333 585 LINE",
"285 610 LINE",
"389 780 LINE",
"457 744 LINE"
);
}
);
width = 488;
}
);
leftKerningGroup = c;
rightKerningGroup = c;
unicode = 0107;
},
{
glyphname = ccaron;
layers = (
{
layerId = "92E619D5-181B-4123-A4FF-2530258B7CD2";
name = "Regular Italic";
paths = (
{
closed = 1;
nodes = (
"177 -12 OFFCURVE",
"131 9 OFFCURVE",
"99 46 CURVE SMOOTH",
"67 83 OFFCURVE",
"49 135 OFFCURVE",
"49 199 CURVE SMOOTH",
"49 288 OFFCURVE",
"73 371 OFFCURVE",
"117 431 CURVE SMOOTH",
"161 491 OFFCURVE",
"223 528 OFFCURVE",
"302 528 CURVE SMOOTH",
"394 528 OFFCURVE",
"453 478 OFFCURVE",
"473 407 CURVE",
"409 378 LINE",
"392 432 OFFCURVE",
"355 459 OFFCURVE",
"300 459 CURVE SMOOTH",
"217 459 OFFCURVE",
"166 404 OFFCURVE",
"147 312 CURVE SMOOTH",
"130 228 LINE SMOOTH",
"127 213 OFFCURVE",
"126 195 OFFCURVE",
"126 183 CURVE SMOOTH",
"126 108 OFFCURVE",
"164 57 OFFCURVE",
"244 57 CURVE SMOOTH",
"295 57 OFFCURVE",
"335 81 OFFCURVE",
"376 158 CURVE",
"437 128 LINE",
"394 39 OFFCURVE",
"325 -12 OFFCURVE",
"236 -12 CURVE SMOOTH"
);
},
{
closed = 1;
nodes = (
"275 599 LINE",
"193 742 LINE",
"237 773 LINE",
"327 657 LINE",
"467 774 LINE",
"508 742 LINE",
"370 599 LINE"
);
}
);
width = 488;
}
);
leftKerningGroup = c;
rightKerningGroup = c;
unicode = 010D;
},
{
glyphname = ccedilla;
layers = (
{
layerId = "92E619D5-181B-4123-A4FF-2530258B7CD2";
name = "Regular Italic";
paths = (
{
closed = 1;
nodes = (
"394 528 OFFCURVE",
"453 478 OFFCURVE",
"473 407 CURVE",
"409 378 LINE",
"392 432 OFFCURVE",
"355 459 OFFCURVE",
"300 459 CURVE SMOOTH",
"217 459 OFFCURVE",
"166 404 OFFCURVE",
"147 312 CURVE SMOOTH",
"130 228 LINE SMOOTH",
"127 213 OFFCURVE",
"126 195 OFFCURVE",
"126 183 CURVE SMOOTH",
"126 108 OFFCURVE",
"164 57 OFFCURVE",
"244 57 CURVE SMOOTH",
"295 57 OFFCURVE",
"335 81 OFFCURVE",
"376 158 CURVE",
"437 128 LINE",
"397 44 OFFCURVE",
"334 -4 OFFCURVE",
"254 -11 CURVE",
"238 -62 LINE",
"240 -64 LINE",
"247 -63 OFFCURVE",
"256 -60 OFFCURVE",
"271 -60 CURVE SMOOTH",
"304 -60 OFFCURVE",
"330 -73 OFFCURVE",
"330 -116 CURVE SMOOTH",
"330 -172 OFFCURVE",
"286 -207 OFFCURVE",
"222 -207 CURVE SMOOTH",
"171 -207 OFFCURVE",
"136 -190 OFFCURVE",
"121 -170 CURVE",
"161 -129 LINE",
"170 -142 OFFCURVE",
"191 -154 OFFCURVE",
"220 -154 CURVE SMOOTH",
"249 -154 OFFCURVE",
"266 -139 OFFCURVE",
"266 -118 CURVE SMOOTH",
"266 -97 OFFCURVE",
"254 -84 OFFCURVE",
"211 -79 CURVE SMOOTH",
"185 -76 LINE",
"205 -10 LINE",
"106 3 OFFCURVE",
"49 82 OFFCURVE",
"49 199 CURVE SMOOTH",
"49 288 OFFCURVE",
"73 371 OFFCURVE",
"117 431 CURVE SMOOTH",
"161 491 OFFCURVE",
"223 528 OFFCURVE",
"302 528 CURVE SMOOTH"
);
}
);
width = 488;
}
);
leftKerningGroup = c;
rightKerningGroup = c;
unicode = 00E7;
},
{
glyphname = ccircumflex;
layers = (
{
layerId = "92E619D5-181B-4123-A4FF-2530258B7CD2";
name = "Regular Italic";
paths = (
{
closed = 1;
nodes = (
"177 -12 OFFCURVE",
"131 9 OFFCURVE",
"99 46 CURVE SMOOTH",
"67 83 OFFCURVE",
"49 135 OFFCURVE",
"49 199 CURVE SMOOTH",
"49 288 OFFCURVE",
"73 371 OFFCURVE",
"117 431 CURVE SMOOTH",
"161 491 OFFCURVE",
"223 528 OFFCURVE",
"302 528 CURVE SMOOTH",
"394 528 OFFCURVE",
"453 478 OFFCURVE",
"473 407 CURVE",
"409 378 LINE",
"392 432 OFFCURVE",
"355 459 OFFCURVE",
"300 459 CURVE SMOOTH",
"217 459 OFFCURVE",
"166 404 OFFCURVE",
"147 312 CURVE SMOOTH",
"130 228 LINE SMOOTH",
"127 213 OFFCURVE",
"126 195 OFFCURVE",
"126 183 CURVE SMOOTH",
"126 108 OFFCURVE",
"164 57 OFFCURVE",
"244 57 CURVE SMOOTH",
"295 57 OFFCURVE",
"335 81 OFFCURVE",
"376 158 CURVE",
"437 128 LINE",
"394 39 OFFCURVE",
"325 -12 OFFCURVE",
"236 -12 CURVE SMOOTH"
);
},
{
closed = 1;
nodes = (
"394 765 LINE",
"476 622 LINE",
"433 591 LINE",
"340 706 LINE",
"201 590 LINE",
"162 622 LINE",
"300 765 LINE"
);
}
);
width = 488;
}
);
leftKerningGroup = c;
rightKerningGroup = c;
unicode = 0109;
},
{
glyphname = cdotaccent;
layers = (
{
layerId = "92E619D5-181B-4123-A4FF-2530258B7CD2";
name = "Regular Italic";
paths = (
{
closed = 1;
nodes = (
"177 -12 OFFCURVE",
"131 9 OFFCURVE",
"99 46 CURVE SMOOTH",
"67 83 OFFCURVE",
"49 135 OFFCURVE",
"49 199 CURVE SMOOTH",
"49 288 OFFCURVE",
"73 371 OFFCURVE",
"117 431 CURVE SMOOTH",
"161 491 OFFCURVE",
"223 528 OFFCURVE",
"302 528 CURVE SMOOTH",
"394 528 OFFCURVE",
"453 478 OFFCURVE",
"473 407 CURVE",
"409 378 LINE",
"392 432 OFFCURVE",
"355 459 OFFCURVE",
"300 459 CURVE SMOOTH",
"217 459 OFFCURVE",
"166 404 OFFCURVE",
"147 312 CURVE SMOOTH",
"130 228 LINE SMOOTH",
"127 213 OFFCURVE",
"126 195 OFFCURVE",
"126 183 CURVE SMOOTH",
"126 108 OFFCURVE",
"164 57 OFFCURVE",
"244 57 CURVE SMOOTH",
"295 57 OFFCURVE",
"335 81 OFFCURVE",
"376 158 CURVE",
"437 128 LINE",
"394 39 OFFCURVE",
"325 -12 OFFCURVE",
"236 -12 CURVE SMOOTH"
);
},
{
closed = 1;
nodes = (
"299 616 OFFCURVE",
"284 628 OFFCURVE",
"284 651 CURVE SMOOTH",
"284 656 OFFCURVE",
"284 661 OFFCURVE",
"287 672 CURVE",
"293 703 OFFCURVE",
"312 719 OFFCURVE",
"343 719 CURVE SMOOTH",
"370 719 OFFCURVE",
"385 707 OFFCURVE",
"385 684 CURVE SMOOTH",
"385 681 OFFCURVE",
"384 674 OFFCURVE",
"382 663 CURVE SMOOTH",
"376 632 OFFCURVE",
"357 616 OFFCURVE",
"326 616 CURVE SMOOTH"
);
}
);
width = 488;
}
);
leftKerningGroup = c;
rightKerningGroup = c;
unicode = 010B;
},
